<?xml version="1.0" encoding="utf-8"?>
<!-- Generator: Adobe Illustrator 25.3.0, SVG Export Plug-In . SVG Version: 6.00 Build 0)  -->
<svg version="1.1" id="Layer_1" xmlns="http://www.w3.org/2000/svg" xmlns:xlink="http://www.w3.org/1999/xlink" x="0px" y="0px"
	 viewBox="0 0 155.1 116" style="enable-background:new 0 0 155.1 116;" xml:space="preserve">
<style type="text/css">
	.st0{fill:#FF972A;}
	.st1{fill:#FFFFFF;}
	.st2{filter:url(#Adobe_OpacityMaskFilter);}
	.st3{fill:url(#SVGID_2_);}
	.st4{mask:url(#SVGID_1_);fill:#FF972A;}
	.st5{filter:url(#Adobe_OpacityMaskFilter_1_);}
	.st6{fill:url(#SVGID_4_);}
	.st7{mask:url(#SVGID_3_);fill:#FF972A;}
	.st8{filter:url(#Adobe_OpacityMaskFilter_2_);}
	.st9{fill:url(#SVGID_6_);}
	.st10{mask:url(#SVGID_5_);fill:#FFFFFF;}
	.st11{filter:url(#Adobe_OpacityMaskFilter_3_);}
	.st12{fill:url(#SVGID_8_);}
	.st13{mask:url(#SVGID_7_);fill:#FFFFFF;}
	.st14{filter:url(#Adobe_OpacityMaskFilter_4_);}
	.st15{fill:url(#SVGID_10_);}
	.st16{mask:url(#SVGID_9_);fill:#FFFFFF;}
	.st17{filter:url(#Adobe_OpacityMaskFilter_5_);}
	.st18{fill:url(#SVGID_12_);}
	.st19{mask:url(#SVGID_11_);fill:#FFFFFF;}
	.st20{filter:url(#Adobe_OpacityMaskFilter_6_);}
	.st21{fill:url(#SVGID_14_);}
	.st22{mask:url(#SVGID_13_);fill:#353536;}
	.st23{filter:url(#Adobe_OpacityMaskFilter_7_);}
	.st24{fill:url(#SVGID_16_);}
	.st25{mask:url(#SVGID_15_);fill:#FFFFFF;}
	.st26{filter:url(#Adobe_OpacityMaskFilter_8_);}
	.st27{fill:url(#SVGID_18_);}
	.st28{mask:url(#SVGID_17_);fill:#353536;}
</style>
<g>
	<g>
		<g>
		</g>
	</g>
	<g>
	</g>
	<g>
	</g>
</g>
<g>
	<g>
		<g>
			<path class="st0" d="M41.6,102.3v-0.8c0.5,0.2,1.1,0.5,1.8,0.5c0.8,0,1.4-0.3,1.4-0.9c0-0.6-0.3-0.9-1.4-1.3
				c-1.2-0.4-1.8-1-1.8-1.9c0-1.1,0.9-1.7,2.1-1.7c0.6,0,1.2,0.2,1.6,0.3v0.8c-0.4-0.2-1-0.4-1.5-0.4c-0.8,0-1.3,0.4-1.3,0.9
				c0,0.5,0.3,0.9,1.4,1.3c1.2,0.4,1.8,0.9,1.8,1.9c0,1.1-0.8,1.7-2.2,1.7C42.7,102.7,42,102.5,41.6,102.3z"/>
			<path class="st0" d="M52.9,96.1c1.8,0,3.3,1.4,3.3,3.3c0,1.9-1.4,3.3-3.3,3.3c-1.9,0-3.3-1.4-3.3-3.3
				C49.6,97.6,51,96.1,52.9,96.1z M52.9,101.9c1.4,0,2.4-1.1,2.4-2.5c0-1.4-1-2.5-2.4-2.5c-1.4,0-2.4,1.1-2.4,2.5
				C50.5,100.9,51.5,101.9,52.9,101.9z"/>
			<path class="st0" d="M60.7,102.6v-6.4h0.9v5.7h2.8v0.7H60.7z"/>
			<path class="st0" d="M73.5,100.4c0,1.5-0.9,2.3-2.5,2.3c-1.5,0-2.5-0.9-2.5-2.3v-4.2h0.9v4.1c0,1,0.6,1.6,1.6,1.6
				c1,0,1.6-0.6,1.6-1.6v-4.1h0.9V100.4z"/>
			<path class="st0" d="M80.5,96.9v5.7h-0.9v-5.7h-1.9v-0.7h4.8v0.7H80.5z"/>
			<path class="st0" d="M86.8,102.6v-6.4h0.9v6.4H86.8z"/>
			<path class="st0" d="M95.5,96.1c1.8,0,3.3,1.4,3.3,3.3c0,1.9-1.4,3.3-3.3,3.3s-3.3-1.4-3.3-3.3C92.2,97.6,93.6,96.1,95.5,96.1z
				 M95.5,101.9c1.4,0,2.4-1.1,2.4-2.5c0-1.4-1-2.5-2.4-2.5S93,98,93,99.4C93,100.9,94.1,101.9,95.5,101.9z"/>
			<path class="st0" d="M108.3,102.7l-4-4.3l-0.2-0.2v4.4h-0.9v-6.5h0l4,4.3l0.2,0.2v-4.4h0.9L108.3,102.7L108.3,102.7z"/>
			<path class="st0" d="M112.9,102.3v-0.8c0.5,0.2,1.1,0.5,1.8,0.5c0.8,0,1.4-0.3,1.4-0.9c0-0.6-0.3-0.9-1.4-1.3
				c-1.2-0.4-1.8-1-1.8-1.9c0-1.1,0.9-1.7,2.1-1.7c0.6,0,1.2,0.2,1.6,0.3v0.8c-0.4-0.2-1-0.4-1.5-0.4c-0.8,0-1.3,0.4-1.3,0.9
				c0,0.5,0.3,0.9,1.4,1.3c1.2,0.4,1.8,0.9,1.8,1.9c0,1.1-0.8,1.7-2.2,1.7C114,102.7,113.4,102.5,112.9,102.3z"/>
		</g>
	</g>
	<g>
		<path class="st1" d="M8.1,84.9v-1.8c0.6,0.3,1.4,0.6,2.2,0.6c0.3,0,0.5,0,0.8,0c0.7-0.1,1.1-0.4,1.1-0.8c0-0.6-0.5-0.9-1.7-1.3
			C8.9,81,8,80.3,8,78.8c0-1.6,1.3-2.6,3.2-2.6c0.9,0,1.7,0.2,2.3,0.4v1.7c-0.5-0.3-1.3-0.5-2.1-0.5c-0.9,0-1.5,0.4-1.5,0.9
			c0,0.5,0.5,0.9,1.7,1.3c1.5,0.6,2.5,1.2,2.5,2.7c0,1.6-1.2,2.5-3.3,2.5C9.7,85.4,8.7,85.1,8.1,84.9z"/>
		<path class="st1" d="M24.8,78v7.2h-1.9V78h-2.4v-1.6h6.8V78H24.8z"/>
		<path class="st1" d="M38.4,76.3c2.6,0,4.6,2,4.6,4.5c0,2.6-1.9,4.5-4.6,4.5c-2.6,0-4.6-2-4.6-4.5C33.8,78.3,35.7,76.3,38.4,76.3z
			 M38.4,83.7c1.6,0,2.7-1.3,2.7-2.8c0-1.6-1.1-2.8-2.7-2.8c-1.6,0-2.7,1.3-2.7,2.8C35.7,82.4,36.8,83.7,38.4,83.7z"/>
		<path class="st1" d="M57.6,85.3l-4.8-4.6l-0.6-0.5v5h-1.8v-8.9h0.1l4.8,4.6l0.6,0.5v-5h1.8L57.6,85.3L57.6,85.3z"/>
		<path class="st1" d="M65.6,85.2v-8.7h5.6V78h-3.8v2h3.2v1.5h-3.2v2.1h3.9v1.6H65.6z"/>
		<path class="st1" d="M79.9,76.4l1.2,3c0.3,0.7,0.5,1.4,0.7,2c0.1-0.3,0.4-1,0.6-1.5l0.5-1.1l1-2.3H84c0.7,1.7,1.7,3.7,2.1,4.9
			c0.3-0.8,1.4-3.6,1.9-5h2.1l-3.9,8.9h-0.1l-1.7-3.9c-0.2-0.3-0.3-0.7-0.4-1c-0.1,0.3-0.3,0.7-0.4,1l-1.7,3.9h-0.1l-3.9-8.9H79.9z"
			/>
		<path class="st1" d="M101.2,76.3c2.6,0,4.6,2,4.6,4.5c0,2.6-1.9,4.5-4.6,4.5s-4.6-2-4.6-4.5C96.6,78.3,98.6,76.3,101.2,76.3z
			 M101.2,83.7c1.6,0,2.7-1.3,2.7-2.8c0-1.6-1.1-2.8-2.7-2.8s-2.7,1.3-2.7,2.8C98.5,82.4,99.6,83.7,101.2,83.7z"/>
		<path class="st1" d="M116.3,76.4c2,0,3.4,1,3.4,2.9c0,1.3-0.7,2.1-1.7,2.5l1.8,3.4h-2l-1.5-3.1H115v3.1h-1.8v-8.7H116.3z M115,78
			v2.6h1.3c0.8,0,1.4-0.4,1.4-1.3c0-0.9-0.6-1.3-1.4-1.3H115z"/>
		<path class="st1" d="M129.1,80.6l3.4-4.1h2.2l-3.1,3.7l3.1,5.1h-2.1l-2.3-3.9l-1.3,1.4v2.5h-1.9v-8.7h1.9V80.6z"/>
		<path class="st1" d="M141.3,84.9v-1.8c0.6,0.3,1.4,0.6,2.2,0.6c0.3,0,0.5,0,0.8,0c0.7-0.1,1.1-0.4,1.1-0.8c0-0.6-0.5-0.9-1.7-1.3
			c-1.5-0.6-2.4-1.2-2.4-2.7c0-1.6,1.3-2.6,3.2-2.6c0.9,0,1.7,0.2,2.3,0.4v1.7c-0.5-0.3-1.3-0.5-2.1-0.5c-0.9,0-1.5,0.4-1.5,0.9
			c0,0.5,0.5,0.9,1.7,1.3c1.5,0.6,2.5,1.2,2.5,2.7c0,1.6-1.2,2.5-3.3,2.5C142.9,85.4,141.9,85.1,141.3,84.9z"/>
	</g>
	<g>
		<defs>
			<filter id="Adobe_OpacityMaskFilter" filterUnits="userSpaceOnUse" x="59.8" y="12.4" width="16.1" height="48.8">
				<feColorMatrix  type="matrix" values="1 0 0 0 0  0 1 0 0 0  0 0 1 0 0  0 0 0 1 0"/>
			</filter>
		</defs>
		<mask maskUnits="userSpaceOnUse" x="59.8" y="12.4" width="16.1" height="48.8" id="SVGID_1_">
			<g class="st2">
				<linearGradient id="SVGID_2_" gradientUnits="userSpaceOnUse" x1="63.581" y1="13.2751" x2="75.207" y2="78.0487">
					<stop  offset="0" style="stop-color:#000000"/>
					<stop  offset="8.887754e-02" style="stop-color:#070707"/>
					<stop  offset="0.2165" style="stop-color:#1A1A1A"/>
					<stop  offset="0.3674" style="stop-color:#393939"/>
					<stop  offset="0.5363" style="stop-color:#646464"/>
					<stop  offset="0.7202" style="stop-color:#9C9C9C"/>
					<stop  offset="0.9136" style="stop-color:#DFDFDF"/>
					<stop  offset="1" style="stop-color:#FFFFFF"/>
				</linearGradient>
				<rect x="58.1" y="10.2" class="st3" width="19.1" height="51.7"/>
			</g>
		</mask>
		<polygon class="st4" points="75.9,52.6 59.8,61.1 59.8,12.4 75.9,12.4 		"/>
		<defs>
			<filter id="Adobe_OpacityMaskFilter_1_" filterUnits="userSpaceOnUse" x="59.8" y="12.4" width="16.1" height="48.8">
				<feColorMatrix  type="matrix" values="1 0 0 0 0  0 1 0 0 0  0 0 1 0 0  0 0 0 1 0"/>
			</filter>
		</defs>
		<mask maskUnits="userSpaceOnUse" x="59.8" y="12.4" width="16.1" height="48.8" id="SVGID_3_">
			<g class="st5">
				<linearGradient id="SVGID_4_" gradientUnits="userSpaceOnUse" x1="63.581" y1="13.2751" x2="75.207" y2="78.0487">
					<stop  offset="0" style="stop-color:#000000"/>
					<stop  offset="8.887754e-02" style="stop-color:#070707"/>
					<stop  offset="0.2165" style="stop-color:#1A1A1A"/>
					<stop  offset="0.3674" style="stop-color:#393939"/>
					<stop  offset="0.5363" style="stop-color:#646464"/>
					<stop  offset="0.7202" style="stop-color:#9C9C9C"/>
					<stop  offset="0.9136" style="stop-color:#DFDFDF"/>
					<stop  offset="1" style="stop-color:#FFFFFF"/>
				</linearGradient>
				<rect x="58.1" y="10.2" class="st6" width="19.1" height="51.7"/>
			</g>
		</mask>
		<polygon class="st7" points="75.9,52.6 59.8,61.1 59.8,12.4 75.9,12.4 		"/>
		<defs>
			<filter id="Adobe_OpacityMaskFilter_2_" filterUnits="userSpaceOnUse" x="39.3" y="21.8" width="16.1" height="48.8">
				<feColorMatrix  type="matrix" values="1 0 0 0 0  0 1 0 0 0  0 0 1 0 0  0 0 0 1 0"/>
			</filter>
		</defs>
		<mask maskUnits="userSpaceOnUse" x="39.3" y="21.8" width="16.1" height="48.8" id="SVGID_5_">
			<g class="st8">
				<linearGradient id="SVGID_6_" gradientUnits="userSpaceOnUse" x1="42.1109" y1="25.1849" x2="53.2075" y2="72.5085">
					<stop  offset="5.817739e-02" style="stop-color:#000000"/>
					<stop  offset="0.1383" style="stop-color:#070707"/>
					<stop  offset="0.2546" style="stop-color:#1A1A1A"/>
					<stop  offset="0.393" style="stop-color:#3A3A3A"/>
					<stop  offset="0.5483" style="stop-color:#666666"/>
					<stop  offset="0.7178" style="stop-color:#9F9F9F"/>
					<stop  offset="0.8964" style="stop-color:#E2E2E2"/>
					<stop  offset="0.9661" style="stop-color:#FFFFFF"/>
				</linearGradient>
				<rect x="38.1" y="21.2" class="st9" width="18" height="50.3"/>
			</g>
		</mask>
		<polygon class="st10" points="55.3,62 39.3,70.6 39.3,21.8 55.3,21.8 		"/>
		<defs>
			<filter id="Adobe_OpacityMaskFilter_3_" filterUnits="userSpaceOnUse" x="68.7" y="14.5" width="16.1" height="48.8">
				<feColorMatrix  type="matrix" values="1 0 0 0 0  0 1 0 0 0  0 0 1 0 0  0 0 0 1 0"/>
			</filter>
		</defs>
		<mask maskUnits="userSpaceOnUse" x="68.7" y="14.5" width="16.1" height="48.8" id="SVGID_7_">
			<g class="st11">
				<linearGradient id="SVGID_8_" gradientUnits="userSpaceOnUse" x1="81.1787" y1="14.6465" x2="71.1068" y2="63.0878">
					<stop  offset="0" style="stop-color:#000000"/>
					<stop  offset="8.887754e-02" style="stop-color:#070707"/>
					<stop  offset="0.2165" style="stop-color:#1A1A1A"/>
					<stop  offset="0.3674" style="stop-color:#393939"/>
					<stop  offset="0.5363" style="stop-color:#646464"/>
					<stop  offset="0.7202" style="stop-color:#9C9C9C"/>
					<stop  offset="0.9136" style="stop-color:#DFDFDF"/>
					<stop  offset="1" style="stop-color:#FFFFFF"/>
				</linearGradient>
				<rect x="67.2" y="13.4" class="st12" width="18" height="50.3"/>
			</g>
		</mask>
		<polygon class="st13" points="84.8,54.7 68.7,63.3 68.7,14.5 84.8,14.5 		"/>
		<defs>
			<filter id="Adobe_OpacityMaskFilter_4_" filterUnits="userSpaceOnUse" x="80.9" y="10.2" width="16.1" height="48.8">
				<feColorMatrix  type="matrix" values="1 0 0 0 0  0 1 0 0 0  0 0 1 0 0  0 0 0 1 0"/>
			</filter>
		</defs>
		<mask maskUnits="userSpaceOnUse" x="80.9" y="10.2" width="16.1" height="48.8" id="SVGID_9_">
			<g class="st14">
				<linearGradient id="SVGID_10_" gradientUnits="userSpaceOnUse" x1="93.4207" y1="10.695" x2="83.4786" y2="58.5117">
					<stop  offset="0" style="stop-color:#000000"/>
					<stop  offset="8.887754e-02" style="stop-color:#070707"/>
					<stop  offset="0.2165" style="stop-color:#1A1A1A"/>
					<stop  offset="0.3674" style="stop-color:#393939"/>
					<stop  offset="0.5363" style="stop-color:#646464"/>
					<stop  offset="0.7202" style="stop-color:#9C9C9C"/>
					<stop  offset="0.9136" style="stop-color:#DFDFDF"/>
					<stop  offset="1" style="stop-color:#FFFFFF"/>
				</linearGradient>
				<rect x="79.6" y="9.4" class="st15" width="17.9" height="49.7"/>
			</g>
		</mask>
		<polygon class="st16" points="80.9,50.4 96.9,59 96.9,10.2 80.9,10.2 		"/>
		<defs>
			<filter id="Adobe_OpacityMaskFilter_5_" filterUnits="userSpaceOnUse" x="112.2" y="28.6" width="9.6" height="43.4">
				<feColorMatrix  type="matrix" values="1 0 0 0 0  0 1 0 0 0  0 0 1 0 0  0 0 0 1 0"/>
			</filter>
		</defs>
		<mask maskUnits="userSpaceOnUse" x="112.2" y="28.6" width="9.6" height="43.4" id="SVGID_11_">
			<g class="st17">
				<linearGradient id="SVGID_12_" gradientUnits="userSpaceOnUse" x1="121.2283" y1="29.6602" x2="112.5895" y2="71.2091">
					<stop  offset="0" style="stop-color:#000000"/>
					<stop  offset="8.887754e-02" style="stop-color:#070707"/>
					<stop  offset="0.2165" style="stop-color:#1A1A1A"/>
					<stop  offset="0.3674" style="stop-color:#393939"/>
					<stop  offset="0.5363" style="stop-color:#646464"/>
					<stop  offset="0.7202" style="stop-color:#9C9C9C"/>
					<stop  offset="0.9136" style="stop-color:#DFDFDF"/>
					<stop  offset="1" style="stop-color:#FFFFFF"/>
				</linearGradient>
				<rect x="111.7" y="28.1" class="st18" width="10.5" height="44.2"/>
			</g>
		</mask>
		<polygon class="st19" points="112.2,66.9 121.8,72 121.8,28.6 112.2,28.6 		"/>
		<defs>
			<filter id="Adobe_OpacityMaskFilter_6_" filterUnits="userSpaceOnUse" x="99.1" y="22.7" width="6.1" height="40.5">
				<feColorMatrix  type="matrix" values="1 0 0 0 0  0 1 0 0 0  0 0 1 0 0  0 0 0 1 0"/>
			</filter>
		</defs>
		<mask maskUnits="userSpaceOnUse" x="99.1" y="22.7" width="6.1" height="40.5" id="SVGID_13_">
			<g class="st20">
				<linearGradient id="SVGID_14_" gradientUnits="userSpaceOnUse" x1="106.0568" y1="23.5224" x2="97.9771" y2="62.382">
					<stop  offset="0" style="stop-color:#000000"/>
					<stop  offset="8.887754e-02" style="stop-color:#070707"/>
					<stop  offset="0.2165" style="stop-color:#1A1A1A"/>
					<stop  offset="0.3674" style="stop-color:#393939"/>
					<stop  offset="0.5363" style="stop-color:#646464"/>
					<stop  offset="0.7202" style="stop-color:#9C9C9C"/>
					<stop  offset="0.9136" style="stop-color:#DFDFDF"/>
					<stop  offset="1" style="stop-color:#FFFFFF"/>
				</linearGradient>
				<rect x="98.2" y="21.8" class="st21" width="7.7" height="41.8"/>
			</g>
		</mask>
		<polygon class="st22" points="99.1,60 105.1,63.3 105.1,22.7 99.1,22.7 		"/>
		<defs>
			<filter id="Adobe_OpacityMaskFilter_7_" filterUnits="userSpaceOnUse" x="102.7" y="28.1" width="6.1" height="40.5">
				<feColorMatrix  type="matrix" values="1 0 0 0 0  0 1 0 0 0  0 0 1 0 0  0 0 0 1 0"/>
			</filter>
		</defs>
		<mask maskUnits="userSpaceOnUse" x="102.7" y="28.1" width="6.1" height="40.5" id="SVGID_15_">
			<g class="st23">
				<linearGradient id="SVGID_16_" gradientUnits="userSpaceOnUse" x1="109.76" y1="28.9551" x2="101.7378" y2="67.5382">
					<stop  offset="0" style="stop-color:#000000"/>
					<stop  offset="8.887754e-02" style="stop-color:#070707"/>
					<stop  offset="0.2165" style="stop-color:#1A1A1A"/>
					<stop  offset="0.3674" style="stop-color:#393939"/>
					<stop  offset="0.5363" style="stop-color:#646464"/>
					<stop  offset="0.7202" style="stop-color:#9C9C9C"/>
					<stop  offset="0.9136" style="stop-color:#DFDFDF"/>
					<stop  offset="1" style="stop-color:#FFFFFF"/>
				</linearGradient>
				<rect x="101.8" y="27.3" class="st24" width="8.1" height="41.4"/>
			</g>
		</mask>
		<polygon class="st25" points="102.7,65.4 108.8,68.6 108.8,28.1 102.7,28.1 		"/>
		<defs>
			<filter id="Adobe_OpacityMaskFilter_8_" filterUnits="userSpaceOnUse" x="51.3" y="26.7" width="6.1" height="40.5">
				<feColorMatrix  type="matrix" values="1 0 0 0 0  0 1 0 0 0  0 0 1 0 0  0 0 0 1 0"/>
			</filter>
		</defs>
		<mask maskUnits="userSpaceOnUse" x="51.3" y="26.7" width="6.1" height="40.5" id="SVGID_17_">
			<g class="st26">
				<linearGradient id="SVGID_18_" gradientUnits="userSpaceOnUse" x1="50.9818" y1="27.7936" x2="59.7937" y2="69.5688">
					<stop  offset="0.1391" style="stop-color:#000000"/>
					<stop  offset="0.2156" style="stop-color:#070707"/>
					<stop  offset="0.3255" style="stop-color:#1A1A1A"/>
					<stop  offset="0.4554" style="stop-color:#393939"/>
					<stop  offset="0.6008" style="stop-color:#646464"/>
					<stop  offset="0.7591" style="stop-color:#9C9C9C"/>
					<stop  offset="0.9256" style="stop-color:#DFDFDF"/>
					<stop  offset="1" style="stop-color:#FFFFFF"/>
				</linearGradient>
				<rect x="48.9" y="17.8" class="st27" width="10.5" height="50.3"/>
			</g>
		</mask>
		<polygon class="st28" points="57.4,64 51.3,67.3 51.3,26.7 57.4,26.7 		"/>
	</g>
</g>
</svg>
