<?xml version="1.0" encoding="utf-8"?>
<!-- Generator: Adobe Illustrator 25.3.0, SVG Export Plug-In . SVG Version: 6.00 Build 0)  -->
<svg version="1.1" id="Layer_1" xmlns="http://www.w3.org/2000/svg" xmlns:xlink="http://www.w3.org/1999/xlink" x="0px" y="0px"
	 viewBox="0 0 1402.04 362.49" style="enable-background:new 0 0 1402.04 362.49;" xml:space="preserve">
<style type="text/css">
	.st0{fill:#FF972A;}
	.st1{fill:#5B5B5B;}
	.st2{fill:#41F763;}
	.st3{fill:#A8A8A8;}
	.st4{fill:#D1D1D1;}
</style>
<g>
	<g>
		<rect x="145.03" y="188.64" class="st0" width="107.71" height="19.37"/>
		<rect x="58.74" y="208.8" class="st0" width="55.79" height="19.37"/>
	</g>
	<g>
		<rect x="145.03" y="208.8" class="st1" width="107.71" height="19.37"/>
		<rect x="58.74" y="228.96" class="st1" width="55.79" height="19.37"/>
	</g>
	<g>
		<rect x="722.71" y="208.8" class="st1" width="107.71" height="19.37"/>
		<rect x="636.42" y="228.96" class="st1" width="55.79" height="19.37"/>
	</g>
	<g>
		<rect x="145.03" y="228.76" class="st2" width="107.71" height="19.37"/>
		<rect x="58.74" y="248.91" class="st2" width="55.79" height="19.37"/>
	</g>
	<g>
		<rect x="977.53" y="228.76" class="st2" width="107.71" height="19.37"/>
		<rect x="891.23" y="248.91" class="st2" width="55.79" height="19.37"/>
	</g>
	<g>
		<rect x="1240.56" y="188.64" class="st0" width="107.71" height="19.37"/>
		<rect x="1154.27" y="208.8" class="st0" width="55.79" height="19.37"/>
	</g>
	<g>
		<rect x="407.55" y="208.41" class="st0" width="107.71" height="19.37"/>
		<rect x="321.25" y="228.56" class="st0" width="55.79" height="19.37"/>
	</g>
	<g>
		<rect x="722.1" y="228.17" class="st0" width="107.71" height="19.37"/>
		<rect x="635.81" y="248.33" class="st0" width="55.79" height="19.37"/>
	</g>
	<rect x="978.85" y="250.33" class="st0" width="107.71" height="19.37"/>
	<rect x="892.56" y="270.49" class="st0" width="55.79" height="19.37"/>
	<rect x="978.85" y="188.15" class="st0" width="107.71" height="19.37"/>
	<rect x="892.56" y="208.31" class="st0" width="55.79" height="19.37"/>
	<g>
		<g>
			<g>
				<path d="M639.59,176.3l-0.4-0.4v6.37h-1.74v-10.51h0.03l4.82,5.35l4.82-5.35h0.03v10.51h-1.73v-6.37l-0.42,0.4
					c-0.89,1.05-1.8,2.09-2.7,3.12L639.59,176.3z"/>
				<path d="M656.51,178.67c0,2.17-1.58,3.78-3.77,3.78c-2.17,0-3.77-1.61-3.77-3.78s1.6-3.78,3.77-3.78
					C654.93,174.89,656.51,176.5,656.51,178.67z M654.84,178.67c0-1.35-0.89-2.29-2.1-2.29c-1.19,0-2.1,0.93-2.1,2.29
					s0.91,2.29,2.1,2.29C653.95,180.96,654.84,180.02,654.84,178.67z"/>
			</g>
			<g>
				<path d="M671.96,173.43v8.83h-1.81v-8.83h-3.02v-1.52h7.85v1.52H671.96z"/>
				<path d="M680.44,182.26l-0.04-0.91c0-0.29,0.04-0.47,0.06-0.53h-0.03c-0.29,0.66-1.22,1.63-2.56,1.63
					c-1.68,0-2.47-1.02-2.47-2.88v-4.5h1.76v4.2c0,0.85,0.19,1.58,1.16,1.58c1.17,0,2-0.95,2-2.22v-3.57h1.74v7.19H680.44z"/>
			</g>
			<g>
				<path d="M695.02,171.91l1.52,3.91c0.37,0.96,0.71,1.9,0.94,2.6c0.22-0.56,0.56-1.41,0.92-2.26l0.63-1.51l1.12-2.65h0.06
					c0.95,2.2,2.09,4.79,2.68,6.42c0.49-1.38,1.7-4.5,2.46-6.52h2l-4.42,10.51h-0.06l-2.13-5.11c-0.19-0.46-0.4-0.95-0.56-1.39
					l-0.55,1.39l-2.14,5.11h-0.06l-4.4-10.51H695.02z"/>
				<path d="M713.61,178.25c0,0.33-0.04,0.65-0.04,0.78h-5.02c0.04,1.21,0.91,1.93,2.23,1.93c1.01,0,2.06-0.3,2.55-0.6v1.54
					c-0.5,0.27-1.47,0.56-2.68,0.56c-2.39,0-3.93-1.57-3.93-3.78c0-2.17,1.57-3.78,3.6-3.78
					C712.47,174.89,713.61,176.47,713.61,178.25z M710.29,176.3c-1.04,0-1.65,0.81-1.74,1.71h3.37
					C711.93,177.1,711.37,176.3,710.29,176.3z"/>
			</g>
			<g>
				<path d="M728.49,173.43v8.83h-1.81v-8.83h-3.02v-1.52h7.85v1.52H728.49z"/>
				<path d="M734.54,171.91v3.78c0,0.33-0.03,0.62-0.03,0.75c0.35-0.6,1.19-1.55,2.55-1.55c1.7,0,2.49,1.02,2.49,2.88v4.5h-1.75
					v-4.2c0-0.83-0.2-1.58-1.18-1.58c-1.19,0-2.04,0.95-2.04,2.21v3.57h-1.76v-10.36H734.54z"/>
			</g>
			<g>
				<path d="M702.32,144.35c0,2.21-1.08,3.15-3.04,3.15c-0.65,0-1.18-0.14-1.44-0.27v-1.87c0.23,0.13,0.66,0.26,1.08,0.26
					c0.76,0,1.18-0.39,1.18-1.16v-7.51h2.22V144.35z"/>
				<path d="M708.99,136.79h0.09l5.03,10.51h-2.32l-0.83-1.83h-3.87l-0.81,1.83h-2.32L708.99,136.79z M710.29,143.92
					c-0.47-1.08-0.94-2.17-1.25-3.08c-0.3,0.72-0.85,2.1-1.28,3.08H710.29z"/>
				<path d="M724.27,147.46l-5.68-5.45l-0.68-0.59v5.88h-2.17v-10.51h0.09l5.67,5.45l0.66,0.59v-5.88h2.19v10.51H724.27z"/>
				<path d="M735.68,143.53c0,2.42-1.6,3.97-4.33,3.97c-2.72,0-4.33-1.55-4.33-3.97v-6.59h2.22v6.37c0,1.35,0.76,2.16,2.11,2.16
					c1.37,0,2.11-0.81,2.11-2.16v-6.37h2.22V143.53z"/>
				<path d="M741.74,136.79h0.09l5.03,10.51h-2.32l-0.83-1.83h-3.87l-0.81,1.83h-2.32L741.74,136.79z M743.05,143.92
					c-0.47-1.08-0.94-2.17-1.25-3.08c-0.3,0.72-0.85,2.1-1.28,3.08H743.05z"/>
				<path d="M752.13,136.95c2.4,0,4,1.19,4,3.41c0,1.51-0.85,2.5-1.97,2.95l2.17,4h-2.34l-1.83-3.62h-1.5v3.62h-2.17v-10.36H752.13z
					 M750.67,138.8v3.09h1.58c0.98,0,1.65-0.49,1.65-1.54c0-1.04-0.7-1.55-1.71-1.55H750.67z"/>
				<path d="M759.5,136.95l2.37,4.24l2.37-4.24h2.5l-3.77,6.34v4.01h-2.22v-4.01l-3.75-6.34H759.5z"/>
			</g>
			<g>
				<path d="M757.12,173.43v2.93h3.68v1.51h-3.68v4.39h-1.81v-10.36h6.19v1.52H757.12z"/>
				<path d="M762.3,175.07h1.61c0.01,0.29,0.03,0.58,0.03,0.85c0,0.24-0.01,0.45,0,0.5c0.45-0.88,1.19-1.54,2.19-1.54
					c0.22,0,0.4,0.03,0.45,0.04v1.7c-0.04,0-0.2-0.06-0.43-0.06c-1.24,0-2.09,1.25-2.09,2.6v3.09h-1.76V175.07z"/>
			</g>
			<g>
				<path d="M781.69,181.86v-1.77c0.73,0.37,1.73,0.72,2.76,0.75c0.37,0,0.73-0.03,1.04-0.11c0.73-0.17,1.18-0.55,1.18-1.11
					c0-0.82-0.59-1.27-2.17-1.83c-1.9-0.68-2.9-1.48-2.9-3.16c0-1.81,1.51-2.91,3.61-2.91c1.04,0,2.03,0.26,2.65,0.52v1.7
					c-0.59-0.33-1.58-0.62-2.52-0.62c-1.18,0-1.97,0.49-1.97,1.28c0,0.73,0.55,1.22,2.13,1.8c1.9,0.71,2.93,1.51,2.93,3.15
					c0,1.81-1.38,2.91-3.7,2.91C783.54,182.45,782.41,182.16,781.69,181.86z"/>
				<path d="M790.11,175.4c0.4-0.22,1.37-0.52,2.59-0.52c2.13,0,3.18,1.02,3.18,2.82v4.56h-1.6l-0.03-0.75
					c-0.02-0.33,0.03-0.55,0.03-0.55h-0.03c-0.13,0.32-0.89,1.48-2.36,1.48c-1.28,0-2.29-0.76-2.29-2.14c0-1.77,1.74-2.63,4.53-2.24
					v-0.27c0-1.05-0.66-1.41-1.71-1.41c-0.95,0-1.86,0.32-2.32,0.6V175.4z M794.1,179.1c-1.97-0.32-2.81,0.24-2.81,1.06
					c0,0.55,0.39,0.92,0.99,0.92C793.32,181.09,794.1,180.11,794.1,179.1z"/>
			</g>
			<g>
				<path d="M809.7,181.86v-1.77c0.73,0.37,1.73,0.72,2.76,0.75c0.37,0,0.73-0.03,1.04-0.11c0.73-0.17,1.18-0.55,1.18-1.11
					c0-0.82-0.59-1.27-2.17-1.83c-1.9-0.68-2.91-1.48-2.91-3.16c0-1.81,1.51-2.91,3.61-2.91c1.04,0,2.03,0.26,2.65,0.52v1.7
					c-0.59-0.33-1.58-0.62-2.52-0.62c-1.18,0-1.97,0.49-1.97,1.28c0,0.73,0.55,1.22,2.13,1.8c1.9,0.71,2.93,1.51,2.93,3.15
					c0,1.81-1.38,2.91-3.7,2.91C811.54,182.45,810.42,182.16,809.7,181.86z"/>
				<path d="M822.91,182.26l-0.04-0.91c0-0.29,0.04-0.47,0.06-0.53h-0.03c-0.29,0.66-1.22,1.63-2.56,1.63
					c-1.68,0-2.47-1.02-2.47-2.88v-4.5h1.76v4.2c0,0.85,0.19,1.58,1.16,1.58c1.17,0,2-0.95,2-2.22v-3.57h1.74v7.19H822.91z"/>
			</g>
			<g>
				<path d="M643.48,213.44c0.52-0.36,1.35-0.63,2.33-0.63c2.2,0,3.6,1.42,3.6,3.44c0,2-1.54,3.65-3.19,5.57h3.67v1.54h-6.95
					c2.65-3.05,4.39-4.92,4.56-6.75c0.04-0.4,0-0.76-0.12-1.06c-0.24-0.68-0.88-1.06-1.78-1.06c-0.88,0-1.65,0.32-2.11,0.66V213.44z
					"/>
			</g>
			<g>
				<path d="M674.1,214.41c-0.89,0-1.67,0.27-2.14,0.5v-1.61c0.5-0.23,1.42-0.49,2.42-0.49c2.14,0,3.47,1.15,3.47,2.82
					c0,1.18-0.82,2.04-1.78,2.4c1.05,0.33,1.96,1.24,1.96,2.59c0,1.78-1.52,2.92-3.64,2.92c-1.27,0-2.03-0.29-2.59-0.56v-1.61
					c0.49,0.24,1.25,0.58,2.45,0.58c1.15,0,1.91-0.6,1.91-1.51c0-1.06-0.89-1.7-2.47-1.7h-0.34v-1.38h0.45c1.24,0,2.2-0.59,2.2-1.51
					C675.97,214.93,675.22,214.41,674.1,214.41z"/>
			</g>
			<g>
				<path d="M704.52,223.36V221h-4.98l3.52-8h1.77l-2.83,6.49h2.55v-2.56h1.55v2.56h1.37V221h-1.37v2.36H704.52z"/>
			</g>
			<g>
				<path d="M728.97,221.3c0.5,0.36,1.34,0.65,2.29,0.65c1.22,0,2.14-0.71,2.14-1.9c0-1.17-0.96-1.87-2.24-1.87
					c-1.04,0-1.73,0.27-1.99,0.39l0.23-5.57h5.26v1.54h-3.7l-0.09,2.4c0.17-0.06,0.47-0.14,0.99-0.14c1.91,0,3.38,1.35,3.38,3.42
					c0,2.07-1.57,3.32-3.78,3.32c-1.12,0-1.97-0.3-2.5-0.65V221.3z"/>
			</g>
			<g>
				<path d="M764.22,220.02c0,2.03-1.57,3.52-3.68,3.52c-2.09,0-3.64-1.5-3.64-3.61c0-2.6,2.4-5.64,4.13-6.93h2.3
					c-1.73,1.27-3.04,2.82-3.8,4c0.22-0.17,0.65-0.42,1.27-0.42C762.82,216.58,764.22,218.18,764.22,220.02z M762.56,220.02
					c0-1.17-0.85-2.04-2.03-2.04c-1.19,0-2.03,0.88-2.03,2.01c0,1.21,0.83,2.07,2.03,2.07C761.71,222.06,762.56,221.2,762.56,220.02
					z"/>
			</g>
			<g>
				<path d="M786.12,223.36l3.84-8.82h-4.49V213h6.92l-4.37,10.36H786.12z"/>
			</g>
			<g>
				<path d="M814.12,215.49c0-1.54,1.38-2.69,3.27-2.69c1.88,0,3.28,1.15,3.28,2.69c0,1.41-1.16,2.3-1.84,2.6
					c0.78,0.35,2.01,1.24,2.01,2.72c0,1.57-1.42,2.75-3.45,2.75c-1.9,0-3.29-1.06-3.42-2.5c-0.03-0.35,0.01-0.66,0.1-0.98
					c0.29-1.06,1.28-1.73,1.88-1.99C815.27,217.79,814.12,216.9,814.12,215.49z M817.39,222.02c0.98,0,1.73-0.6,1.73-1.41
					c0-0.88-0.86-1.57-1.73-1.88c-0.86,0.32-1.74,1.01-1.74,1.88C815.65,221.41,816.41,222.02,817.39,222.02z M817.39,217.41
					c0.76-0.32,1.54-0.88,1.54-1.76c0-0.76-0.66-1.35-1.54-1.35c-0.88,0-1.54,0.59-1.54,1.35
					C815.85,216.54,816.61,217.1,817.39,217.41z"/>
			</g>
			<g>
				<path d="M642.98,237.26c0-2.03,1.58-3.54,3.7-3.54c2.07,0,3.62,1.52,3.62,3.62c0,2.62-2.39,5.64-4.13,6.93h-2.3
					c1.73-1.27,3.05-2.82,3.8-4c-0.2,0.17-0.65,0.42-1.25,0.42C644.39,240.7,642.98,239.1,642.98,237.26z M644.65,237.26
					c0,1.16,0.83,2.04,2.03,2.04c1.18,0,2.03-0.88,2.03-2.01c0-1.21-0.85-2.07-2.03-2.07C645.48,235.22,644.65,236.08,644.65,237.26
					z"/>
			</g>
			<g>
				<path d="M671.21,233.92v10.36h-1.8v-8.82h-1.32v-1.54H671.21z"/>
				<path d="M677.89,233.74c2.5,0,4.07,2.34,4.07,5.37c0,3.02-1.57,5.36-4.07,5.36c-2.49,0-4.07-2.34-4.07-5.36
					C673.82,236.08,675.4,233.74,677.89,233.74z M677.89,242.8c1.41,0,2.26-1.5,2.26-3.7c0-2.2-0.85-3.7-2.26-3.7
					c-1.39,0-2.24,1.5-2.24,3.7C675.64,241.3,676.49,242.8,677.89,242.8z"/>
			</g>
			<g>
				<path d="M701.86,233.92v10.36h-1.8v-8.82h-1.32v-1.54H701.86z"/>
				<path d="M707.44,233.92v10.36h-1.8v-8.82h-1.32v-1.54H707.44z"/>
			</g>
			<g>
				<path d="M729.09,233.92v10.36h-1.8v-8.82h-1.32v-1.54H729.09z"/>
				<path d="M731.63,234.37c0.52-0.36,1.35-0.63,2.33-0.63c2.2,0,3.6,1.42,3.6,3.44c0,2-1.54,3.65-3.19,5.57h3.67v1.54h-6.95
					c2.65-3.05,4.39-4.92,4.56-6.75c0.04-0.4,0-0.76-0.12-1.06c-0.24-0.68-0.88-1.06-1.78-1.06c-0.88,0-1.65,0.32-2.11,0.66V234.37z
					"/>
			</g>
			<g>
				<path d="M757.76,233.92v10.36h-1.8v-8.82h-1.32v-1.54H757.76z"/>
				<path d="M762.25,235.33c-0.89,0-1.67,0.27-2.14,0.5v-1.61c0.5-0.23,1.42-0.49,2.42-0.49c2.14,0,3.47,1.15,3.47,2.82
					c0,1.18-0.82,2.04-1.78,2.4c1.05,0.33,1.96,1.24,1.96,2.59c0,1.78-1.52,2.92-3.64,2.92c-1.27,0-2.03-0.29-2.59-0.56v-1.61
					c0.49,0.24,1.25,0.58,2.45,0.58c1.15,0,1.91-0.6,1.91-1.51c0-1.06-0.89-1.7-2.47-1.7h-0.35v-1.38h0.45c1.24,0,2.2-0.59,2.2-1.51
					C764.12,235.85,763.38,235.33,762.25,235.33z"/>
			</g>
			<g>
				<path d="M785.54,233.92v10.36h-1.8v-8.82h-1.32v-1.54H785.54z"/>
				<path d="M792.68,244.28v-2.36h-4.98l3.52-8H793l-2.83,6.49h2.55v-2.56h1.55v2.56h1.37v1.51h-1.37v2.36H792.68z"/>
			</g>
			<g>
				<path d="M814.55,233.92v10.36h-1.8v-8.82h-1.32v-1.54H814.55z"/>
				<path d="M817.13,242.22c0.5,0.36,1.34,0.65,2.29,0.65c1.22,0,2.14-0.71,2.14-1.9c0-1.17-0.96-1.87-2.24-1.87
					c-1.04,0-1.73,0.27-1.99,0.39l0.23-5.57h5.26v1.54h-3.7l-0.09,2.4c0.17-0.06,0.47-0.14,0.99-0.14c1.91,0,3.38,1.35,3.38,3.42
					c0,2.07-1.57,3.32-3.78,3.32c-1.12,0-1.97-0.3-2.5-0.65V242.22z"/>
			</g>
			<g>
				<path d="M818.47,192.08v10.36h-1.8v-8.82h-1.32v-1.54H818.47z"/>
			</g>
			<g>
				<path d="M643.23,254.85v10.36h-1.8v-8.82h-1.32v-1.54H643.23z"/>
				<path d="M653.19,261.86c0,2.03-1.57,3.52-3.68,3.52c-2.09,0-3.64-1.5-3.64-3.61c0-2.6,2.4-5.64,4.13-6.93h2.3
					c-1.73,1.27-3.04,2.82-3.8,4c0.22-0.17,0.65-0.42,1.27-0.42C651.79,258.43,653.19,260.02,653.19,261.86z M651.53,261.86
					c0-1.17-0.85-2.04-2.03-2.04c-1.19,0-2.03,0.88-2.03,2.01c0,1.21,0.83,2.07,2.03,2.07
					C650.68,263.91,651.53,263.04,651.53,261.86z"/>
			</g>
			<g>
				<path d="M672.33,254.85v10.36h-1.8v-8.82h-1.32v-1.54H672.33z"/>
				<path d="M675.09,265.2l3.84-8.82h-4.49v-1.54h6.92l-4.37,10.36H675.09z"/>
			</g>
			<g>
				<path d="M700.38,254.85v10.36h-1.8v-8.82h-1.32v-1.54H700.38z"/>
				<path d="M703.09,257.33c0-1.54,1.38-2.69,3.27-2.69s3.28,1.15,3.28,2.69c0,1.41-1.17,2.3-1.84,2.6
					c0.78,0.35,2.01,1.24,2.01,2.72c0,1.57-1.42,2.75-3.45,2.75c-1.9,0-3.29-1.06-3.42-2.5c-0.03-0.35,0.01-0.66,0.1-0.98
					c0.29-1.06,1.28-1.73,1.88-1.99C704.24,259.63,703.09,258.74,703.09,257.33z M706.36,263.86c0.98,0,1.73-0.6,1.73-1.41
					c0-0.88-0.86-1.57-1.73-1.88c-0.86,0.32-1.74,1.01-1.74,1.88C704.62,263.26,705.38,263.86,706.36,263.86z M706.36,259.26
					c0.76-0.32,1.54-0.88,1.54-1.76c0-0.76-0.66-1.35-1.54-1.35s-1.54,0.59-1.54,1.35C704.82,258.38,705.58,258.94,706.36,259.26z"
					/>
			</g>
			<g>
				<path d="M728.76,254.85v10.36h-1.8v-8.82h-1.32v-1.54H728.76z"/>
				<path d="M731.14,258.18c0-2.03,1.58-3.54,3.7-3.54c2.07,0,3.62,1.52,3.62,3.62c0,2.62-2.39,5.64-4.13,6.93h-2.3
					c1.73-1.27,3.05-2.82,3.8-4c-0.2,0.17-0.65,0.42-1.25,0.42C732.55,261.62,731.14,260.02,731.14,258.18z M732.81,258.18
					c0,1.16,0.83,2.04,2.03,2.04c1.18,0,2.03-0.88,2.03-2.01c0-1.21-0.85-2.07-2.03-2.07C733.64,256.14,732.81,257,732.81,258.18z"
					/>
			</g>
			<g>
				<path d="M752.38,255.29c0.52-0.36,1.35-0.63,2.33-0.63c2.2,0,3.6,1.42,3.6,3.44c0,2-1.54,3.65-3.19,5.57h3.67v1.54h-6.95
					c2.65-3.05,4.39-4.92,4.56-6.75c0.04-0.4,0-0.76-0.12-1.06c-0.24-0.68-0.88-1.06-1.78-1.06c-0.88,0-1.65,0.32-2.11,0.66V255.29z
					"/>
				<path d="M764.41,254.66c2.5,0,4.07,2.34,4.07,5.37c0,3.02-1.57,5.36-4.07,5.36c-2.49,0-4.07-2.34-4.07-5.36
					C760.34,257,761.92,254.66,764.41,254.66z M764.41,263.72c1.41,0,2.26-1.5,2.26-3.7c0-2.2-0.85-3.7-2.26-3.7
					c-1.39,0-2.24,1.5-2.24,3.7C762.17,262.22,763.02,263.72,764.41,263.72z"/>
			</g>
			<g>
				<path d="M782.96,255.29c0.52-0.36,1.35-0.63,2.33-0.63c2.2,0,3.6,1.42,3.6,3.44c0,2-1.54,3.65-3.19,5.57h3.67v1.54h-6.95
					c2.65-3.05,4.39-4.92,4.56-6.75c0.04-0.4,0-0.76-0.12-1.06c-0.24-0.68-0.88-1.06-1.78-1.06c-0.88,0-1.65,0.32-2.12,0.66V255.29z
					"/>
				<path d="M794.04,254.85v10.36h-1.8v-8.82h-1.32v-1.54H794.04z"/>
			</g>
			<g>
				<path d="M810.19,255.29c0.52-0.36,1.35-0.63,2.33-0.63c2.2,0,3.6,1.42,3.6,3.44c0,2-1.54,3.65-3.19,5.57h3.67v1.54h-6.95
					c2.65-3.05,4.39-4.92,4.56-6.75c0.04-0.4,0-0.76-0.12-1.06c-0.24-0.68-0.88-1.06-1.78-1.06c-0.88,0-1.65,0.32-2.11,0.66V255.29z
					"/>
				<path d="M818.23,255.29c0.52-0.36,1.35-0.63,2.33-0.63c2.2,0,3.6,1.42,3.6,3.44c0,2-1.54,3.65-3.19,5.57h3.67v1.54h-6.95
					c2.65-3.05,4.39-4.92,4.56-6.75c0.04-0.4,0-0.76-0.12-1.06c-0.24-0.68-0.88-1.06-1.78-1.06c-0.88,0-1.65,0.32-2.11,0.66V255.29z
					"/>
			</g>
			<g>
				<path d="M639.68,276.21c0.52-0.36,1.35-0.63,2.33-0.63c2.2,0,3.6,1.42,3.6,3.44c0,2-1.54,3.65-3.19,5.57h3.67v1.54h-6.95
					c2.65-3.05,4.39-4.92,4.56-6.75c0.04-0.4,0-0.76-0.12-1.06c-0.24-0.68-0.88-1.06-1.78-1.06c-0.88,0-1.65,0.32-2.11,0.66V276.21z
					"/>
				<path d="M649.66,277.18c-0.89,0-1.67,0.27-2.14,0.5v-1.61c0.5-0.23,1.42-0.49,2.42-0.49c2.14,0,3.47,1.15,3.47,2.82
					c0,1.18-0.82,2.04-1.78,2.4c1.05,0.33,1.96,1.24,1.96,2.59c0,1.78-1.52,2.92-3.64,2.92c-1.27,0-2.03-0.29-2.59-0.56v-1.61
					c0.49,0.24,1.25,0.58,2.45,0.58c1.15,0,1.91-0.6,1.91-1.51c0-1.06-0.89-1.7-2.47-1.7h-0.35v-1.38h0.45c1.24,0,2.2-0.59,2.2-1.51
					S650.79,277.18,649.66,277.18z"/>
			</g>
			<g>
				<path d="M667.46,276.21c0.52-0.36,1.35-0.63,2.33-0.63c2.2,0,3.6,1.42,3.6,3.44c0,2-1.54,3.65-3.19,5.57h3.67v1.54h-6.95
					c2.65-3.05,4.39-4.92,4.56-6.75c0.04-0.4,0-0.76-0.12-1.06c-0.24-0.68-0.88-1.06-1.78-1.06c-0.88,0-1.65,0.32-2.11,0.66V276.21z
					"/>
				<path d="M680.09,286.12v-2.36h-4.98l3.52-8h1.77l-2.83,6.49h2.55v-2.56h1.55v2.56h1.37v1.51h-1.37v2.36H680.09z"/>
			</g>
			<g>
				<path d="M696.46,276.21c0.52-0.36,1.35-0.63,2.33-0.63c2.2,0,3.6,1.42,3.6,3.44c0,2-1.54,3.65-3.19,5.57h3.67v1.54h-6.95
					c2.65-3.05,4.39-4.92,4.56-6.75c0.04-0.4,0-0.76-0.12-1.06c-0.24-0.68-0.88-1.06-1.78-1.06c-0.88,0-1.65,0.32-2.11,0.66V276.21z
					"/>
				<path d="M704.54,284.07c0.5,0.36,1.34,0.65,2.29,0.65c1.22,0,2.14-0.71,2.14-1.9c0-1.17-0.96-1.87-2.24-1.87
					c-1.04,0-1.73,0.27-1.99,0.39l0.23-5.57h5.26v1.54h-3.7l-0.09,2.4c0.17-0.06,0.47-0.14,0.99-0.14c1.91,0,3.38,1.35,3.38,3.42
					c0,2.07-1.57,3.32-3.78,3.32c-1.12,0-1.97-0.3-2.5-0.65V284.07z"/>
			</g>
			<g>
				<path d="M724.33,276.21c0.52-0.36,1.35-0.63,2.33-0.63c2.2,0,3.6,1.42,3.6,3.44c0,2-1.54,3.65-3.19,5.57h3.67v1.54h-6.95
					c2.65-3.05,4.39-4.92,4.56-6.75c0.04-0.4,0-0.76-0.12-1.06c-0.24-0.68-0.88-1.06-1.78-1.06c-0.88,0-1.65,0.32-2.11,0.66V276.21z
					"/>
				<path d="M739.78,282.79c0,2.03-1.57,3.52-3.68,3.52c-2.09,0-3.64-1.5-3.64-3.61c0-2.6,2.4-5.64,4.13-6.93h2.3
					c-1.73,1.27-3.04,2.82-3.8,4c0.22-0.17,0.65-0.42,1.27-0.42C738.39,279.35,739.78,280.95,739.78,282.79z M738.13,282.79
					c0-1.17-0.85-2.04-2.03-2.04c-1.19,0-2.03,0.88-2.03,2.01c0,1.21,0.83,2.07,2.03,2.07
					C737.28,284.83,738.13,283.97,738.13,282.79z"/>
			</g>
			<g>
				<path d="M753.43,276.21c0.52-0.36,1.35-0.63,2.33-0.63c2.2,0,3.6,1.42,3.6,3.44c0,2-1.54,3.65-3.19,5.57h3.67v1.54h-6.95
					c2.65-3.05,4.39-4.92,4.56-6.75c0.04-0.4,0-0.76-0.12-1.06c-0.24-0.68-0.88-1.06-1.78-1.06c-0.88,0-1.65,0.32-2.11,0.66V276.21z
					"/>
				<path d="M761.69,286.12l3.84-8.82h-4.49v-1.54h6.92l-4.37,10.36H761.69z"/>
			</g>
			<g>
				<path d="M781.49,276.21c0.52-0.36,1.35-0.63,2.33-0.63c2.2,0,3.6,1.42,3.6,3.44c0,2-1.54,3.65-3.19,5.57h3.67v1.54h-6.95
					c2.65-3.05,4.39-4.92,4.56-6.75c0.04-0.4,0-0.76-0.11-1.06c-0.24-0.68-0.88-1.06-1.78-1.06c-0.88,0-1.65,0.32-2.11,0.66V276.21z
					"/>
				<path d="M789.69,278.26c0-1.54,1.38-2.69,3.27-2.69s3.28,1.15,3.28,2.69c0,1.41-1.17,2.3-1.84,2.6
					c0.78,0.35,2.01,1.24,2.01,2.72c0,1.57-1.42,2.75-3.45,2.75c-1.9,0-3.29-1.06-3.42-2.5c-0.03-0.35,0.01-0.66,0.1-0.98
					c0.29-1.06,1.28-1.73,1.88-1.99C790.84,280.56,789.69,279.67,789.69,278.26z M792.95,284.79c0.98,0,1.73-0.6,1.73-1.41
					c0-0.88-0.86-1.57-1.73-1.88c-0.86,0.32-1.74,1.01-1.74,1.88C791.21,284.18,791.98,284.79,792.95,284.79z M792.95,280.18
					c0.76-0.32,1.54-0.88,1.54-1.76c0-0.76-0.66-1.35-1.54-1.35s-1.54,0.59-1.54,1.35C791.42,279.31,792.18,279.87,792.95,280.18z"
					/>
			</g>
			<g>
				<path d="M809.86,276.21c0.52-0.36,1.35-0.63,2.33-0.63c2.2,0,3.6,1.42,3.6,3.44c0,2-1.54,3.65-3.19,5.57h3.67v1.54h-6.95
					c2.65-3.05,4.39-4.92,4.56-6.75c0.04-0.4,0-0.76-0.12-1.06c-0.24-0.68-0.88-1.06-1.78-1.06c-0.88,0-1.65,0.32-2.11,0.66V276.21z
					"/>
				<path d="M817.73,279.11c0-2.03,1.58-3.54,3.7-3.54c2.07,0,3.62,1.52,3.62,3.62c0,2.62-2.39,5.64-4.13,6.93h-2.3
					c1.73-1.27,3.05-2.82,3.8-4c-0.2,0.17-0.65,0.42-1.25,0.42C819.14,282.54,817.73,280.95,817.73,279.11z M819.4,279.11
					c0,1.16,0.83,2.04,2.03,2.04c1.18,0,2.03-0.88,2.03-2.01c0-1.21-0.85-2.07-2.03-2.07C820.24,277.06,819.4,277.93,819.4,279.11z"
					/>
			</g>
			<g>
				<path d="M640.65,298.1c-0.89,0-1.67,0.27-2.14,0.5v-1.61c0.5-0.23,1.42-0.49,2.42-0.49c2.14,0,3.47,1.15,3.47,2.82
					c0,1.18-0.82,2.04-1.78,2.4c1.05,0.33,1.96,1.24,1.96,2.59c0,1.78-1.52,2.92-3.64,2.92c-1.27,0-2.03-0.29-2.59-0.56v-1.61
					c0.49,0.24,1.25,0.58,2.45,0.58c1.15,0,1.91-0.6,1.91-1.51c0-1.06-0.89-1.7-2.47-1.7h-0.34v-1.38h0.45c1.24,0,2.2-0.59,2.2-1.51
					S641.78,298.1,640.65,298.1z"/>
				<path d="M650.44,296.5c2.5,0,4.07,2.34,4.07,5.37c0,3.02-1.57,5.36-4.07,5.36c-2.49,0-4.07-2.34-4.07-5.36
					C646.37,298.85,647.95,296.5,650.44,296.5z M650.44,305.57c1.41,0,2.26-1.5,2.26-3.7c0-2.2-0.85-3.7-2.26-3.7
					c-1.39,0-2.24,1.5-2.24,3.7C648.2,304.07,649.04,305.57,650.44,305.57z"/>
			</g>
			<g>
				<path d="M671.3,298.1c-0.89,0-1.67,0.27-2.14,0.5v-1.61c0.5-0.23,1.42-0.49,2.42-0.49c2.14,0,3.47,1.15,3.47,2.82
					c0,1.18-0.82,2.04-1.78,2.4c1.05,0.33,1.96,1.24,1.96,2.59c0,1.78-1.52,2.92-3.64,2.92c-1.27,0-2.03-0.29-2.59-0.56v-1.61
					c0.49,0.24,1.25,0.58,2.45,0.58c1.15,0,1.91-0.6,1.91-1.51c0-1.06-0.89-1.7-2.47-1.7h-0.34v-1.38h0.45c1.24,0,2.2-0.59,2.2-1.51
					S672.43,298.1,671.3,298.1z"/>
				<path d="M680,296.69v10.36h-1.8v-8.82h-1.32v-1.54H680z"/>
			</g>
		</g>
		<g>
			<g>
				<path d="M328.17,176.3l-0.4-0.4v6.37h-1.74v-10.51h0.03l4.82,5.35l4.82-5.35h0.03v10.51H334v-6.37l-0.42,0.4
					c-0.89,1.05-1.8,2.09-2.7,3.12L328.17,176.3z"/>
				<path d="M345.1,178.67c0,2.17-1.58,3.78-3.77,3.78c-2.17,0-3.77-1.61-3.77-3.78s1.6-3.78,3.77-3.78
					C343.51,174.89,345.1,176.5,345.1,178.67z M343.43,178.67c0-1.35-0.89-2.29-2.1-2.29c-1.19,0-2.1,0.93-2.1,2.29
					s0.91,2.29,2.1,2.29C342.54,180.96,343.43,180.02,343.43,178.67z"/>
			</g>
			<g>
				<path d="M360.55,173.43v8.83h-1.81v-8.83h-3.02v-1.52h7.85v1.52H360.55z"/>
				<path d="M369.03,182.26l-0.04-0.91c0-0.29,0.04-0.47,0.06-0.53h-0.03c-0.29,0.66-1.22,1.63-2.56,1.63
					c-1.68,0-2.47-1.02-2.47-2.88v-4.5h1.76v4.2c0,0.85,0.19,1.58,1.16,1.58c1.17,0,2-0.95,2-2.22v-3.57h1.74v7.19H369.03z"/>
			</g>
			<g>
				<path d="M383.6,171.91l1.52,3.91c0.37,0.96,0.71,1.9,0.94,2.6c0.22-0.56,0.56-1.41,0.92-2.26l0.63-1.51l1.12-2.65h0.06
					c0.95,2.2,2.09,4.79,2.68,6.42c0.49-1.38,1.7-4.5,2.46-6.52h2l-4.42,10.51h-0.06l-2.13-5.11c-0.19-0.46-0.4-0.95-0.56-1.39
					l-0.55,1.39l-2.14,5.11h-0.06l-4.4-10.51H383.6z"/>
				<path d="M402.2,178.25c0,0.33-0.04,0.65-0.04,0.78h-5.02c0.04,1.21,0.91,1.93,2.23,1.93c1.01,0,2.06-0.3,2.55-0.6v1.54
					c-0.5,0.27-1.47,0.56-2.68,0.56c-2.39,0-3.93-1.57-3.93-3.78c0-2.17,1.57-3.78,3.6-3.78
					C401.06,174.89,402.2,176.47,402.2,178.25z M398.87,176.3c-1.04,0-1.65,0.81-1.74,1.71h3.37
					C400.51,177.1,399.95,176.3,398.87,176.3z"/>
			</g>
			<g>
				<path d="M417.08,173.43v8.83h-1.81v-8.83h-3.02v-1.52h7.85v1.52H417.08z"/>
				<path d="M423.13,171.91v3.78c0,0.33-0.03,0.62-0.03,0.75c0.35-0.6,1.19-1.55,2.55-1.55c1.7,0,2.49,1.02,2.49,2.88v4.5h-1.75
					v-4.2c0-0.83-0.2-1.58-1.18-1.58c-1.19,0-2.04,0.95-2.04,2.21v3.57h-1.76v-10.36H423.13z"/>
			</g>
			<g>
				<path d="M381.51,147.3v-10.36h3.31c3.52,0,5.75,2.14,5.75,5.18c0,3.03-2.21,5.18-5.73,5.18H381.51z M383.73,138.8v6.65h1.09
					c2.22,0,3.52-1.44,3.52-3.32c0-1.87-1.31-3.32-3.55-3.32H383.73z"/>
				<path d="M392.75,147.3v-10.36h6.66v1.86h-4.44v2.36h3.77v1.78h-3.77v2.5h4.66v1.86H392.75z"/>
				<path d="M409.65,139.49c-0.62-0.32-1.6-0.72-2.86-0.72c-2.1,0-3.42,1.51-3.42,3.35c0,1.86,1.31,3.35,3.35,3.35
					c1.34,0,2.36-0.39,3.01-0.72v2.06c-0.53,0.29-1.71,0.69-3.16,0.69c-3.12,0-5.41-2.34-5.41-5.38c0-3.02,2.29-5.38,5.48-5.38
					c1.45,0,2.49,0.43,3.02,0.72V139.49z"/>
				<path d="M411.85,147.3v-10.36h6.66v1.86h-4.44v2.36h3.77v1.78h-3.77v2.5h4.66v1.86H411.85z"/>
				<path d="M423.55,141.95l-0.55-0.47v5.83h-2.12v-10.51h0.04l4.93,4.98l4.93-4.98h0.04v10.51h-2.12v-5.83l-0.55,0.47
					c-0.76,0.83-1.54,1.67-2.32,2.49C425.09,143.62,424.33,142.79,423.55,141.95z"/>
				<path d="M441.26,144.28c0,1.99-1.61,3.02-3.94,3.02h-3.65v-10.36h3.35c2.2,0,3.86,0.96,3.86,2.91c0,0.98-0.59,1.7-1.32,2.01
					C440.47,142.17,441.26,143.1,441.26,144.28z M437.11,141.26c0.3,0,0.58-0.01,0.83-0.09c0.42-0.16,0.69-0.56,0.69-1.14
					c0-0.86-0.59-1.32-1.47-1.32h-1.38v2.55H437.11z M435.78,145.53h1.64c0.88,0,1.57-0.49,1.57-1.4c0-0.91-0.63-1.38-1.42-1.38
					h-1.78V145.53z"/>
				<path d="M443.5,147.3v-10.36h6.66v1.86h-4.44v2.36h3.77v1.78h-3.77v2.5h4.66v1.86H443.5z"/>
				<path d="M456.18,136.95c2.4,0,4,1.19,4,3.41c0,1.51-0.85,2.5-1.97,2.95l2.17,4h-2.34l-1.83-3.62h-1.5v3.62h-2.17v-10.36H456.18z
					 M454.71,138.8v3.09h1.58c0.98,0,1.65-0.49,1.65-1.54c0-1.04-0.71-1.55-1.71-1.55H454.71z"/>
			</g>
			<g>
				<path d="M445.71,173.43v2.93h3.68v1.51h-3.68v4.39h-1.81v-10.36h6.19v1.52H445.71z"/>
				<path d="M450.89,175.07h1.61c0.01,0.29,0.03,0.58,0.03,0.85c0,0.24-0.01,0.45,0,0.5c0.45-0.88,1.19-1.54,2.19-1.54
					c0.22,0,0.4,0.03,0.45,0.04v1.7c-0.04,0-0.2-0.06-0.43-0.06c-1.24,0-2.09,1.25-2.09,2.6v3.09h-1.76V175.07z"/>
			</g>
			<g>
				<path d="M470.28,181.86v-1.77c0.73,0.37,1.73,0.72,2.76,0.75c0.37,0,0.73-0.03,1.04-0.11c0.73-0.17,1.18-0.55,1.18-1.11
					c0-0.82-0.59-1.27-2.17-1.83c-1.9-0.68-2.91-1.48-2.91-3.16c0-1.81,1.51-2.91,3.61-2.91c1.04,0,2.03,0.26,2.65,0.52v1.7
					c-0.59-0.33-1.58-0.62-2.52-0.62c-1.18,0-1.97,0.49-1.97,1.28c0,0.73,0.55,1.22,2.13,1.8c1.9,0.71,2.93,1.51,2.93,3.15
					c0,1.81-1.38,2.91-3.7,2.91C472.12,182.45,471,182.16,470.28,181.86z"/>
				<path d="M478.7,175.4c0.4-0.22,1.37-0.52,2.59-0.52c2.13,0,3.18,1.02,3.18,2.82v4.56h-1.6l-0.03-0.75
					c-0.01-0.33,0.03-0.55,0.03-0.55h-0.03c-0.13,0.32-0.89,1.48-2.36,1.48c-1.28,0-2.29-0.76-2.29-2.14c0-1.77,1.74-2.63,4.53-2.24
					v-0.27c0-1.05-0.66-1.41-1.71-1.41c-0.95,0-1.86,0.32-2.32,0.6V175.4z M482.68,179.1c-1.97-0.32-2.81,0.24-2.81,1.06
					c0,0.55,0.39,0.92,0.99,0.92C481.91,181.09,482.68,180.11,482.68,179.1z"/>
			</g>
			<g>
				<path d="M498.29,181.86v-1.77c0.73,0.37,1.73,0.72,2.76,0.75c0.37,0,0.73-0.03,1.04-0.11c0.73-0.17,1.18-0.55,1.18-1.11
					c0-0.82-0.59-1.27-2.17-1.83c-1.9-0.68-2.91-1.48-2.91-3.16c0-1.81,1.51-2.91,3.61-2.91c1.04,0,2.03,0.26,2.65,0.52v1.7
					c-0.59-0.33-1.58-0.62-2.52-0.62c-1.18,0-1.97,0.49-1.97,1.28c0,0.73,0.55,1.22,2.13,1.8c1.9,0.71,2.93,1.51,2.93,3.15
					c0,1.81-1.38,2.91-3.7,2.91C500.13,182.45,499.01,182.16,498.29,181.86z"/>
				<path d="M511.5,182.26l-0.04-0.91c0-0.29,0.04-0.47,0.06-0.53h-0.03c-0.29,0.66-1.22,1.63-2.56,1.63
					c-1.68,0-2.47-1.02-2.47-2.88v-4.5h1.76v4.2c0,0.85,0.19,1.58,1.16,1.58c1.17,0,2-0.95,2-2.22v-3.57h1.74v7.19H511.5z"/>
			</g>
			<g>
				<path d="M332.19,221.3c0.5,0.36,1.34,0.65,2.29,0.65c1.22,0,2.14-0.71,2.14-1.9c0-1.17-0.96-1.87-2.24-1.87
					c-1.04,0-1.73,0.27-1.99,0.39l0.23-5.57h5.26v1.54h-3.7l-0.09,2.4c0.17-0.06,0.47-0.14,0.99-0.14c1.91,0,3.38,1.35,3.38,3.42
					c0,2.07-1.57,3.32-3.78,3.32c-1.12,0-1.97-0.3-2.5-0.65V221.3z"/>
			</g>
			<g>
				<path d="M367.44,220.02c0,2.03-1.57,3.52-3.68,3.52c-2.09,0-3.64-1.5-3.64-3.61c0-2.6,2.4-5.64,4.13-6.93h2.3
					c-1.73,1.27-3.04,2.82-3.8,4c0.22-0.17,0.65-0.42,1.27-0.42C366.04,216.58,367.44,218.18,367.44,220.02z M365.78,220.02
					c0-1.17-0.85-2.04-2.03-2.04c-1.19,0-2.03,0.88-2.03,2.01c0,1.21,0.83,2.07,2.03,2.07C364.93,222.06,365.78,221.2,365.78,220.02
					z"/>
			</g>
			<g>
				<path d="M389.34,223.36l3.84-8.82h-4.49V213h6.92l-4.37,10.36H389.34z"/>
			</g>
			<g>
				<path d="M417.34,215.49c0-1.54,1.38-2.69,3.27-2.69s3.28,1.15,3.28,2.69c0,1.41-1.16,2.3-1.84,2.6
					c0.78,0.35,2.01,1.24,2.01,2.72c0,1.57-1.42,2.75-3.45,2.75c-1.9,0-3.29-1.06-3.42-2.5c-0.03-0.35,0.02-0.66,0.1-0.98
					c0.29-1.06,1.28-1.73,1.88-1.99C418.49,217.79,417.34,216.9,417.34,215.49z M420.61,222.02c0.98,0,1.73-0.6,1.73-1.41
					c0-0.88-0.86-1.57-1.73-1.88c-0.86,0.32-1.74,1.01-1.74,1.88C418.87,221.41,419.63,222.02,420.61,222.02z M420.61,217.41
					c0.76-0.32,1.54-0.88,1.54-1.76c0-0.76-0.66-1.35-1.54-1.35s-1.54,0.59-1.54,1.35C419.07,216.54,419.83,217.1,420.61,217.41z"/>
			</g>
			<g>
				<path d="M445.39,216.34c0-2.03,1.58-3.54,3.7-3.54c2.07,0,3.62,1.52,3.62,3.62c0,2.62-2.39,5.64-4.13,6.93h-2.3
					c1.73-1.27,3.05-2.82,3.8-4c-0.2,0.17-0.65,0.42-1.25,0.42C446.8,219.77,445.39,218.18,445.39,216.34z M447.06,216.34
					c0,1.16,0.83,2.04,2.03,2.04c1.18,0,2.03-0.88,2.03-2.01c0-1.21-0.85-2.07-2.03-2.07C447.89,214.29,447.06,215.16,447.06,216.34
					z"/>
			</g>
			<g>
				<path d="M473.62,213v10.36h-1.8v-8.82h-1.32V213H473.62z"/>
				<path d="M480.29,212.81c2.5,0,4.07,2.34,4.07,5.37c0,3.02-1.57,5.36-4.07,5.36c-2.49,0-4.07-2.34-4.07-5.36
					C476.22,215.16,477.81,212.81,480.29,212.81z M480.29,221.87c1.41,0,2.26-1.5,2.26-3.7c0-2.2-0.85-3.7-2.26-3.7
					c-1.39,0-2.24,1.5-2.24,3.7C478.05,220.38,478.9,221.87,480.29,221.87z"/>
			</g>
			<g>
				<path d="M421.69,192.26v10.36h-1.8v-8.82h-1.32v-1.54H421.69z"/>
			</g>
			<g>
				<path d="M445.88,192.71c0.52-0.36,1.35-0.63,2.33-0.63c2.2,0,3.6,1.42,3.6,3.44c0,2-1.54,3.65-3.19,5.57h3.67v1.54h-6.95
					c2.65-3.05,4.39-4.92,4.56-6.75c0.04-0.4,0-0.76-0.12-1.06c-0.24-0.68-0.88-1.06-1.78-1.06c-0.88,0-1.65,0.32-2.11,0.66V192.71z
					"/>
			</g>
			<g>
				<path d="M476.5,193.67c-0.89,0-1.67,0.27-2.14,0.5v-1.61c0.5-0.23,1.42-0.49,2.42-0.49c2.14,0,3.47,1.15,3.47,2.82
					c0,1.18-0.82,2.04-1.78,2.4c1.05,0.33,1.96,1.24,1.96,2.59c0,1.78-1.52,2.92-3.64,2.92c-1.27,0-2.03-0.29-2.59-0.56v-1.61
					c0.49,0.24,1.25,0.58,2.45,0.58c1.15,0,1.91-0.6,1.91-1.51c0-1.06-0.89-1.7-2.47-1.7h-0.34v-1.38h0.45c1.24,0,2.2-0.59,2.2-1.51
					C478.37,194.19,477.63,193.67,476.5,193.67z"/>
			</g>
			<g>
				<path d="M504.27,213v10.36h-1.8v-8.82h-1.32V213H504.27z"/>
				<path d="M509.85,213v10.36h-1.8v-8.82h-1.32V213H509.85z"/>
			</g>
			<g>
				<path d="M332.31,233.92v10.36h-1.8v-8.82h-1.32v-1.54H332.31z"/>
				<path d="M334.85,234.37c0.52-0.36,1.35-0.63,2.33-0.63c2.2,0,3.6,1.42,3.6,3.44c0,2-1.54,3.65-3.19,5.57h3.67v1.54h-6.95
					c2.65-3.05,4.39-4.92,4.56-6.75c0.04-0.4,0-0.76-0.12-1.06c-0.24-0.68-0.88-1.06-1.78-1.06c-0.88,0-1.65,0.32-2.11,0.66V234.37z
					"/>
			</g>
			<g>
				<path d="M360.98,233.92v10.36h-1.8v-8.82h-1.32v-1.54H360.98z"/>
				<path d="M365.47,235.33c-0.89,0-1.67,0.27-2.14,0.5v-1.61c0.5-0.23,1.42-0.49,2.42-0.49c2.14,0,3.47,1.15,3.47,2.82
					c0,1.18-0.82,2.04-1.78,2.4c1.05,0.33,1.96,1.24,1.96,2.59c0,1.78-1.52,2.92-3.64,2.92c-1.27,0-2.03-0.29-2.59-0.56v-1.61
					c0.49,0.24,1.25,0.58,2.45,0.58c1.15,0,1.91-0.6,1.91-1.51c0-1.06-0.89-1.7-2.47-1.7h-0.35v-1.38h0.45c1.24,0,2.2-0.59,2.2-1.51
					C367.34,235.85,366.6,235.33,365.47,235.33z"/>
			</g>
			<g>
				<path d="M390.45,233.92v10.36h-1.8v-8.82h-1.32v-1.54H390.45z"/>
				<path d="M396.03,233.92v10.36h-1.8v-8.82h-1.32v-1.54H396.03z"/>
			</g>
			<g>
				<path d="M417.67,233.92v10.36h-1.8v-8.82h-1.32v-1.54H417.67z"/>
				<path d="M420.22,234.37c0.52-0.36,1.35-0.63,2.33-0.63c2.2,0,3.6,1.42,3.6,3.44c0,2-1.54,3.65-3.19,5.57h3.67v1.54h-6.95
					c2.65-3.05,4.39-4.92,4.56-6.75c0.04-0.4,0-0.76-0.11-1.06c-0.24-0.68-0.88-1.06-1.78-1.06c-0.88,0-1.65,0.32-2.11,0.66V234.37z
					"/>
			</g>
			<g>
				<path d="M445.67,233.92v10.36h-1.8v-8.82h-1.32v-1.54H445.67z"/>
				<path d="M452.81,244.28v-2.36h-4.98l3.52-8h1.77l-2.83,6.49h2.55v-2.56h1.55v2.56h1.37v1.51h-1.37v2.36H452.81z"/>
			</g>
			<g>
				<path d="M474.68,233.92v10.36h-1.8v-8.82h-1.32v-1.54H474.68z"/>
				<path d="M477.26,242.22c0.5,0.36,1.34,0.65,2.29,0.65c1.22,0,2.14-0.71,2.14-1.9c0-1.17-0.96-1.87-2.24-1.87
					c-1.04,0-1.73,0.27-1.99,0.39l0.23-5.57h5.26v1.54h-3.7l-0.09,2.4c0.17-0.06,0.47-0.14,0.99-0.14c1.91,0,3.38,1.35,3.38,3.42
					c0,2.07-1.57,3.32-3.78,3.32c-1.12,0-1.97-0.3-2.5-0.65V242.22z"/>
			</g>
			<g>
				<path d="M502.55,233.92v10.36h-1.8v-8.82h-1.32v-1.54H502.55z"/>
				<path d="M512.51,240.94c0,2.03-1.57,3.52-3.68,3.52c-2.09,0-3.64-1.5-3.64-3.61c0-2.6,2.4-5.64,4.13-6.93h2.3
					c-1.73,1.27-3.04,2.82-3.8,4c0.22-0.17,0.65-0.42,1.27-0.42C511.11,237.5,512.51,239.1,512.51,240.94z M510.85,240.94
					c0-1.17-0.85-2.04-2.03-2.04c-1.19,0-2.03,0.88-2.03,2.01c0,1.21,0.83,2.07,2.03,2.07C510,242.98,510.85,242.12,510.85,240.94z"
					/>
			</g>
			<g>
				<path d="M506.93,202.43v-2.36h-4.98l3.52-8h1.77l-2.83,6.49h2.55V196h1.55v2.56h1.37v1.51h-1.37v2.36H506.93z"/>
			</g>
			<g>
				<path d="M332.46,254.85v10.36h-1.8v-8.82h-1.32v-1.54H332.46z"/>
				<path d="M335.22,265.2l3.84-8.82h-4.49v-1.54h6.92l-4.37,10.36H335.22z"/>
			</g>
			<g>
				<path d="M360.52,254.85v10.36h-1.8v-8.82h-1.32v-1.54H360.52z"/>
				<path d="M363.22,257.33c0-1.54,1.38-2.69,3.27-2.69s3.28,1.15,3.28,2.69c0,1.41-1.17,2.3-1.84,2.6
					c0.78,0.35,2.01,1.24,2.01,2.72c0,1.57-1.42,2.75-3.45,2.75c-1.9,0-3.29-1.06-3.42-2.5c-0.03-0.35,0.01-0.66,0.1-0.98
					c0.29-1.06,1.28-1.73,1.88-1.99C364.37,259.63,363.22,258.74,363.22,257.33z M366.49,263.86c0.98,0,1.73-0.6,1.73-1.41
					c0-0.88-0.86-1.57-1.73-1.88c-0.86,0.32-1.74,1.01-1.74,1.88C364.75,263.26,365.51,263.86,366.49,263.86z M366.49,259.26
					c0.76-0.32,1.54-0.88,1.54-1.76c0-0.76-0.66-1.35-1.54-1.35s-1.54,0.59-1.54,1.35C364.95,258.38,365.71,258.94,366.49,259.26z"
					/>
			</g>
			<g>
				<path d="M388.89,254.85v10.36h-1.8v-8.82h-1.32v-1.54H388.89z"/>
				<path d="M391.27,258.18c0-2.03,1.58-3.54,3.7-3.54c2.07,0,3.62,1.52,3.62,3.62c0,2.62-2.39,5.64-4.13,6.93h-2.3
					c1.73-1.27,3.05-2.82,3.8-4c-0.2,0.17-0.65,0.42-1.25,0.42C392.68,261.62,391.27,260.02,391.27,258.18z M392.94,258.18
					c0,1.16,0.83,2.04,2.03,2.04c1.18,0,2.03-0.88,2.03-2.01c0-1.21-0.85-2.07-2.03-2.07C393.77,256.14,392.94,257,392.94,258.18z"
					/>
			</g>
			<g>
				<path d="M412.51,255.29c0.52-0.36,1.35-0.63,2.33-0.63c2.2,0,3.6,1.42,3.6,3.44c0,2-1.54,3.65-3.19,5.57h3.67v1.54h-6.95
					c2.65-3.05,4.39-4.92,4.56-6.75c0.04-0.4,0-0.76-0.11-1.06c-0.24-0.68-0.88-1.06-1.78-1.06c-0.88,0-1.65,0.32-2.11,0.66V255.29z
					"/>
				<path d="M424.54,254.66c2.5,0,4.07,2.34,4.07,5.37c0,3.02-1.57,5.36-4.07,5.36c-2.49,0-4.07-2.34-4.07-5.36
					C420.47,257,422.05,254.66,424.54,254.66z M424.54,263.72c1.41,0,2.26-1.5,2.26-3.7c0-2.2-0.85-3.7-2.26-3.7
					c-1.39,0-2.24,1.5-2.24,3.7C422.3,262.22,423.15,263.72,424.54,263.72z"/>
			</g>
			<g>
				<path d="M443.09,255.29c0.52-0.36,1.35-0.63,2.33-0.63c2.2,0,3.6,1.42,3.6,3.44c0,2-1.54,3.65-3.19,5.57h3.67v1.54h-6.95
					c2.65-3.05,4.39-4.92,4.56-6.75c0.04-0.4,0-0.76-0.12-1.06c-0.24-0.68-0.88-1.06-1.78-1.06c-0.88,0-1.65,0.32-2.11,0.66V255.29z
					"/>
				<path d="M454.17,254.85v10.36h-1.8v-8.82h-1.32v-1.54H454.17z"/>
			</g>
			<g>
				<path d="M470.32,255.29c0.52-0.36,1.35-0.63,2.33-0.63c2.2,0,3.6,1.42,3.6,3.44c0,2-1.54,3.65-3.19,5.57h3.67v1.54h-6.95
					c2.65-3.05,4.39-4.92,4.56-6.75c0.04-0.4,0-0.76-0.12-1.06c-0.24-0.68-0.88-1.06-1.78-1.06c-0.88,0-1.65,0.32-2.11,0.66V255.29z
					"/>
				<path d="M478.36,255.29c0.52-0.36,1.35-0.63,2.33-0.63c2.2,0,3.6,1.42,3.6,3.44c0,2-1.54,3.65-3.19,5.57h3.67v1.54h-6.95
					c2.65-3.05,4.39-4.92,4.56-6.75c0.04-0.4,0-0.76-0.12-1.06c-0.24-0.68-0.88-1.06-1.78-1.06c-0.88,0-1.65,0.32-2.11,0.66V255.29z
					"/>
			</g>
			<g>
				<path d="M499,255.29c0.52-0.36,1.35-0.63,2.33-0.63c2.2,0,3.6,1.42,3.6,3.44c0,2-1.54,3.65-3.19,5.57h3.67v1.54h-6.95
					c2.65-3.05,4.39-4.92,4.56-6.75c0.04-0.4,0-0.76-0.12-1.06c-0.24-0.68-0.88-1.06-1.78-1.06c-0.88,0-1.65,0.32-2.11,0.66V255.29z
					"/>
				<path d="M508.98,256.25c-0.89,0-1.67,0.27-2.14,0.5v-1.61c0.5-0.23,1.42-0.49,2.42-0.49c2.14,0,3.47,1.15,3.47,2.82
					c0,1.18-0.82,2.04-1.78,2.4c1.05,0.33,1.96,1.24,1.96,2.59c0,1.78-1.52,2.92-3.64,2.92c-1.27,0-2.03-0.29-2.59-0.56v-1.61
					c0.49,0.24,1.25,0.58,2.45,0.58c1.15,0,1.91-0.6,1.91-1.51c0-1.06-0.89-1.7-2.47-1.7h-0.35v-1.38h0.45c1.24,0,2.2-0.59,2.2-1.51
					S510.1,256.25,508.98,256.25z"/>
			</g>
			<g>
				<path d="M327.59,276.21c0.52-0.36,1.35-0.63,2.33-0.63c2.2,0,3.6,1.42,3.6,3.44c0,2-1.54,3.65-3.19,5.57h3.67v1.54h-6.95
					c2.65-3.05,4.39-4.92,4.56-6.75c0.04-0.4,0-0.76-0.12-1.06c-0.24-0.68-0.88-1.06-1.78-1.06c-0.88,0-1.65,0.32-2.11,0.66V276.21z
					"/>
				<path d="M340.22,286.12v-2.36h-4.98l3.52-8h1.77l-2.83,6.49h2.55v-2.56h1.55v2.56h1.37v1.51h-1.37v2.36H340.22z"/>
			</g>
			<g>
				<path d="M356.6,276.21c0.52-0.36,1.35-0.63,2.33-0.63c2.2,0,3.6,1.42,3.6,3.44c0,2-1.54,3.65-3.19,5.57H363v1.54h-6.95
					c2.65-3.05,4.39-4.92,4.56-6.75c0.04-0.4,0-0.76-0.12-1.06c-0.24-0.68-0.88-1.06-1.78-1.06c-0.88,0-1.65,0.32-2.11,0.66V276.21z
					"/>
				<path d="M364.67,284.07c0.5,0.36,1.34,0.65,2.29,0.65c1.22,0,2.14-0.71,2.14-1.9c0-1.17-0.96-1.87-2.24-1.87
					c-1.04,0-1.73,0.27-1.99,0.39l0.23-5.57h5.26v1.54h-3.7l-0.09,2.4c0.17-0.06,0.47-0.14,0.99-0.14c1.91,0,3.38,1.35,3.38,3.42
					c0,2.07-1.57,3.32-3.78,3.32c-1.12,0-1.97-0.3-2.5-0.65V284.07z"/>
			</g>
			<g>
				<path d="M384.46,276.21c0.52-0.36,1.35-0.63,2.33-0.63c2.2,0,3.6,1.42,3.6,3.44c0,2-1.54,3.65-3.19,5.57h3.67v1.54h-6.95
					c2.65-3.05,4.39-4.92,4.56-6.75c0.04-0.4,0-0.76-0.12-1.06c-0.24-0.68-0.88-1.06-1.78-1.06c-0.88,0-1.65,0.32-2.11,0.66V276.21z
					"/>
				<path d="M399.91,282.79c0,2.03-1.57,3.52-3.68,3.52c-2.09,0-3.64-1.5-3.64-3.61c0-2.6,2.4-5.64,4.13-6.93h2.3
					c-1.73,1.27-3.04,2.82-3.8,4c0.22-0.17,0.65-0.42,1.27-0.42C398.52,279.35,399.91,280.95,399.91,282.79z M398.26,282.79
					c0-1.17-0.85-2.04-2.03-2.04c-1.19,0-2.03,0.88-2.03,2.01c0,1.21,0.83,2.07,2.03,2.07
					C397.41,284.83,398.26,283.97,398.26,282.79z"/>
			</g>
			<g>
				<path d="M413.56,276.21c0.52-0.36,1.35-0.63,2.33-0.63c2.2,0,3.6,1.42,3.6,3.44c0,2-1.54,3.65-3.19,5.57h3.67v1.54h-6.95
					c2.65-3.05,4.39-4.92,4.56-6.75c0.04-0.4,0-0.76-0.11-1.06c-0.24-0.68-0.88-1.06-1.78-1.06c-0.88,0-1.65,0.32-2.11,0.66V276.21z
					"/>
				<path d="M421.82,286.12l3.84-8.82h-4.49v-1.54h6.92l-4.37,10.36H421.82z"/>
			</g>
			<g>
				<path d="M441.62,276.21c0.52-0.36,1.35-0.63,2.33-0.63c2.2,0,3.6,1.42,3.6,3.44c0,2-1.54,3.65-3.19,5.57h3.67v1.54h-6.95
					c2.65-3.05,4.39-4.92,4.56-6.75c0.04-0.4,0-0.76-0.12-1.06c-0.24-0.68-0.88-1.06-1.78-1.06c-0.88,0-1.65,0.32-2.11,0.66V276.21z
					"/>
				<path d="M449.82,278.26c0-1.54,1.38-2.69,3.27-2.69c1.88,0,3.28,1.15,3.28,2.69c0,1.41-1.17,2.3-1.84,2.6
					c0.78,0.35,2.01,1.24,2.01,2.72c0,1.57-1.42,2.75-3.45,2.75c-1.9,0-3.29-1.06-3.42-2.5c-0.03-0.35,0.01-0.66,0.1-0.98
					c0.29-1.06,1.28-1.73,1.88-1.99C450.97,280.56,449.82,279.67,449.82,278.26z M453.09,284.79c0.98,0,1.73-0.6,1.73-1.41
					c0-0.88-0.86-1.57-1.73-1.88c-0.86,0.32-1.74,1.01-1.74,1.88C451.35,284.18,452.11,284.79,453.09,284.79z M453.09,280.18
					c0.76-0.32,1.54-0.88,1.54-1.76c0-0.76-0.66-1.35-1.54-1.35c-0.88,0-1.54,0.59-1.54,1.35
					C451.55,279.31,452.31,279.87,453.09,280.18z"/>
			</g>
			<g>
				<path d="M469.99,276.21c0.52-0.36,1.35-0.63,2.33-0.63c2.2,0,3.6,1.42,3.6,3.44c0,2-1.54,3.65-3.19,5.57h3.67v1.54h-6.95
					c2.65-3.05,4.39-4.92,4.56-6.75c0.04-0.4,0-0.76-0.12-1.06c-0.24-0.68-0.88-1.06-1.78-1.06c-0.88,0-1.65,0.32-2.11,0.66V276.21z
					"/>
				<path d="M477.87,279.11c0-2.03,1.58-3.54,3.7-3.54c2.07,0,3.62,1.52,3.62,3.62c0,2.62-2.39,5.64-4.13,6.93h-2.3
					c1.73-1.27,3.05-2.82,3.8-4c-0.2,0.17-0.65,0.42-1.25,0.42C479.27,282.54,477.87,280.95,477.87,279.11z M479.53,279.11
					c0,1.16,0.83,2.04,2.03,2.04c1.18,0,2.03-0.88,2.03-2.01c0-1.21-0.85-2.07-2.03-2.07C480.37,277.06,479.53,277.93,479.53,279.11
					z"/>
			</g>
			<g>
				<path d="M499.97,277.18c-0.89,0-1.67,0.27-2.14,0.5v-1.61c0.5-0.23,1.42-0.49,2.42-0.49c2.14,0,3.47,1.15,3.47,2.82
					c0,1.18-0.82,2.04-1.78,2.4c1.05,0.33,1.96,1.24,1.96,2.59c0,1.78-1.52,2.92-3.64,2.92c-1.27,0-2.03-0.29-2.59-0.56v-1.61
					c0.49,0.24,1.25,0.58,2.45,0.58c1.15,0,1.91-0.6,1.91-1.51c0-1.06-0.89-1.7-2.47-1.7h-0.34v-1.38h0.45c1.24,0,2.2-0.59,2.2-1.51
					S501.1,277.18,499.97,277.18z"/>
				<path d="M509.76,275.58c2.5,0,4.07,2.34,4.07,5.37c0,3.02-1.57,5.36-4.07,5.36c-2.49,0-4.07-2.34-4.07-5.36
					C505.69,277.93,507.27,275.58,509.76,275.58z M509.76,284.64c1.41,0,2.26-1.5,2.26-3.7c0-2.2-0.85-3.7-2.26-3.7
					c-1.39,0-2.24,1.5-2.24,3.7C507.51,283.15,508.36,284.64,509.76,284.64z"/>
			</g>
			<g>
				<path d="M331.44,298.1c-0.89,0-1.67,0.27-2.14,0.5v-1.61c0.5-0.23,1.42-0.49,2.42-0.49c2.14,0,3.47,1.15,3.47,2.82
					c0,1.18-0.82,2.04-1.78,2.4c1.05,0.33,1.96,1.24,1.96,2.59c0,1.78-1.52,2.92-3.64,2.92c-1.27,0-2.03-0.29-2.59-0.56v-1.61
					c0.49,0.24,1.25,0.58,2.45,0.58c1.15,0,1.91-0.6,1.91-1.51c0-1.06-0.89-1.7-2.47-1.7h-0.34v-1.38h0.45c1.24,0,2.2-0.59,2.2-1.51
					S332.56,298.1,331.44,298.1z"/>
				<path d="M340.13,296.69v10.36h-1.8v-8.82h-1.32v-1.54H340.13z"/>
			</g>
		</g>
		<g>
			<g>
				<path d="M62.95,176.3l-0.4-0.4v6.37h-1.74v-10.51h0.03l4.82,5.35l4.82-5.35h0.03v10.51h-1.73v-6.37l-0.42,0.4
					c-0.89,1.05-1.8,2.09-2.7,3.12L62.95,176.3z"/>
				<path d="M79.87,178.67c0,2.17-1.58,3.78-3.77,3.78c-2.17,0-3.77-1.61-3.77-3.78s1.6-3.78,3.77-3.78
					C78.29,174.89,79.87,176.5,79.87,178.67z M78.2,178.67c0-1.35-0.89-2.29-2.1-2.29c-1.19,0-2.1,0.93-2.1,2.29s0.91,2.29,2.1,2.29
					C77.31,180.96,78.2,180.02,78.2,178.67z"/>
			</g>
			<g>
				<path d="M95.33,173.43v8.83h-1.81v-8.83h-3.02v-1.52h7.85v1.52H95.33z"/>
				<path d="M103.8,182.26l-0.04-0.91c0-0.29,0.04-0.47,0.06-0.53h-0.03c-0.29,0.66-1.22,1.63-2.56,1.63
					c-1.68,0-2.47-1.02-2.47-2.88v-4.5h1.76v4.2c0,0.85,0.19,1.58,1.16,1.58c1.17,0,2-0.95,2-2.22v-3.57h1.74v7.19H103.8z"/>
			</g>
			<g>
				<path d="M118.38,171.91l1.52,3.91c0.37,0.96,0.71,1.9,0.94,2.6c0.22-0.56,0.56-1.41,0.92-2.26l0.63-1.51l1.12-2.65h0.06
					c0.95,2.2,2.09,4.79,2.68,6.42c0.49-1.38,1.7-4.5,2.46-6.52h2l-4.42,10.51h-0.06l-2.13-5.11c-0.19-0.46-0.4-0.95-0.56-1.39
					l-0.55,1.39l-2.14,5.11h-0.06l-4.4-10.51H118.38z"/>
				<path d="M136.97,178.25c0,0.33-0.04,0.65-0.04,0.78h-5.02c0.04,1.21,0.91,1.93,2.23,1.93c1.01,0,2.06-0.3,2.55-0.6v1.54
					c-0.5,0.27-1.47,0.56-2.68,0.56c-2.39,0-3.93-1.57-3.93-3.78c0-2.17,1.57-3.78,3.6-3.78
					C135.84,174.89,136.97,176.47,136.97,178.25z M133.65,176.3c-1.04,0-1.65,0.81-1.74,1.71h3.37
					C135.29,177.1,134.73,176.3,133.65,176.3z"/>
			</g>
			<g>
				<path d="M151.86,173.43v8.83h-1.81v-8.83h-3.02v-1.52h7.85v1.52H151.86z"/>
				<path d="M157.9,171.91v3.78c0,0.33-0.03,0.62-0.03,0.75c0.35-0.6,1.19-1.55,2.55-1.55c1.7,0,2.49,1.02,2.49,2.88v4.5h-1.75v-4.2
					c0-0.83-0.2-1.58-1.18-1.58c-1.19,0-2.04,0.95-2.04,2.21v3.57h-1.76v-10.36H157.9z"/>
			</g>
			<g>
				<path d="M123.05,147.46l-5.68-5.45l-0.68-0.59v5.88h-2.17v-10.51h0.09l5.67,5.45l0.66,0.59v-5.88h2.19v10.51H123.05z"/>
				<path d="M130.71,136.75c3.12,0,5.42,2.39,5.42,5.38c0,3.02-2.29,5.38-5.42,5.38c-3.14,0-5.42-2.36-5.42-5.38
					C125.29,139.15,127.58,136.75,130.71,136.75z M130.71,145.48c1.87,0,3.19-1.5,3.19-3.35c0-1.84-1.32-3.35-3.19-3.35
					s-3.19,1.51-3.19,3.35C127.52,143.98,128.84,145.48,130.71,145.48z"/>
				<path d="M141.77,147.46h-0.09l-5.11-10.51h2.42l1.35,2.99c0.53,1.19,1.01,2.22,1.37,3.22c0.3-0.73,0.94-2.2,1.4-3.22l1.35-2.99
					h2.4L141.77,147.46z"/>
				<path d="M148.39,147.3v-10.36h6.66v1.86h-4.44v2.36h3.77v1.78h-3.77v2.5h4.66v1.86H148.39z"/>
				<path d="M160.09,141.95l-0.55-0.47v5.83h-2.11v-10.51h0.04l4.93,4.98l4.93-4.98h0.04v10.51h-2.11v-5.83l-0.55,0.47
					c-0.76,0.83-1.54,1.67-2.32,2.49C161.63,143.62,160.86,142.79,160.09,141.95z"/>
				<path d="M177.8,144.28c0,1.99-1.61,3.02-3.94,3.02h-3.65v-10.36h3.35c2.2,0,3.86,0.96,3.86,2.91c0,0.98-0.59,1.7-1.32,2.01
					C177.01,142.17,177.8,143.1,177.8,144.28z M173.64,141.26c0.3,0,0.58-0.01,0.83-0.09c0.42-0.16,0.69-0.56,0.69-1.14
					c0-0.86-0.59-1.32-1.47-1.32h-1.38v2.55H173.64z M172.32,145.53h1.64c0.88,0,1.57-0.49,1.57-1.4c0-0.91-0.63-1.38-1.42-1.38
					h-1.78V145.53z"/>
				<path d="M180.04,147.3v-10.36h6.66v1.86h-4.44v2.36h3.77v1.78h-3.77v2.5h4.66v1.86H180.04z"/>
				<path d="M192.71,136.95c2.4,0,4,1.19,4,3.41c0,1.51-0.85,2.5-1.97,2.95l2.17,4h-2.34l-1.83-3.62h-1.5v3.62h-2.17v-10.36H192.71z
					 M191.25,138.8v3.09h1.58c0.98,0,1.65-0.49,1.65-1.54c0-1.04-0.7-1.55-1.71-1.55H191.25z"/>
			</g>
			<g>
				<path d="M180.48,173.43v2.93h3.68v1.51h-3.68v4.39h-1.81v-10.36h6.19v1.52H180.48z"/>
				<path d="M185.67,175.07h1.61c0.02,0.29,0.03,0.58,0.03,0.85c0,0.24-0.01,0.45,0,0.5c0.45-0.88,1.19-1.54,2.19-1.54
					c0.22,0,0.4,0.03,0.45,0.04v1.7c-0.04,0-0.2-0.06-0.43-0.06c-1.24,0-2.09,1.25-2.09,2.6v3.09h-1.75V175.07z"/>
			</g>
			<g>
				<path d="M205.06,181.86v-1.77c0.73,0.37,1.73,0.72,2.76,0.75c0.37,0,0.73-0.03,1.04-0.11c0.73-0.17,1.18-0.55,1.18-1.11
					c0-0.82-0.59-1.27-2.17-1.83c-1.9-0.68-2.91-1.48-2.91-3.16c0-1.81,1.51-2.91,3.61-2.91c1.04,0,2.03,0.26,2.65,0.52v1.7
					c-0.59-0.33-1.58-0.62-2.52-0.62c-1.18,0-1.97,0.49-1.97,1.28c0,0.73,0.55,1.22,2.13,1.8c1.9,0.71,2.93,1.51,2.93,3.15
					c0,1.81-1.38,2.91-3.7,2.91C206.9,182.45,205.77,182.16,205.06,181.86z"/>
				<path d="M213.47,175.4c0.4-0.22,1.37-0.52,2.59-0.52c2.13,0,3.18,1.02,3.18,2.82v4.56h-1.6l-0.03-0.75
					c-0.01-0.33,0.03-0.55,0.03-0.55h-0.03c-0.13,0.32-0.89,1.48-2.36,1.48c-1.28,0-2.29-0.76-2.29-2.14c0-1.77,1.74-2.63,4.53-2.24
					v-0.27c0-1.05-0.66-1.41-1.71-1.41c-0.95,0-1.86,0.32-2.32,0.6V175.4z M217.46,179.1c-1.97-0.32-2.81,0.24-2.81,1.06
					c0,0.55,0.39,0.92,0.99,0.92C216.68,181.09,217.46,180.11,217.46,179.1z"/>
			</g>
			<g>
				<path d="M233.06,181.86v-1.77c0.73,0.37,1.73,0.72,2.76,0.75c0.37,0,0.73-0.03,1.04-0.11c0.73-0.17,1.18-0.55,1.18-1.11
					c0-0.82-0.59-1.27-2.17-1.83c-1.9-0.68-2.91-1.48-2.91-3.16c0-1.81,1.51-2.91,3.61-2.91c1.04,0,2.03,0.26,2.65,0.52v1.7
					c-0.59-0.33-1.58-0.62-2.52-0.62c-1.18,0-1.97,0.49-1.97,1.28c0,0.73,0.55,1.22,2.13,1.8c1.9,0.71,2.93,1.51,2.93,3.15
					c0,1.81-1.38,2.91-3.7,2.91C234.91,182.45,233.78,182.16,233.06,181.86z"/>
				<path d="M246.27,182.26l-0.04-0.91c0-0.29,0.04-0.47,0.06-0.53h-0.03c-0.29,0.66-1.22,1.63-2.56,1.63
					c-1.68,0-2.47-1.02-2.47-2.88v-4.5h1.76v4.2c0,0.85,0.19,1.58,1.16,1.58c1.17,0,2-0.95,2-2.22v-3.57h1.74v7.19H246.27z"/>
			</g>
			<g>
				<path d="M67.2,223.36l3.84-8.82h-4.49V213h6.92l-4.37,10.36H67.2z"/>
			</g>
			<g>
				<path d="M95.21,215.49c0-1.54,1.38-2.69,3.27-2.69c1.88,0,3.28,1.15,3.28,2.69c0,1.41-1.16,2.3-1.84,2.6
					c0.78,0.35,2.01,1.24,2.01,2.72c0,1.57-1.42,2.75-3.45,2.75c-1.9,0-3.29-1.06-3.42-2.5c-0.03-0.35,0.01-0.66,0.1-0.98
					c0.29-1.06,1.28-1.73,1.88-1.99C96.36,217.79,95.21,216.9,95.21,215.49z M98.47,222.02c0.98,0,1.73-0.6,1.73-1.41
					c0-0.88-0.86-1.57-1.73-1.88c-0.86,0.32-1.74,1.01-1.74,1.88C96.73,221.41,97.49,222.02,98.47,222.02z M98.47,217.41
					c0.76-0.32,1.54-0.88,1.54-1.76c0-0.76-0.66-1.35-1.54-1.35c-0.88,0-1.54,0.59-1.54,1.35C96.93,216.54,97.69,217.1,98.47,217.41
					z"/>
			</g>
			<g>
				<path d="M123.25,216.34c0-2.03,1.58-3.54,3.7-3.54c2.07,0,3.62,1.52,3.62,3.62c0,2.62-2.39,5.64-4.13,6.93h-2.3
					c1.73-1.27,3.05-2.82,3.8-4c-0.2,0.17-0.65,0.42-1.25,0.42C124.66,219.77,123.25,218.18,123.25,216.34z M124.92,216.34
					c0,1.16,0.83,2.04,2.03,2.04c1.18,0,2.03-0.88,2.03-2.01c0-1.21-0.85-2.07-2.03-2.07C125.75,214.29,124.92,215.16,124.92,216.34
					z"/>
			</g>
			<g>
				<path d="M151.48,213v10.36h-1.8v-8.82h-1.32V213H151.48z"/>
				<path d="M158.16,212.81c2.5,0,4.07,2.34,4.07,5.37c0,3.02-1.57,5.36-4.07,5.36c-2.49,0-4.07-2.34-4.07-5.36
					C154.09,215.16,155.67,212.81,158.16,212.81z M158.16,221.87c1.41,0,2.26-1.5,2.26-3.7c0-2.2-0.85-3.7-2.26-3.7
					c-1.39,0-2.24,1.5-2.24,3.7C155.92,220.38,156.76,221.87,158.16,221.87z"/>
			</g>
			<g>
				<path d="M182.13,213v10.36h-1.8v-8.82h-1.32V213H182.13z"/>
				<path d="M187.72,213v10.36h-1.8v-8.82h-1.32V213H187.72z"/>
			</g>
			<g>
				<path d="M209.36,213v10.36h-1.8v-8.82h-1.32V213H209.36z"/>
				<path d="M211.91,213.44c0.52-0.36,1.35-0.63,2.33-0.63c2.2,0,3.6,1.42,3.6,3.44c0,2-1.54,3.65-3.19,5.57h3.67v1.54h-6.95
					c2.65-3.05,4.39-4.92,4.56-6.75c0.04-0.4,0-0.76-0.12-1.06c-0.24-0.68-0.88-1.06-1.78-1.06c-0.88,0-1.65,0.32-2.11,0.66V213.44z
					"/>
			</g>
			<g>
				<path d="M99.56,192.26v10.36h-1.8v-8.82h-1.32v-1.54H99.56z"/>
			</g>
			<g>
				<path d="M123.75,192.71c0.52-0.36,1.35-0.63,2.33-0.63c2.2,0,3.6,1.42,3.6,3.44c0,2-1.54,3.65-3.19,5.57h3.67v1.54h-6.95
					c2.65-3.05,4.39-4.92,4.56-6.75c0.04-0.4,0-0.76-0.12-1.06c-0.24-0.68-0.88-1.06-1.78-1.06c-0.88,0-1.65,0.32-2.11,0.66V192.71z
					"/>
			</g>
			<g>
				<path d="M154.37,193.67c-0.89,0-1.67,0.27-2.14,0.5v-1.61c0.5-0.23,1.42-0.49,2.42-0.49c2.14,0,3.47,1.15,3.47,2.82
					c0,1.18-0.82,2.04-1.78,2.4c1.05,0.33,1.96,1.24,1.96,2.59c0,1.78-1.52,2.92-3.64,2.92c-1.27,0-2.03-0.29-2.59-0.56v-1.61
					c0.49,0.24,1.25,0.58,2.45,0.58c1.15,0,1.91-0.6,1.91-1.51c0-1.06-0.89-1.7-2.47-1.7h-0.34v-1.38h0.45c1.24,0,2.2-0.59,2.2-1.51
					C156.24,194.19,155.49,193.67,154.37,193.67z"/>
			</g>
			<g>
				<path d="M184.79,202.62v-2.36h-4.98l3.52-8h1.77l-2.83,6.49h2.55v-2.56h1.55v2.56h1.37v1.51h-1.37v2.36H184.79z"/>
			</g>
			<g>
				<path d="M209.24,200.56c0.5,0.36,1.34,0.65,2.29,0.65c1.22,0,2.14-0.71,2.14-1.9c0-1.17-0.96-1.87-2.24-1.87
					c-1.04,0-1.73,0.27-1.99,0.39l0.23-5.57h5.26v1.54h-3.7l-0.09,2.4c0.17-0.06,0.47-0.14,0.99-0.14c1.91,0,3.38,1.35,3.38,3.42
					c0,2.07-1.57,3.32-3.78,3.32c-1.12,0-1.97-0.3-2.5-0.65V200.56z"/>
			</g>
			<g>
				<path d="M238.04,213v10.36h-1.8v-8.82h-1.32V213H238.04z"/>
				<path d="M242.53,214.41c-0.89,0-1.67,0.27-2.14,0.5v-1.61c0.5-0.23,1.42-0.49,2.42-0.49c2.14,0,3.47,1.15,3.47,2.82
					c0,1.18-0.82,2.04-1.78,2.4c1.05,0.33,1.96,1.24,1.96,2.59c0,1.78-1.52,2.92-3.64,2.92c-1.27,0-2.03-0.29-2.59-0.56v-1.61
					c0.49,0.24,1.25,0.58,2.45,0.58c1.15,0,1.91-0.6,1.91-1.51c0-1.06-0.89-1.7-2.47-1.7h-0.35v-1.38h0.45c1.24,0,2.2-0.59,2.2-1.51
					C244.4,214.93,243.65,214.41,242.53,214.41z"/>
			</g>
			<g>
				<path d="M66.63,233.92v10.36h-1.8v-8.82h-1.32v-1.54H66.63z"/>
				<path d="M73.76,244.28v-2.36h-4.98l3.52-8h1.77l-2.83,6.49h2.55v-2.56h1.55v2.56h1.37v1.51h-1.37v2.36H73.76z"/>
			</g>
			<g>
				<path d="M95.64,233.92v10.36h-1.8v-8.82h-1.32v-1.54H95.64z"/>
				<path d="M98.21,242.22c0.5,0.36,1.34,0.65,2.29,0.65c1.22,0,2.14-0.71,2.14-1.9c0-1.17-0.96-1.87-2.24-1.87
					c-1.04,0-1.73,0.27-1.99,0.39l0.23-5.57h5.26v1.54h-3.7l-0.09,2.4c0.17-0.06,0.47-0.14,0.99-0.14c1.91,0,3.38,1.35,3.38,3.42
					c0,2.07-1.57,3.32-3.78,3.32c-1.12,0-1.97-0.3-2.5-0.65V242.22z"/>
			</g>
			<g>
				<path d="M123.5,233.92v10.36h-1.8v-8.82h-1.32v-1.54H123.5z"/>
				<path d="M133.46,240.94c0,2.03-1.57,3.52-3.68,3.52c-2.09,0-3.64-1.5-3.64-3.61c0-2.6,2.4-5.64,4.13-6.93h2.3
					c-1.73,1.27-3.04,2.82-3.8,4c0.22-0.17,0.65-0.42,1.27-0.42C132.06,237.5,133.46,239.1,133.46,240.94z M131.8,240.94
					c0-1.17-0.85-2.04-2.03-2.04c-1.19,0-2.03,0.88-2.03,2.01c0,1.21,0.83,2.07,2.03,2.07C130.96,242.98,131.8,242.12,131.8,240.94z
					"/>
			</g>
			<g>
				<path d="M152.6,233.92v10.36h-1.8v-8.82h-1.32v-1.54H152.6z"/>
				<path d="M155.36,244.28l3.84-8.82h-4.49v-1.54h6.92l-4.37,10.36H155.36z"/>
			</g>
			<g>
				<path d="M180.66,233.92v10.36h-1.8v-8.82h-1.32v-1.54H180.66z"/>
				<path d="M183.36,236.41c0-1.54,1.38-2.69,3.27-2.69c1.88,0,3.28,1.15,3.28,2.69c0,1.41-1.17,2.3-1.84,2.6
					c0.78,0.35,2.01,1.24,2.01,2.72c0,1.57-1.42,2.75-3.45,2.75c-1.9,0-3.29-1.06-3.42-2.5c-0.03-0.35,0.01-0.66,0.1-0.98
					c0.29-1.06,1.28-1.73,1.88-1.99C184.51,238.71,183.36,237.82,183.36,236.41z M186.63,242.94c0.98,0,1.73-0.6,1.73-1.41
					c0-0.88-0.86-1.57-1.73-1.88c-0.86,0.32-1.74,1.01-1.74,1.88C184.89,242.34,185.65,242.94,186.63,242.94z M186.63,238.34
					c0.76-0.32,1.54-0.88,1.54-1.76c0-0.76-0.66-1.35-1.54-1.35c-0.88,0-1.54,0.59-1.54,1.35
					C185.09,237.46,185.85,238.02,186.63,238.34z"/>
			</g>
			<g>
				<path d="M209.03,233.92v10.36h-1.8v-8.82h-1.32v-1.54H209.03z"/>
				<path d="M211.41,237.26c0-2.03,1.58-3.54,3.7-3.54c2.07,0,3.62,1.52,3.62,3.62c0,2.62-2.39,5.64-4.13,6.93h-2.3
					c1.73-1.27,3.05-2.82,3.8-4c-0.2,0.17-0.65,0.42-1.25,0.42C212.82,240.7,211.41,239.1,211.41,237.26z M213.08,237.26
					c0,1.16,0.83,2.04,2.03,2.04c1.18,0,2.03-0.88,2.03-2.01c0-1.21-0.85-2.07-2.03-2.07C213.91,235.22,213.08,236.08,213.08,237.26
					z"/>
			</g>
			<g>
				<path d="M232.65,234.37c0.52-0.36,1.35-0.63,2.33-0.63c2.2,0,3.6,1.42,3.6,3.44c0,2-1.54,3.65-3.19,5.57h3.67v1.54h-6.95
					c2.65-3.05,4.39-4.92,4.56-6.75c0.04-0.4,0-0.76-0.12-1.06c-0.24-0.68-0.88-1.06-1.78-1.06c-0.88,0-1.65,0.32-2.11,0.66V234.37z
					"/>
				<path d="M244.68,233.74c2.5,0,4.07,2.34,4.07,5.37c0,3.02-1.57,5.36-4.07,5.36c-2.49,0-4.07-2.34-4.07-5.36
					C240.61,236.08,242.2,233.74,244.68,233.74z M244.68,242.8c1.41,0,2.26-1.5,2.26-3.7c0-2.2-0.85-3.7-2.26-3.7
					c-1.39,0-2.24,1.5-2.24,3.7C242.44,241.3,243.29,242.8,244.68,242.8z"/>
			</g>
			<g>
				<path d="M244.49,199.1c0,2.03-1.57,3.52-3.68,3.52c-2.09,0-3.64-1.5-3.64-3.61c0-2.6,2.4-5.64,4.13-6.93h2.3
					c-1.73,1.27-3.04,2.82-3.8,4c0.22-0.17,0.65-0.42,1.27-0.42C243.09,195.66,244.49,197.25,244.49,199.1z M242.83,199.1
					c0-1.17-0.85-2.04-2.03-2.04c-1.19,0-2.03,0.88-2.03,2.01c0,1.21,0.83,2.07,2.03,2.07C241.99,201.14,242.83,200.28,242.83,199.1
					z"/>
			</g>
			<g>
				<path d="M64.05,255.29c0.52-0.36,1.35-0.63,2.33-0.63c2.2,0,3.6,1.42,3.6,3.44c0,2-1.54,3.65-3.19,5.57h3.67v1.54H63.5
					c2.65-3.05,4.39-4.92,4.56-6.75c0.04-0.4,0-0.76-0.12-1.06c-0.24-0.68-0.88-1.06-1.78-1.06c-0.88,0-1.65,0.32-2.11,0.66V255.29z
					"/>
				<path d="M75.13,254.85v10.36h-1.8v-8.82H72v-1.54H75.13z"/>
			</g>
			<g>
				<path d="M91.27,255.29c0.52-0.36,1.35-0.63,2.33-0.63c2.2,0,3.6,1.42,3.6,3.44c0,2-1.54,3.65-3.19,5.57h3.67v1.54h-6.95
					c2.65-3.05,4.39-4.92,4.56-6.75c0.04-0.4,0-0.76-0.12-1.06c-0.24-0.68-0.88-1.06-1.78-1.06c-0.88,0-1.65,0.32-2.11,0.66V255.29z
					"/>
				<path d="M99.32,255.29c0.52-0.36,1.35-0.63,2.33-0.63c2.2,0,3.6,1.42,3.6,3.44c0,2-1.54,3.65-3.19,5.57h3.67v1.54h-6.95
					c2.65-3.05,4.39-4.92,4.56-6.75c0.04-0.4,0-0.76-0.12-1.06c-0.24-0.68-0.88-1.06-1.78-1.06c-0.88,0-1.65,0.32-2.11,0.66V255.29z
					"/>
			</g>
			<g>
				<path d="M119.95,255.29c0.52-0.36,1.35-0.63,2.33-0.63c2.2,0,3.6,1.42,3.6,3.44c0,2-1.54,3.65-3.19,5.57h3.67v1.54h-6.95
					c2.65-3.05,4.39-4.92,4.56-6.75c0.04-0.4,0-0.76-0.12-1.06c-0.24-0.68-0.88-1.06-1.78-1.06c-0.88,0-1.65,0.32-2.11,0.66V255.29z
					"/>
				<path d="M129.94,256.25c-0.89,0-1.67,0.27-2.14,0.5v-1.61c0.5-0.23,1.42-0.49,2.42-0.49c2.14,0,3.47,1.15,3.47,2.82
					c0,1.18-0.82,2.04-1.78,2.4c1.05,0.33,1.96,1.24,1.96,2.59c0,1.78-1.52,2.92-3.64,2.92c-1.27,0-2.03-0.29-2.59-0.56v-1.61
					c0.49,0.24,1.25,0.58,2.45,0.58c1.15,0,1.91-0.6,1.91-1.51c0-1.06-0.89-1.7-2.47-1.7h-0.35v-1.38h0.45c1.24,0,2.2-0.59,2.2-1.51
					S131.06,256.25,129.94,256.25z"/>
			</g>
			<g>
				<path d="M147.73,255.29c0.52-0.36,1.35-0.63,2.33-0.63c2.2,0,3.6,1.42,3.6,3.44c0,2-1.54,3.65-3.19,5.57h3.67v1.54h-6.95
					c2.65-3.05,4.39-4.92,4.56-6.75c0.04-0.4,0-0.76-0.12-1.06c-0.24-0.68-0.88-1.06-1.78-1.06c-0.88,0-1.65,0.32-2.11,0.66V255.29z
					"/>
				<path d="M160.36,265.2v-2.36h-4.98l3.52-8h1.77l-2.83,6.49h2.55v-2.56h1.55v2.56h1.37v1.51h-1.37v2.36H160.36z"/>
			</g>
			<g>
				<path d="M176.74,255.29c0.52-0.36,1.35-0.63,2.33-0.63c2.2,0,3.6,1.42,3.6,3.44c0,2-1.54,3.65-3.19,5.57h3.67v1.54h-6.95
					c2.65-3.05,4.39-4.92,4.56-6.75c0.04-0.4,0-0.76-0.11-1.06c-0.24-0.68-0.88-1.06-1.78-1.06c-0.88,0-1.65,0.32-2.11,0.66V255.29z
					"/>
				<path d="M184.81,263.14c0.5,0.36,1.34,0.65,2.29,0.65c1.22,0,2.14-0.71,2.14-1.9c0-1.17-0.96-1.87-2.24-1.87
					c-1.04,0-1.73,0.27-1.99,0.39l0.23-5.57h5.26v1.54h-3.7l-0.09,2.4c0.17-0.06,0.47-0.14,0.99-0.14c1.91,0,3.38,1.35,3.38,3.42
					s-1.57,3.32-3.78,3.32c-1.12,0-1.97-0.3-2.5-0.65V263.14z"/>
			</g>
			<g>
				<path d="M204.6,255.29c0.52-0.36,1.35-0.63,2.33-0.63c2.2,0,3.6,1.42,3.6,3.44c0,2-1.54,3.65-3.19,5.57H211v1.54h-6.95
					c2.65-3.05,4.39-4.92,4.56-6.75c0.04-0.4,0-0.76-0.12-1.06c-0.24-0.68-0.88-1.06-1.78-1.06c-0.88,0-1.65,0.32-2.11,0.66V255.29z
					"/>
				<path d="M220.06,261.86c0,2.03-1.57,3.52-3.68,3.52c-2.09,0-3.64-1.5-3.64-3.61c0-2.6,2.4-5.64,4.13-6.93h2.3
					c-1.73,1.27-3.04,2.82-3.8,4c0.22-0.17,0.65-0.42,1.27-0.42C218.66,258.43,220.06,260.02,220.06,261.86z M218.4,261.86
					c0-1.17-0.85-2.04-2.03-2.04c-1.19,0-2.03,0.88-2.03,2.01c0,1.21,0.83,2.07,2.03,2.07C217.55,263.91,218.4,263.04,218.4,261.86z
					"/>
			</g>
			<g>
				<path d="M233.7,255.29c0.52-0.36,1.35-0.63,2.33-0.63c2.2,0,3.6,1.42,3.6,3.44c0,2-1.54,3.65-3.19,5.57h3.67v1.54h-6.95
					c2.65-3.05,4.39-4.92,4.56-6.75c0.04-0.4,0-0.76-0.12-1.06c-0.24-0.68-0.88-1.06-1.78-1.06c-0.88,0-1.65,0.32-2.11,0.66V255.29z
					"/>
				<path d="M241.96,265.2l3.84-8.82h-4.49v-1.54h6.92l-4.37,10.36H241.96z"/>
			</g>
			<g>
				<path d="M62.57,276.21c0.52-0.36,1.35-0.63,2.33-0.63c2.2,0,3.6,1.42,3.6,3.44c0,2-1.54,3.65-3.19,5.57h3.67v1.54h-6.95
					c2.65-3.05,4.39-4.92,4.56-6.75c0.04-0.4,0-0.76-0.12-1.06c-0.24-0.68-0.88-1.06-1.78-1.06c-0.88,0-1.65,0.32-2.11,0.66V276.21z
					"/>
				<path d="M70.77,278.26c0-1.54,1.38-2.69,3.27-2.69c1.88,0,3.28,1.15,3.28,2.69c0,1.41-1.17,2.3-1.84,2.6
					c0.78,0.35,2.01,1.24,2.01,2.72c0,1.57-1.42,2.75-3.45,2.75c-1.9,0-3.29-1.06-3.42-2.5c-0.03-0.35,0.01-0.66,0.1-0.98
					c0.29-1.06,1.28-1.73,1.88-1.99C71.92,280.56,70.77,279.67,70.77,278.26z M74.04,284.79c0.98,0,1.73-0.6,1.73-1.41
					c0-0.88-0.86-1.57-1.73-1.88c-0.86,0.32-1.74,1.01-1.74,1.88C72.3,284.18,73.06,284.79,74.04,284.79z M74.04,280.18
					c0.76-0.32,1.54-0.88,1.54-1.76c0-0.76-0.66-1.35-1.54-1.35c-0.88,0-1.54,0.59-1.54,1.35C72.5,279.31,73.26,279.87,74.04,280.18
					z"/>
			</g>
			<g>
				<path d="M90.95,276.21c0.52-0.36,1.35-0.63,2.33-0.63c2.2,0,3.6,1.42,3.6,3.44c0,2-1.54,3.65-3.19,5.57h3.67v1.54H90.4
					c2.65-3.05,4.39-4.92,4.56-6.75c0.04-0.4,0-0.76-0.12-1.06c-0.24-0.68-0.88-1.06-1.78-1.06c-0.88,0-1.65,0.32-2.11,0.66V276.21z
					"/>
				<path d="M98.82,279.11c0-2.03,1.58-3.54,3.7-3.54c2.07,0,3.62,1.52,3.62,3.62c0,2.62-2.39,5.64-4.13,6.93h-2.3
					c1.73-1.27,3.05-2.82,3.8-4c-0.2,0.17-0.65,0.42-1.25,0.42C100.23,282.54,98.82,280.95,98.82,279.11z M100.49,279.11
					c0,1.16,0.83,2.04,2.03,2.04c1.18,0,2.03-0.88,2.03-2.01c0-1.21-0.85-2.07-2.03-2.07C101.32,277.06,100.49,277.93,100.49,279.11
					z"/>
			</g>
			<g>
				<path d="M120.93,277.18c-0.89,0-1.67,0.27-2.14,0.5v-1.61c0.5-0.23,1.42-0.49,2.42-0.49c2.14,0,3.47,1.15,3.47,2.82
					c0,1.18-0.82,2.04-1.78,2.4c1.05,0.33,1.96,1.24,1.96,2.59c0,1.78-1.52,2.92-3.64,2.92c-1.27,0-2.03-0.29-2.59-0.56v-1.61
					c0.49,0.24,1.25,0.58,2.45,0.58c1.15,0,1.91-0.6,1.91-1.51c0-1.06-0.89-1.7-2.47-1.7h-0.34v-1.38h0.45c1.24,0,2.2-0.59,2.2-1.51
					S122.05,277.18,120.93,277.18z"/>
				<path d="M130.71,275.58c2.5,0,4.07,2.34,4.07,5.37c0,3.02-1.57,5.36-4.07,5.36c-2.49,0-4.07-2.34-4.07-5.36
					C126.64,277.93,128.22,275.58,130.71,275.58z M130.71,284.64c1.41,0,2.26-1.5,2.26-3.7c0-2.2-0.85-3.7-2.26-3.7
					c-1.39,0-2.24,1.5-2.24,3.7C128.47,283.15,129.32,284.64,130.71,284.64z"/>
			</g>
		</g>
		<g>
			<g>
				<path d="M897.58,176.3l-0.4-0.4v6.37h-1.74v-10.51h0.03l4.82,5.35l4.82-5.35h0.03v10.51h-1.73v-6.37l-0.42,0.4
					c-0.89,1.05-1.8,2.09-2.7,3.12L897.58,176.3z"/>
				<path d="M914.5,178.67c0,2.17-1.58,3.78-3.77,3.78c-2.17,0-3.77-1.61-3.77-3.78s1.6-3.78,3.77-3.78
					C912.92,174.89,914.5,176.5,914.5,178.67z M912.83,178.67c0-1.35-0.89-2.29-2.1-2.29c-1.19,0-2.1,0.93-2.1,2.29
					s0.91,2.29,2.1,2.29C911.94,180.96,912.83,180.02,912.83,178.67z"/>
			</g>
			<g>
				<path d="M929.96,173.43v8.83h-1.81v-8.83h-3.02v-1.52h7.85v1.52H929.96z"/>
				<path d="M938.43,182.26l-0.04-0.91c0-0.29,0.04-0.47,0.06-0.53h-0.03c-0.29,0.66-1.22,1.63-2.56,1.63
					c-1.68,0-2.47-1.02-2.47-2.88v-4.5h1.76v4.2c0,0.85,0.19,1.58,1.16,1.58c1.17,0,2-0.95,2-2.22v-3.57h1.74v7.19H938.43z"/>
			</g>
			<g>
				<path d="M953.01,171.91l1.52,3.91c0.37,0.96,0.71,1.9,0.94,2.6c0.22-0.56,0.56-1.41,0.92-2.26l0.63-1.51l1.12-2.65h0.06
					c0.95,2.2,2.09,4.79,2.68,6.42c0.49-1.38,1.7-4.5,2.46-6.52h2l-4.42,10.51h-0.06l-2.13-5.11c-0.19-0.46-0.4-0.95-0.56-1.39
					l-0.55,1.39l-2.14,5.11h-0.06l-4.4-10.51H953.01z"/>
				<path d="M971.6,178.25c0,0.33-0.04,0.65-0.04,0.78h-5.02c0.04,1.21,0.91,1.93,2.23,1.93c1.01,0,2.06-0.3,2.55-0.6v1.54
					c-0.5,0.27-1.47,0.56-2.68,0.56c-2.39,0-3.93-1.57-3.93-3.78c0-2.17,1.57-3.78,3.6-3.78
					C970.47,174.89,971.6,176.47,971.6,178.25z M968.28,176.3c-1.04,0-1.65,0.81-1.74,1.71h3.37
					C969.92,177.1,969.36,176.3,968.28,176.3z"/>
			</g>
			<g>
				<path d="M986.49,173.43v8.83h-1.81v-8.83h-3.02v-1.52h7.85v1.52H986.49z"/>
				<path d="M992.53,171.91v3.78c0,0.33-0.03,0.62-0.03,0.75c0.35-0.6,1.19-1.55,2.55-1.55c1.7,0,2.49,1.02,2.49,2.88v4.5h-1.75
					v-4.2c0-0.83-0.2-1.58-1.18-1.58c-1.19,0-2.04,0.95-2.04,2.21v3.57h-1.76v-10.36H992.53z"/>
			</g>
			<g>
				<path d="M954.54,138.8v2.47h3.45v1.83h-3.45v4.2h-2.21v-10.36h6.31v1.86H954.54z"/>
				<path d="M960.73,147.3v-10.36h6.66v1.86h-4.44v2.36h3.77v1.78h-3.77v2.5h4.66v1.86H960.73z"/>
				<path d="M977.36,144.28c0,1.99-1.61,3.02-3.94,3.02h-3.65v-10.36h3.35c2.2,0,3.86,0.96,3.86,2.91c0,0.98-0.59,1.7-1.32,2.01
					C976.57,142.17,977.36,143.1,977.36,144.28z M973.2,141.26c0.3,0,0.58-0.01,0.83-0.09c0.42-0.16,0.69-0.56,0.69-1.14
					c0-0.86-0.59-1.32-1.47-1.32h-1.38v2.55H973.2z M971.88,145.53h1.64c0.88,0,1.57-0.49,1.57-1.4c0-0.91-0.63-1.38-1.42-1.38
					h-1.78V145.53z"/>
				<path d="M983.23,136.95c2.4,0,4,1.19,4,3.41c0,1.51-0.85,2.5-1.97,2.95l2.17,4h-2.34l-1.83-3.62h-1.5v3.62h-2.17v-10.36H983.23z
					 M981.77,138.8v3.09h1.58c0.98,0,1.65-0.49,1.65-1.54c0-1.04-0.7-1.55-1.71-1.55H981.77z"/>
				<path d="M998.08,143.53c0,2.42-1.6,3.97-4.33,3.97c-2.72,0-4.33-1.55-4.33-3.97v-6.59h2.22v6.37c0,1.35,0.76,2.16,2.11,2.16
					c1.37,0,2.11-0.81,2.11-2.16v-6.37h2.22V143.53z"/>
				<path d="M1004.15,136.79h0.09l5.03,10.51h-2.32l-0.83-1.83h-3.87l-0.81,1.83h-2.32L1004.15,136.79z M1005.45,143.92
					c-0.47-1.08-0.94-2.17-1.25-3.08c-0.3,0.72-0.85,2.1-1.28,3.08H1005.45z"/>
				<path d="M1014.54,136.95c2.4,0,4,1.19,4,3.41c0,1.51-0.85,2.5-1.97,2.95l2.17,4h-2.34l-1.83-3.62h-1.5v3.62h-2.17v-10.36
					H1014.54z M1013.07,138.8v3.09h1.58c0.98,0,1.65-0.49,1.65-1.54c0-1.04-0.7-1.55-1.71-1.55H1013.07z"/>
				<path d="M1021.91,136.95l2.37,4.24l2.37-4.24h2.5l-3.77,6.34v4.01h-2.21v-4.01l-3.75-6.34H1021.91z"/>
			</g>
			<g>
				<path d="M1015.11,173.43v2.93h3.68v1.51h-3.68v4.39h-1.81v-10.36h6.19v1.52H1015.11z"/>
				<path d="M1020.3,175.07h1.61c0.01,0.29,0.03,0.58,0.03,0.85c0,0.24-0.01,0.45,0,0.5c0.45-0.88,1.19-1.54,2.19-1.54
					c0.22,0,0.4,0.03,0.45,0.04v1.7c-0.04,0-0.2-0.06-0.43-0.06c-1.24,0-2.09,1.25-2.09,2.6v3.09h-1.76V175.07z"/>
			</g>
			<g>
				<path d="M1039.69,181.86v-1.77c0.73,0.37,1.73,0.72,2.76,0.75c0.37,0,0.73-0.03,1.04-0.11c0.73-0.17,1.18-0.55,1.18-1.11
					c0-0.82-0.59-1.27-2.17-1.83c-1.9-0.68-2.91-1.48-2.91-3.16c0-1.81,1.51-2.91,3.61-2.91c1.04,0,2.03,0.26,2.65,0.52v1.7
					c-0.59-0.33-1.58-0.62-2.52-0.62c-1.18,0-1.97,0.49-1.97,1.28c0,0.73,0.55,1.22,2.13,1.8c1.9,0.71,2.93,1.51,2.93,3.15
					c0,1.81-1.38,2.91-3.7,2.91C1041.53,182.45,1040.4,182.16,1039.69,181.86z"/>
				<path d="M1048.1,175.4c0.4-0.22,1.37-0.52,2.59-0.52c2.13,0,3.18,1.02,3.18,2.82v4.56h-1.6l-0.03-0.75
					c-0.01-0.33,0.03-0.55,0.03-0.55h-0.03c-0.13,0.32-0.89,1.48-2.36,1.48c-1.28,0-2.29-0.76-2.29-2.14c0-1.77,1.74-2.63,4.53-2.24
					v-0.27c0-1.05-0.66-1.41-1.71-1.41c-0.95,0-1.86,0.32-2.32,0.6V175.4z M1052.09,179.1c-1.97-0.32-2.81,0.24-2.81,1.06
					c0,0.55,0.39,0.92,0.99,0.92C1051.31,181.09,1052.09,180.11,1052.09,179.1z"/>
			</g>
			<g>
				<path d="M1067.7,181.86v-1.77c0.73,0.37,1.73,0.72,2.76,0.75c0.37,0,0.73-0.03,1.04-0.11c0.73-0.17,1.18-0.55,1.18-1.11
					c0-0.82-0.59-1.27-2.17-1.83c-1.9-0.68-2.91-1.48-2.91-3.16c0-1.81,1.51-2.91,3.61-2.91c1.04,0,2.03,0.26,2.65,0.52v1.7
					c-0.59-0.33-1.58-0.62-2.52-0.62c-1.18,0-1.97,0.49-1.97,1.28c0,0.73,0.55,1.22,2.13,1.8c1.9,0.71,2.93,1.51,2.93,3.15
					c0,1.81-1.38,2.91-3.7,2.91C1069.54,182.45,1068.41,182.16,1067.7,181.86z"/>
				<path d="M1080.9,182.26l-0.04-0.91c0-0.29,0.04-0.47,0.06-0.53h-0.03c-0.29,0.66-1.22,1.63-2.56,1.63
					c-1.68,0-2.47-1.02-2.47-2.88v-4.5h1.76v4.2c0,0.85,0.19,1.58,1.16,1.58c1.17,0,2-0.95,2-2.22v-3.57h1.74v7.19H1080.9z"/>
			</g>
			<g>
				<path d="M908.39,220.02c0,2.03-1.57,3.52-3.68,3.52c-2.09,0-3.64-1.5-3.64-3.61c0-2.6,2.4-5.64,4.13-6.93h2.3
					c-1.73,1.27-3.04,2.82-3.8,4c0.22-0.17,0.65-0.42,1.27-0.42C906.99,216.58,908.39,218.18,908.39,220.02z M906.73,220.02
					c0-1.17-0.85-2.04-2.03-2.04c-1.19,0-2.03,0.88-2.03,2.01c0,1.21,0.83,2.07,2.03,2.07C905.88,222.06,906.73,221.2,906.73,220.02
					z"/>
			</g>
			<g>
				<path d="M930.29,223.36l3.84-8.82h-4.49V213h6.92l-4.37,10.36H930.29z"/>
			</g>
			<g>
				<path d="M958.29,215.49c0-1.54,1.38-2.69,3.27-2.69c1.88,0,3.28,1.15,3.28,2.69c0,1.41-1.16,2.3-1.84,2.6
					c0.78,0.35,2.01,1.24,2.01,2.72c0,1.57-1.42,2.75-3.45,2.75c-1.9,0-3.29-1.06-3.42-2.5c-0.03-0.35,0.01-0.66,0.1-0.98
					c0.29-1.06,1.28-1.73,1.88-1.99C959.44,217.79,958.29,216.9,958.29,215.49z M961.56,222.02c0.98,0,1.73-0.6,1.73-1.41
					c0-0.88-0.86-1.57-1.73-1.88c-0.86,0.32-1.74,1.01-1.74,1.88C959.82,221.41,960.58,222.02,961.56,222.02z M961.56,217.41
					c0.76-0.32,1.54-0.88,1.54-1.76c0-0.76-0.66-1.35-1.54-1.35c-0.88,0-1.54,0.59-1.54,1.35
					C960.02,216.54,960.78,217.1,961.56,217.41z"/>
			</g>
			<g>
				<path d="M986.34,216.34c0-2.03,1.58-3.54,3.7-3.54c2.07,0,3.62,1.52,3.62,3.62c0,2.62-2.39,5.64-4.13,6.93h-2.3
					c1.73-1.27,3.05-2.82,3.8-4c-0.2,0.17-0.65,0.42-1.25,0.42C987.75,219.77,986.34,218.18,986.34,216.34z M988.01,216.34
					c0,1.16,0.83,2.04,2.03,2.04c1.18,0,2.03-0.88,2.03-2.01c0-1.21-0.85-2.07-2.03-2.07C988.84,214.29,988.01,215.16,988.01,216.34
					z"/>
			</g>
			<g>
				<path d="M1014.57,213v10.36h-1.8v-8.82h-1.32V213H1014.57z"/>
				<path d="M1021.24,212.81c2.5,0,4.07,2.34,4.07,5.37c0,3.02-1.57,5.36-4.07,5.36c-2.49,0-4.07-2.34-4.07-5.36
					C1017.17,215.16,1018.76,212.81,1021.24,212.81z M1021.24,221.87c1.41,0,2.26-1.5,2.26-3.7c0-2.2-0.85-3.7-2.26-3.7
					c-1.39,0-2.24,1.5-2.24,3.7C1019,220.38,1019.85,221.87,1021.24,221.87z"/>
			</g>
			<g>
				<path d="M1045.22,213v10.36h-1.8v-8.82h-1.32V213H1045.22z"/>
				<path d="M1050.8,213v10.36h-1.8v-8.82h-1.32V213H1050.8z"/>
			</g>
			<g>
				<path d="M962.64,192.08v10.36h-1.8v-8.82h-1.32v-1.54H962.64z"/>
			</g>
			<g>
				<path d="M986.83,192.52c0.52-0.36,1.35-0.63,2.33-0.63c2.2,0,3.6,1.42,3.6,3.44c0,2-1.54,3.65-3.19,5.57h3.67v1.54h-6.95
					c2.65-3.05,4.39-4.92,4.56-6.75c0.04-0.4,0-0.76-0.12-1.06c-0.24-0.68-0.88-1.06-1.78-1.06c-0.88,0-1.65,0.32-2.11,0.66V192.52z
					"/>
			</g>
			<g>
				<path d="M1017.45,193.49c-0.89,0-1.67,0.27-2.14,0.5v-1.61c0.5-0.23,1.42-0.49,2.42-0.49c2.14,0,3.47,1.15,3.47,2.82
					c0,1.18-0.82,2.04-1.78,2.4c1.05,0.33,1.96,1.24,1.96,2.59c0,1.78-1.52,2.92-3.64,2.92c-1.27,0-2.03-0.29-2.59-0.56v-1.61
					c0.49,0.24,1.25,0.58,2.45,0.58c1.15,0,1.91-0.6,1.91-1.51c0-1.06-0.89-1.7-2.47-1.7h-0.34v-1.38h0.45c1.24,0,2.2-0.59,2.2-1.51
					C1019.32,194,1018.58,193.49,1017.45,193.49z"/>
			</g>
			<g>
				<path d="M1047.88,202.43v-2.36h-4.98l3.52-8h1.77l-2.83,6.49h2.55V196h1.55v2.56h1.37v1.51h-1.37v2.36H1047.88z"/>
			</g>
			<g>
				<path d="M1072.44,213v10.36h-1.8v-8.82h-1.32V213H1072.44z"/>
				<path d="M1074.99,213.44c0.52-0.36,1.35-0.63,2.33-0.63c2.2,0,3.6,1.42,3.6,3.44c0,2-1.54,3.65-3.19,5.57h3.67v1.54h-6.95
					c2.65-3.05,4.39-4.92,4.56-6.75c0.04-0.4,0-0.76-0.12-1.06c-0.24-0.68-0.88-1.06-1.78-1.06c-0.88,0-1.65,0.32-2.11,0.66V213.44z
					"/>
			</g>
			<g>
				<path d="M901.93,233.92v10.36h-1.8v-8.82h-1.32v-1.54H901.93z"/>
				<path d="M906.42,235.33c-0.89,0-1.67,0.27-2.14,0.5v-1.61c0.5-0.23,1.42-0.49,2.42-0.49c2.14,0,3.47,1.15,3.47,2.82
					c0,1.18-0.82,2.04-1.78,2.4c1.05,0.33,1.96,1.24,1.96,2.59c0,1.78-1.52,2.92-3.64,2.92c-1.27,0-2.03-0.29-2.59-0.56v-1.61
					c0.49,0.24,1.25,0.58,2.45,0.58c1.15,0,1.91-0.6,1.91-1.51c0-1.06-0.89-1.7-2.47-1.7h-0.35v-1.38h0.45c1.24,0,2.2-0.59,2.2-1.51
					C908.29,235.85,907.55,235.33,906.42,235.33z"/>
			</g>
			<g>
				<path d="M929.71,233.92v10.36h-1.8v-8.82h-1.32v-1.54H929.71z"/>
				<path d="M936.85,244.28v-2.36h-4.98l3.52-8h1.77l-2.83,6.49h2.55v-2.56h1.55v2.56h1.37v1.51h-1.37v2.36H936.85z"/>
			</g>
			<g>
				<path d="M958.72,233.92v10.36h-1.8v-8.82h-1.32v-1.54H958.72z"/>
				<path d="M961.3,242.22c0.5,0.36,1.34,0.65,2.29,0.65c1.22,0,2.14-0.71,2.14-1.9c0-1.17-0.96-1.87-2.24-1.87
					c-1.04,0-1.73,0.27-1.99,0.39l0.23-5.57H967v1.54h-3.7l-0.09,2.4c0.17-0.06,0.47-0.14,0.99-0.14c1.91,0,3.38,1.35,3.38,3.42
					c0,2.07-1.57,3.32-3.78,3.32c-1.12,0-1.97-0.3-2.5-0.65V242.22z"/>
			</g>
			<g>
				<path d="M986.59,233.92v10.36h-1.8v-8.82h-1.32v-1.54H986.59z"/>
				<path d="M996.54,240.94c0,2.03-1.57,3.52-3.68,3.52c-2.09,0-3.64-1.5-3.64-3.61c0-2.6,2.4-5.64,4.13-6.93h2.3
					c-1.73,1.27-3.04,2.82-3.8,4c0.22-0.17,0.65-0.42,1.27-0.42C995.15,237.5,996.54,239.1,996.54,240.94z M994.89,240.94
					c0-1.17-0.85-2.04-2.03-2.04c-1.19,0-2.03,0.88-2.03,2.01c0,1.21,0.83,2.07,2.03,2.07
					C994.04,242.98,994.89,242.12,994.89,240.94z"/>
			</g>
			<g>
				<path d="M1015.68,233.92v10.36h-1.8v-8.82h-1.32v-1.54H1015.68z"/>
				<path d="M1018.45,244.28l3.84-8.82h-4.49v-1.54h6.92l-4.37,10.36H1018.45z"/>
			</g>
			<g>
				<path d="M1043.74,233.92v10.36h-1.8v-8.82h-1.32v-1.54H1043.74z"/>
				<path d="M1046.45,236.41c0-1.54,1.38-2.69,3.27-2.69s3.28,1.15,3.28,2.69c0,1.41-1.17,2.3-1.84,2.6
					c0.78,0.35,2.01,1.24,2.01,2.72c0,1.57-1.42,2.75-3.45,2.75c-1.9,0-3.29-1.06-3.42-2.5c-0.03-0.35,0.01-0.66,0.1-0.98
					c0.29-1.06,1.28-1.73,1.88-1.99C1047.6,238.71,1046.45,237.82,1046.45,236.41z M1049.71,242.94c0.98,0,1.73-0.6,1.73-1.41
					c0-0.88-0.86-1.57-1.73-1.88c-0.86,0.32-1.74,1.01-1.74,1.88C1047.97,242.34,1048.74,242.94,1049.71,242.94z M1049.71,238.34
					c0.76-0.32,1.54-0.88,1.54-1.76c0-0.76-0.66-1.35-1.54-1.35s-1.54,0.59-1.54,1.35C1048.18,237.46,1048.94,238.02,1049.71,238.34
					z"/>
			</g>
			<g>
				<path d="M1072.12,233.92v10.36h-1.8v-8.82H1069v-1.54H1072.12z"/>
				<path d="M1074.5,237.26c0-2.03,1.58-3.54,3.7-3.54c2.07,0,3.62,1.52,3.62,3.62c0,2.62-2.39,5.64-4.13,6.93h-2.3
					c1.73-1.27,3.05-2.82,3.8-4c-0.2,0.17-0.65,0.42-1.25,0.42C1075.9,240.7,1074.5,239.1,1074.5,237.26z M1076.16,237.26
					c0,1.16,0.83,2.04,2.03,2.04c1.18,0,2.03-0.88,2.03-2.01c0-1.21-0.85-2.07-2.03-2.07C1077,235.22,1076.16,236.08,1076.16,237.26
					z"/>
			</g>
			<g>
				<path d="M1072.33,200.38c0.5,0.36,1.34,0.65,2.29,0.65c1.22,0,2.14-0.71,2.14-1.9c0-1.17-0.96-1.87-2.24-1.87
					c-1.04,0-1.73,0.27-1.99,0.39l0.23-5.57h5.26v1.54h-3.7l-0.09,2.4c0.17-0.06,0.47-0.14,0.99-0.14c1.91,0,3.38,1.35,3.38,3.42
					c0,2.07-1.57,3.32-3.78,3.32c-1.12,0-1.97-0.3-2.5-0.65V200.38z"/>
			</g>
			<g>
				<path d="M896.55,255.29c0.52-0.36,1.35-0.63,2.33-0.63c2.2,0,3.6,1.42,3.6,3.44c0,2-1.54,3.65-3.19,5.57h3.67v1.54h-6.95
					c2.65-3.05,4.39-4.92,4.56-6.75c0.04-0.4,0-0.76-0.12-1.06c-0.24-0.68-0.88-1.06-1.78-1.06c-0.88,0-1.65,0.32-2.11,0.66V255.29z
					"/>
				<path d="M908.58,254.66c2.5,0,4.07,2.34,4.07,5.37c0,3.02-1.57,5.36-4.07,5.36c-2.49,0-4.07-2.34-4.07-5.36
					C904.51,257,906.09,254.66,908.58,254.66z M908.58,263.72c1.41,0,2.26-1.5,2.26-3.7c0-2.2-0.85-3.7-2.26-3.7
					c-1.39,0-2.24,1.5-2.24,3.7C906.34,262.22,907.19,263.72,908.58,263.72z"/>
			</g>
			<g>
				<path d="M927.13,255.29c0.52-0.36,1.35-0.63,2.33-0.63c2.2,0,3.6,1.42,3.6,3.44c0,2-1.54,3.65-3.19,5.57h3.67v1.54h-6.95
					c2.65-3.05,4.39-4.92,4.56-6.75c0.04-0.4,0-0.76-0.12-1.06c-0.24-0.68-0.88-1.06-1.78-1.06c-0.88,0-1.65,0.32-2.11,0.66V255.29z
					"/>
				<path d="M938.21,254.85v10.36h-1.8v-8.82h-1.32v-1.54H938.21z"/>
			</g>
			<g>
				<path d="M954.36,255.29c0.52-0.36,1.35-0.63,2.33-0.63c2.2,0,3.6,1.42,3.6,3.44c0,2-1.54,3.65-3.19,5.57h3.67v1.54h-6.95
					c2.65-3.05,4.39-4.92,4.56-6.75c0.04-0.4,0-0.76-0.12-1.06c-0.24-0.68-0.88-1.06-1.78-1.06c-0.88,0-1.65,0.32-2.11,0.66V255.29z
					"/>
				<path d="M962.4,255.29c0.52-0.36,1.35-0.63,2.33-0.63c2.2,0,3.6,1.42,3.6,3.44c0,2-1.54,3.65-3.19,5.57h3.67v1.54h-6.95
					c2.65-3.05,4.39-4.92,4.56-6.75c0.04-0.4,0-0.76-0.12-1.06c-0.24-0.68-0.88-1.06-1.78-1.06c-0.88,0-1.65,0.32-2.11,0.66V255.29z
					"/>
			</g>
			<g>
				<path d="M983.03,255.29c0.52-0.36,1.35-0.63,2.33-0.63c2.2,0,3.6,1.42,3.6,3.44c0,2-1.54,3.65-3.19,5.57h3.67v1.54h-6.95
					c2.65-3.05,4.39-4.92,4.56-6.75c0.04-0.4,0-0.76-0.12-1.06c-0.24-0.68-0.88-1.06-1.78-1.06c-0.88,0-1.65,0.32-2.11,0.66V255.29z
					"/>
				<path d="M993.02,256.25c-0.89,0-1.67,0.27-2.14,0.5v-1.61c0.5-0.23,1.42-0.49,2.42-0.49c2.14,0,3.47,1.15,3.47,2.82
					c0,1.18-0.82,2.04-1.78,2.4c1.05,0.33,1.96,1.24,1.96,2.59c0,1.78-1.52,2.92-3.64,2.92c-1.27,0-2.03-0.29-2.59-0.56v-1.61
					c0.49,0.24,1.25,0.58,2.45,0.58c1.15,0,1.91-0.6,1.91-1.51c0-1.06-0.89-1.7-2.47-1.7h-0.35v-1.38h0.45c1.24,0,2.2-0.59,2.2-1.51
					S994.14,256.25,993.02,256.25z"/>
			</g>
			<g>
				<path d="M1010.81,255.29c0.52-0.36,1.35-0.63,2.33-0.63c2.2,0,3.6,1.42,3.6,3.44c0,2-1.54,3.65-3.19,5.57h3.67v1.54h-6.95
					c2.65-3.05,4.39-4.92,4.56-6.75c0.04-0.4,0-0.76-0.12-1.06c-0.24-0.68-0.88-1.06-1.78-1.06c-0.88,0-1.65,0.32-2.11,0.66V255.29z
					"/>
				<path d="M1023.45,265.2v-2.36h-4.98l3.52-8h1.77l-2.83,6.49h2.55v-2.56h1.55v2.56h1.37v1.51h-1.37v2.36H1023.45z"/>
			</g>
			<g>
				<path d="M1039.82,255.29c0.52-0.36,1.35-0.63,2.33-0.63c2.2,0,3.6,1.42,3.6,3.44c0,2-1.54,3.65-3.19,5.57h3.67v1.54h-6.95
					c2.65-3.05,4.39-4.92,4.56-6.75c0.04-0.4,0-0.76-0.12-1.06c-0.24-0.68-0.88-1.06-1.78-1.06c-0.88,0-1.65,0.32-2.11,0.66V255.29z
					"/>
				<path d="M1047.9,263.14c0.5,0.36,1.34,0.65,2.29,0.65c1.22,0,2.14-0.71,2.14-1.9c0-1.17-0.96-1.87-2.24-1.87
					c-1.04,0-1.73,0.27-1.99,0.39l0.23-5.57h5.26v1.54h-3.7l-0.09,2.4c0.17-0.06,0.47-0.14,0.99-0.14c1.91,0,3.38,1.35,3.38,3.42
					s-1.57,3.32-3.78,3.32c-1.12,0-1.97-0.3-2.5-0.65V263.14z"/>
			</g>
			<g>
				<path d="M1067.69,255.29c0.52-0.36,1.35-0.63,2.33-0.63c2.2,0,3.6,1.42,3.6,3.44c0,2-1.54,3.65-3.19,5.57h3.67v1.54h-6.95
					c2.65-3.05,4.39-4.92,4.56-6.75c0.04-0.4,0-0.76-0.12-1.06c-0.24-0.68-0.88-1.06-1.78-1.06c-0.88,0-1.65,0.32-2.11,0.66V255.29z
					"/>
				<path d="M1083.14,261.86c0,2.03-1.57,3.52-3.68,3.52c-2.09,0-3.64-1.5-3.64-3.61c0-2.6,2.4-5.64,4.13-6.93h2.3
					c-1.73,1.27-3.04,2.82-3.8,4c0.22-0.17,0.65-0.42,1.27-0.42C1081.75,258.43,1083.14,260.02,1083.14,261.86z M1081.49,261.86
					c0-1.17-0.85-2.04-2.03-2.04c-1.19,0-2.03,0.88-2.03,2.01c0,1.21,0.83,2.07,2.03,2.07
					C1080.64,263.91,1081.49,263.04,1081.49,261.86z"/>
			</g>
			<g>
				<path d="M897.6,276.21c0.52-0.36,1.35-0.63,2.33-0.63c2.2,0,3.6,1.42,3.6,3.44c0,2-1.54,3.65-3.19,5.57H904v1.54h-6.95
					c2.65-3.05,4.39-4.92,4.56-6.75c0.04-0.4,0-0.76-0.12-1.06c-0.24-0.68-0.88-1.06-1.78-1.06c-0.88,0-1.65,0.32-2.11,0.66V276.21z
					"/>
				<path d="M905.86,286.12l3.84-8.82h-4.49v-1.54h6.92l-4.37,10.36H905.86z"/>
			</g>
			<g>
				<path d="M925.66,276.21c0.52-0.36,1.35-0.63,2.33-0.63c2.2,0,3.6,1.42,3.6,3.44c0,2-1.54,3.65-3.19,5.57h3.67v1.54h-6.95
					c2.65-3.05,4.39-4.92,4.56-6.75c0.04-0.4,0-0.76-0.12-1.06c-0.24-0.68-0.88-1.06-1.78-1.06c-0.88,0-1.65,0.32-2.11,0.66V276.21z
					"/>
				<path d="M933.86,278.26c0-1.54,1.38-2.69,3.27-2.69s3.28,1.15,3.28,2.69c0,1.41-1.17,2.3-1.84,2.6
					c0.78,0.35,2.01,1.24,2.01,2.72c0,1.57-1.42,2.75-3.45,2.75c-1.9,0-3.29-1.06-3.42-2.5c-0.03-0.35,0.01-0.66,0.1-0.98
					c0.29-1.06,1.28-1.73,1.88-1.99C935.01,280.56,933.86,279.67,933.86,278.26z M937.12,284.79c0.98,0,1.73-0.6,1.73-1.41
					c0-0.88-0.86-1.57-1.73-1.88c-0.86,0.32-1.74,1.01-1.74,1.88C935.38,284.18,936.15,284.79,937.12,284.79z M937.12,280.18
					c0.76-0.32,1.54-0.88,1.54-1.76c0-0.76-0.66-1.35-1.54-1.35s-1.54,0.59-1.54,1.35C935.59,279.31,936.35,279.87,937.12,280.18z"
					/>
			</g>
		</g>
		<g>
			<g>
				<path d="M1157.57,176.3l-0.4-0.4v6.37h-1.74v-10.51h0.03l4.82,5.35l4.82-5.35h0.03v10.51h-1.73v-6.37l-0.42,0.4
					c-0.89,1.05-1.8,2.09-2.7,3.12L1157.57,176.3z"/>
				<path d="M1174.49,178.67c0,2.17-1.58,3.78-3.77,3.78c-2.17,0-3.77-1.61-3.77-3.78s1.6-3.78,3.77-3.78
					C1172.91,174.89,1174.49,176.5,1174.49,178.67z M1172.82,178.67c0-1.35-0.89-2.29-2.1-2.29c-1.19,0-2.1,0.93-2.1,2.29
					s0.91,2.29,2.1,2.29C1171.93,180.96,1172.82,180.02,1172.82,178.67z"/>
			</g>
			<g>
				<path d="M1189.95,173.43v8.83h-1.81v-8.83h-3.02v-1.52h7.85v1.52H1189.95z"/>
				<path d="M1198.42,182.26l-0.04-0.91c0-0.29,0.04-0.47,0.06-0.53h-0.03c-0.29,0.66-1.22,1.63-2.56,1.63
					c-1.68,0-2.47-1.02-2.47-2.88v-4.5h1.76v4.2c0,0.85,0.19,1.58,1.16,1.58c1.17,0,2-0.95,2-2.22v-3.57h1.74v7.19H1198.42z"/>
			</g>
			<g>
				<path d="M1213,171.91l1.52,3.91c0.37,0.96,0.71,1.9,0.94,2.6c0.22-0.56,0.56-1.41,0.92-2.26l0.63-1.51l1.12-2.65h0.06
					c0.95,2.2,2.09,4.79,2.68,6.42c0.49-1.38,1.7-4.5,2.46-6.52h2l-4.42,10.51h-0.06l-2.13-5.11c-0.19-0.46-0.4-0.95-0.56-1.39
					l-0.55,1.39l-2.14,5.11h-0.06l-4.4-10.51H1213z"/>
				<path d="M1231.59,178.25c0,0.33-0.04,0.65-0.04,0.78h-5.02c0.04,1.21,0.91,1.93,2.23,1.93c1.01,0,2.06-0.3,2.55-0.6v1.54
					c-0.5,0.27-1.47,0.56-2.68,0.56c-2.39,0-3.93-1.57-3.93-3.78c0-2.17,1.57-3.78,3.6-3.78
					C1230.46,174.89,1231.59,176.47,1231.59,178.25z M1228.27,176.3c-1.04,0-1.65,0.81-1.74,1.71h3.37
					C1229.91,177.1,1229.35,176.3,1228.27,176.3z"/>
			</g>
			<g>
				<path d="M1246.48,173.43v8.83h-1.81v-8.83h-3.02v-1.52h7.85v1.52H1246.48z"/>
				<path d="M1252.52,171.91v3.78c0,0.33-0.03,0.62-0.03,0.75c0.35-0.6,1.19-1.55,2.55-1.55c1.7,0,2.49,1.02,2.49,2.88v4.5h-1.75
					v-4.2c0-0.83-0.2-1.58-1.18-1.58c-1.19,0-2.04,0.95-2.04,2.21v3.57h-1.76v-10.36H1252.52z"/>
			</g>
			<g>
				<path d="M1226.61,141.95l-0.55-0.47v5.83h-2.12v-10.51h0.04l4.93,4.98l4.93-4.98h0.04v10.51h-2.12v-5.83l-0.55,0.47
					c-0.76,0.83-1.54,1.67-2.32,2.49C1228.15,143.62,1227.39,142.79,1226.61,141.95z"/>
				<path d="M1240.55,136.79h0.09l5.04,10.51h-2.32l-0.83-1.83h-3.87l-0.8,1.83h-2.32L1240.55,136.79z M1241.86,143.92
					c-0.47-1.08-0.93-2.17-1.25-3.08c-0.3,0.72-0.85,2.1-1.28,3.08H1241.86z"/>
				<path d="M1250.94,136.95c2.4,0,4,1.19,4,3.41c0,1.51-0.85,2.5-1.97,2.95l2.17,4h-2.34l-1.83-3.62h-1.5v3.62h-2.17v-10.36
					H1250.94z M1249.48,138.8v3.09h1.58c0.98,0,1.65-0.49,1.65-1.54c0-1.04-0.71-1.55-1.71-1.55H1249.48z"/>
				<path d="M1265.13,139.49c-0.62-0.32-1.6-0.72-2.86-0.72c-2.1,0-3.42,1.51-3.42,3.35c0,1.86,1.31,3.35,3.35,3.35
					c1.34,0,2.36-0.39,3.01-0.72v2.06c-0.53,0.29-1.71,0.69-3.16,0.69c-3.12,0-5.41-2.34-5.41-5.38c0-3.02,2.29-5.38,5.48-5.38
					c1.45,0,2.49,0.43,3.02,0.72V139.49z"/>
				<path d="M1273.83,147.3v-4.33h-4.27v4.33h-2.21v-10.36h2.21v4.19h4.27v-4.19h2.21v10.36H1273.83z"/>
			</g>
			<g>
				<path d="M1275.11,173.43v2.93h3.68v1.51h-3.68v4.39h-1.81v-10.36h6.19v1.52H1275.11z"/>
				<path d="M1280.29,175.07h1.61c0.01,0.29,0.03,0.58,0.03,0.85c0,0.24-0.01,0.45,0,0.5c0.45-0.88,1.19-1.54,2.19-1.54
					c0.22,0,0.4,0.03,0.45,0.04v1.7c-0.04,0-0.2-0.06-0.43-0.06c-1.24,0-2.09,1.25-2.09,2.6v3.09h-1.76V175.07z"/>
			</g>
			<g>
				<path d="M1299.68,181.86v-1.77c0.73,0.37,1.73,0.72,2.76,0.75c0.37,0,0.73-0.03,1.04-0.11c0.73-0.17,1.18-0.55,1.18-1.11
					c0-0.82-0.59-1.27-2.17-1.83c-1.9-0.68-2.91-1.48-2.91-3.16c0-1.81,1.51-2.91,3.61-2.91c1.04,0,2.03,0.26,2.65,0.52v1.7
					c-0.59-0.33-1.58-0.62-2.52-0.62c-1.18,0-1.97,0.49-1.97,1.28c0,0.73,0.55,1.22,2.13,1.8c1.9,0.71,2.93,1.51,2.93,3.15
					c0,1.81-1.38,2.91-3.7,2.91C1301.52,182.45,1300.4,182.16,1299.68,181.86z"/>
				<path d="M1308.1,175.4c0.4-0.22,1.37-0.52,2.59-0.52c2.13,0,3.18,1.02,3.18,2.82v4.56h-1.6l-0.03-0.75
					c-0.01-0.33,0.03-0.55,0.03-0.55h-0.03c-0.13,0.32-0.89,1.48-2.36,1.48c-1.28,0-2.29-0.76-2.29-2.14c0-1.77,1.74-2.63,4.53-2.24
					v-0.27c0-1.05-0.66-1.41-1.71-1.41c-0.95,0-1.86,0.32-2.32,0.6V175.4z M1312.08,179.1c-1.97-0.32-2.81,0.24-2.81,1.06
					c0,0.55,0.39,0.92,0.99,0.92C1311.3,181.09,1312.08,180.11,1312.08,179.1z"/>
			</g>
			<g>
				<path d="M1327.69,181.86v-1.77c0.73,0.37,1.73,0.72,2.76,0.75c0.37,0,0.73-0.03,1.04-0.11c0.73-0.17,1.18-0.55,1.18-1.11
					c0-0.82-0.59-1.27-2.17-1.83c-1.9-0.68-2.91-1.48-2.91-3.16c0-1.81,1.51-2.91,3.61-2.91c1.04,0,2.03,0.26,2.65,0.52v1.7
					c-0.59-0.33-1.58-0.62-2.52-0.62c-1.18,0-1.97,0.49-1.97,1.28c0,0.73,0.55,1.22,2.13,1.8c1.9,0.71,2.93,1.51,2.93,3.15
					c0,1.81-1.38,2.91-3.7,2.91C1329.53,182.45,1328.4,182.16,1327.69,181.86z"/>
				<path d="M1340.89,182.26l-0.04-0.91c0-0.29,0.04-0.47,0.06-0.53h-0.03c-0.29,0.66-1.22,1.63-2.56,1.63
					c-1.68,0-2.47-1.02-2.47-2.88v-4.5h1.76v4.2c0,0.85,0.19,1.58,1.16,1.58c1.17,0,2-0.95,2-2.22v-3.57h1.74v7.19H1340.89z"/>
			</g>
			<g>
				<path d="M1168.38,220.02c0,2.03-1.57,3.52-3.68,3.52c-2.09,0-3.64-1.5-3.64-3.61c0-2.6,2.4-5.64,4.13-6.93h2.3
					c-1.73,1.27-3.04,2.82-3.8,4c0.22-0.17,0.65-0.42,1.27-0.42C1166.98,216.58,1168.38,218.18,1168.38,220.02z M1166.72,220.02
					c0-1.17-0.85-2.04-2.03-2.04c-1.19,0-2.03,0.88-2.03,2.01c0,1.21,0.83,2.07,2.03,2.07
					C1165.87,222.06,1166.72,221.2,1166.72,220.02z"/>
			</g>
			<g>
				<path d="M1190.28,223.36l3.84-8.82h-4.49V213h6.92l-4.37,10.36H1190.28z"/>
			</g>
			<g>
				<path d="M1218.28,215.49c0-1.54,1.38-2.69,3.27-2.69c1.88,0,3.28,1.15,3.28,2.69c0,1.41-1.16,2.3-1.84,2.6
					c0.78,0.35,2.01,1.24,2.01,2.72c0,1.57-1.42,2.75-3.45,2.75c-1.9,0-3.29-1.06-3.42-2.5c-0.03-0.35,0.01-0.66,0.1-0.98
					c0.29-1.06,1.28-1.73,1.88-1.99C1219.43,217.79,1218.28,216.9,1218.28,215.49z M1221.55,222.02c0.98,0,1.73-0.6,1.73-1.41
					c0-0.88-0.86-1.57-1.73-1.88c-0.86,0.32-1.74,1.01-1.74,1.88C1219.81,221.41,1220.57,222.02,1221.55,222.02z M1221.55,217.41
					c0.76-0.32,1.54-0.88,1.54-1.76c0-0.76-0.66-1.35-1.54-1.35c-0.88,0-1.54,0.59-1.54,1.35
					C1220.01,216.54,1220.77,217.1,1221.55,217.41z"/>
			</g>
			<g>
				<path d="M1246.33,216.34c0-2.03,1.58-3.54,3.7-3.54c2.07,0,3.62,1.52,3.62,3.62c0,2.62-2.39,5.64-4.13,6.93h-2.3
					c1.73-1.27,3.05-2.82,3.8-4c-0.2,0.17-0.65,0.42-1.25,0.42C1247.74,219.77,1246.33,218.18,1246.33,216.34z M1248,216.34
					c0,1.16,0.83,2.04,2.03,2.04c1.18,0,2.03-0.88,2.03-2.01c0-1.21-0.85-2.07-2.03-2.07C1248.83,214.29,1248,215.16,1248,216.34z"
					/>
			</g>
			<g>
				<path d="M1274.56,213v10.36h-1.8v-8.82h-1.32V213H1274.56z"/>
				<path d="M1281.24,212.81c2.5,0,4.07,2.34,4.07,5.37c0,3.02-1.57,5.36-4.07,5.36c-2.49,0-4.07-2.34-4.07-5.36
					C1277.16,215.16,1278.75,212.81,1281.24,212.81z M1281.24,221.87c1.41,0,2.26-1.5,2.26-3.7c0-2.2-0.85-3.7-2.26-3.7
					c-1.39,0-2.24,1.5-2.24,3.7C1278.99,220.38,1279.84,221.87,1281.24,221.87z"/>
			</g>
			<g>
				<path d="M1305.21,213v10.36h-1.8v-8.82h-1.32V213H1305.21z"/>
				<path d="M1310.79,213v10.36h-1.8v-8.82h-1.32V213H1310.79z"/>
			</g>
			<g>
				<path d="M1222.63,192.08v10.36h-1.8v-8.82h-1.32v-1.54H1222.63z"/>
			</g>
			<g>
				<path d="M1246.82,192.52c0.52-0.36,1.35-0.63,2.33-0.63c2.2,0,3.6,1.42,3.6,3.44c0,2-1.54,3.65-3.19,5.57h3.67v1.54h-6.95
					c2.65-3.05,4.39-4.92,4.56-6.75c0.04-0.4,0-0.76-0.12-1.06c-0.24-0.68-0.88-1.06-1.78-1.06c-0.88,0-1.66,0.32-2.12,0.66V192.52z
					"/>
			</g>
			<g>
				<path d="M1277.45,193.49c-0.89,0-1.67,0.27-2.14,0.5v-1.61c0.5-0.23,1.42-0.49,2.42-0.49c2.14,0,3.47,1.15,3.47,2.82
					c0,1.18-0.82,2.04-1.78,2.4c1.05,0.33,1.96,1.24,1.96,2.59c0,1.78-1.52,2.92-3.64,2.92c-1.27,0-2.03-0.29-2.59-0.56v-1.61
					c0.49,0.24,1.25,0.58,2.45,0.58c1.15,0,1.91-0.6,1.91-1.51c0-1.06-0.89-1.7-2.47-1.7h-0.34v-1.38h0.45c1.24,0,2.2-0.59,2.2-1.51
					C1279.31,194,1278.57,193.49,1277.45,193.49z"/>
			</g>
			<g>
				<path d="M1307.87,202.43v-2.36h-4.98l3.52-8h1.77l-2.83,6.49h2.55V196h1.55v2.56h1.37v1.51h-1.37v2.36H1307.87z"/>
			</g>
			<g>
				<path d="M1332.43,213v10.36h-1.8v-8.82h-1.32V213H1332.43z"/>
				<path d="M1334.98,213.44c0.52-0.36,1.35-0.63,2.33-0.63c2.2,0,3.6,1.42,3.6,3.44c0,2-1.54,3.65-3.19,5.57h3.67v1.54h-6.95
					c2.65-3.05,4.39-4.92,4.56-6.75c0.04-0.4,0-0.76-0.12-1.06c-0.24-0.68-0.88-1.06-1.78-1.06c-0.88,0-1.65,0.32-2.11,0.66V213.44z
					"/>
			</g>
			<g>
				<path d="M1161.92,233.92v10.36h-1.8v-8.82h-1.32v-1.54H1161.92z"/>
				<path d="M1166.41,235.33c-0.89,0-1.67,0.27-2.14,0.5v-1.61c0.5-0.23,1.42-0.49,2.42-0.49c2.14,0,3.47,1.15,3.47,2.82
					c0,1.18-0.82,2.04-1.78,2.4c1.05,0.33,1.96,1.24,1.96,2.59c0,1.78-1.52,2.92-3.64,2.92c-1.27,0-2.03-0.29-2.59-0.56v-1.61
					c0.49,0.24,1.25,0.58,2.45,0.58c1.15,0,1.91-0.6,1.91-1.51c0-1.06-0.89-1.7-2.47-1.7h-0.35v-1.38h0.45c1.24,0,2.2-0.59,2.2-1.51
					C1168.28,235.85,1167.54,235.33,1166.41,235.33z"/>
			</g>
			<g>
				<path d="M1189.7,233.92v10.36h-1.8v-8.82h-1.32v-1.54H1189.7z"/>
				<path d="M1196.84,244.28v-2.36h-4.98l3.52-8h1.77l-2.83,6.49h2.55v-2.56h1.55v2.56h1.37v1.51h-1.37v2.36H1196.84z"/>
			</g>
			<g>
				<path d="M1218.71,233.92v10.36h-1.8v-8.82h-1.32v-1.54H1218.71z"/>
				<path d="M1221.29,242.22c0.5,0.36,1.34,0.65,2.29,0.65c1.22,0,2.14-0.71,2.14-1.9c0-1.17-0.96-1.87-2.24-1.87
					c-1.04,0-1.73,0.27-1.99,0.39l0.23-5.57h5.26v1.54h-3.7l-0.09,2.4c0.17-0.06,0.47-0.14,0.99-0.14c1.91,0,3.38,1.35,3.38,3.42
					c0,2.07-1.57,3.32-3.78,3.32c-1.12,0-1.97-0.3-2.5-0.65V242.22z"/>
			</g>
			<g>
				<path d="M1246.58,233.92v10.36h-1.8v-8.82h-1.32v-1.54H1246.58z"/>
				<path d="M1256.53,240.94c0,2.03-1.57,3.52-3.68,3.52c-2.09,0-3.64-1.5-3.64-3.61c0-2.6,2.4-5.64,4.13-6.93h2.3
					c-1.73,1.27-3.04,2.82-3.8,4c0.22-0.17,0.65-0.42,1.27-0.42C1255.14,237.5,1256.53,239.1,1256.53,240.94z M1254.88,240.94
					c0-1.17-0.85-2.04-2.03-2.04c-1.19,0-2.03,0.88-2.03,2.01c0,1.21,0.84,2.07,2.03,2.07
					C1254.03,242.98,1254.88,242.12,1254.88,240.94z"/>
			</g>
			<g>
				<path d="M1275.67,233.92v10.36h-1.8v-8.82h-1.32v-1.54H1275.67z"/>
				<path d="M1278.44,244.28l3.84-8.82h-4.49v-1.54h6.92l-4.37,10.36H1278.44z"/>
			</g>
			<g>
				<path d="M1303.52,233.92v10.36h-1.8v-8.82h-1.32v-1.54H1303.52z"/>
				<path d="M1310.66,244.28v-2.36h-4.98l3.52-8h1.77l-2.83,6.49h2.55v-2.56h1.55v2.56h1.37v1.51h-1.37v2.36H1310.66z"/>
			</g>
			<g>
				<path d="M1332.53,233.92v10.36h-1.8v-8.82h-1.32v-1.54H1332.53z"/>
				<path d="M1335.11,242.22c0.5,0.36,1.34,0.65,2.29,0.65c1.22,0,2.14-0.71,2.14-1.9c0-1.17-0.96-1.87-2.24-1.87
					c-1.04,0-1.73,0.27-1.99,0.39l0.23-5.57h5.26v1.54h-3.7l-0.09,2.4c0.17-0.06,0.47-0.14,0.99-0.14c1.91,0,3.38,1.35,3.38,3.42
					c0,2.07-1.57,3.32-3.78,3.32c-1.12,0-1.97-0.3-2.5-0.65V242.22z"/>
			</g>
			<g>
				<path d="M1332.32,200.38c0.5,0.36,1.34,0.65,2.29,0.65c1.22,0,2.14-0.71,2.14-1.9c0-1.17-0.96-1.87-2.24-1.87
					c-1.04,0-1.73,0.27-1.99,0.39l0.23-5.57h5.26v1.54h-3.7l-0.09,2.4c0.17-0.06,0.47-0.14,0.99-0.14c1.91,0,3.38,1.35,3.38,3.42
					c0,2.07-1.57,3.32-3.78,3.32c-1.12,0-1.97-0.3-2.5-0.65V200.38z"/>
			</g>
			<g>
				<path d="M1161.21,254.85v10.36h-1.8v-8.82h-1.32v-1.54H1161.21z"/>
				<path d="M1171.17,261.86c0,2.03-1.57,3.52-3.68,3.52c-2.09,0-3.64-1.5-3.64-3.61c0-2.6,2.4-5.64,4.13-6.93h2.3
					c-1.73,1.27-3.04,2.82-3.8,4c0.22-0.17,0.65-0.42,1.27-0.42C1169.77,258.43,1171.17,260.02,1171.17,261.86z M1169.51,261.86
					c0-1.17-0.85-2.04-2.03-2.04c-1.19,0-2.03,0.88-2.03,2.01c0,1.21,0.83,2.07,2.03,2.07
					C1168.67,263.91,1169.51,263.04,1169.51,261.86z"/>
			</g>
			<g>
				<path d="M1190.31,254.85v10.36h-1.8v-8.82h-1.32v-1.54H1190.31z"/>
				<path d="M1193.07,265.2l3.84-8.82h-4.49v-1.54h6.92l-4.37,10.36H1193.07z"/>
			</g>
			<g>
				<path d="M1218.37,254.85v10.36h-1.8v-8.82h-1.32v-1.54H1218.37z"/>
				<path d="M1221.07,257.33c0-1.54,1.38-2.69,3.27-2.69s3.28,1.15,3.28,2.69c0,1.41-1.17,2.3-1.84,2.6
					c0.78,0.35,2.01,1.24,2.01,2.72c0,1.57-1.42,2.75-3.45,2.75c-1.9,0-3.29-1.06-3.42-2.5c-0.03-0.35,0.01-0.66,0.1-0.98
					c0.29-1.06,1.28-1.73,1.88-1.99C1222.22,259.63,1221.07,258.74,1221.07,257.33z M1224.34,263.86c0.98,0,1.73-0.6,1.73-1.41
					c0-0.88-0.86-1.57-1.73-1.88c-0.86,0.32-1.74,1.01-1.74,1.88C1222.6,263.26,1223.36,263.86,1224.34,263.86z M1224.34,259.26
					c0.76-0.32,1.54-0.88,1.54-1.76c0-0.76-0.66-1.35-1.54-1.35c-0.88,0-1.54,0.59-1.54,1.35
					C1222.8,258.38,1223.56,258.94,1224.34,259.26z"/>
			</g>
			<g>
				<path d="M1246.74,254.85v10.36h-1.8v-8.82h-1.32v-1.54H1246.74z"/>
				<path d="M1249.12,258.18c0-2.03,1.58-3.54,3.7-3.54c2.07,0,3.62,1.52,3.62,3.62c0,2.62-2.39,5.64-4.13,6.93h-2.3
					c1.73-1.27,3.05-2.82,3.8-4c-0.2,0.17-0.65,0.42-1.25,0.42C1250.53,261.62,1249.12,260.02,1249.12,258.18z M1250.79,258.18
					c0,1.16,0.84,2.04,2.03,2.04c1.18,0,2.03-0.88,2.03-2.01c0-1.21-0.85-2.07-2.03-2.07C1251.62,256.14,1250.79,257,1250.79,258.18
					z"/>
			</g>
			<g>
				<path d="M1270.36,255.29c0.52-0.36,1.35-0.63,2.33-0.63c2.2,0,3.6,1.42,3.6,3.44c0,2-1.54,3.65-3.19,5.57h3.67v1.54h-6.95
					c2.65-3.05,4.39-4.92,4.56-6.75c0.04-0.4,0-0.76-0.12-1.06c-0.24-0.68-0.88-1.06-1.78-1.06c-0.88,0-1.65,0.32-2.11,0.66V255.29z
					"/>
				<path d="M1282.39,254.66c2.5,0,4.07,2.34,4.07,5.37c0,3.02-1.57,5.36-4.07,5.36c-2.49,0-4.07-2.34-4.07-5.36
					C1278.32,257,1279.91,254.66,1282.39,254.66z M1282.39,263.72c1.41,0,2.26-1.5,2.26-3.7c0-2.2-0.85-3.7-2.26-3.7
					c-1.39,0-2.24,1.5-2.24,3.7C1280.15,262.22,1281,263.72,1282.39,263.72z"/>
			</g>
			<g>
				<path d="M1300.94,255.29c0.52-0.36,1.35-0.63,2.33-0.63c2.2,0,3.6,1.42,3.6,3.44c0,2-1.54,3.65-3.19,5.57h3.67v1.54h-6.95
					c2.65-3.05,4.39-4.92,4.56-6.75c0.04-0.4,0-0.76-0.12-1.06c-0.24-0.68-0.88-1.06-1.78-1.06c-0.88,0-1.65,0.32-2.11,0.66V255.29z
					"/>
				<path d="M1312.02,254.85v10.36h-1.8v-8.82h-1.32v-1.54H1312.02z"/>
			</g>
			<g>
				<path d="M1328.17,255.29c0.52-0.36,1.35-0.63,2.33-0.63c2.2,0,3.6,1.42,3.6,3.44c0,2-1.54,3.65-3.19,5.57h3.67v1.54h-6.95
					c2.65-3.05,4.39-4.92,4.56-6.75c0.04-0.4,0-0.76-0.12-1.06c-0.24-0.68-0.88-1.06-1.78-1.06c-0.88,0-1.65,0.32-2.11,0.66V255.29z
					"/>
				<path d="M1336.21,255.29c0.52-0.36,1.35-0.63,2.33-0.63c2.2,0,3.6,1.42,3.6,3.44c0,2-1.54,3.65-3.19,5.57h3.67v1.54h-6.95
					c2.65-3.05,4.39-4.92,4.56-6.75c0.04-0.4,0-0.76-0.12-1.06c-0.24-0.68-0.88-1.06-1.78-1.06c-0.88,0-1.65,0.32-2.11,0.66V255.29z
					"/>
			</g>
			<g>
				<path d="M1157.66,276.21c0.52-0.36,1.35-0.63,2.33-0.63c2.2,0,3.6,1.42,3.6,3.44c0,2-1.54,3.65-3.19,5.57h3.67v1.54h-6.95
					c2.65-3.05,4.39-4.92,4.56-6.75c0.04-0.4,0-0.76-0.12-1.06c-0.24-0.68-0.88-1.06-1.78-1.06c-0.88,0-1.65,0.32-2.11,0.66V276.21z
					"/>
				<path d="M1167.65,277.18c-0.89,0-1.67,0.27-2.14,0.5v-1.61c0.5-0.23,1.42-0.49,2.42-0.49c2.14,0,3.47,1.15,3.47,2.82
					c0,1.18-0.82,2.04-1.78,2.4c1.05,0.33,1.96,1.24,1.96,2.59c0,1.78-1.52,2.92-3.64,2.92c-1.27,0-2.03-0.29-2.59-0.56v-1.61
					c0.49,0.24,1.25,0.58,2.45,0.58c1.15,0,1.91-0.6,1.91-1.51c0-1.06-0.89-1.7-2.47-1.7h-0.35v-1.38h0.45c1.24,0,2.2-0.59,2.2-1.51
					S1168.77,277.18,1167.65,277.18z"/>
			</g>
			<g>
				<path d="M1185.44,276.21c0.52-0.36,1.35-0.63,2.33-0.63c2.2,0,3.6,1.42,3.6,3.44c0,2-1.54,3.65-3.19,5.57h3.67v1.54h-6.95
					c2.65-3.05,4.39-4.92,4.56-6.75c0.04-0.4,0-0.76-0.12-1.06c-0.24-0.68-0.88-1.06-1.78-1.06c-0.88,0-1.65,0.32-2.11,0.66V276.21z
					"/>
				<path d="M1198.07,286.12v-2.36h-4.98l3.52-8h1.77l-2.83,6.49h2.55v-2.56h1.55v2.56h1.37v1.51h-1.37v2.36H1198.07z"/>
			</g>
			<g>
				<path d="M1214.45,276.21c0.52-0.36,1.35-0.63,2.33-0.63c2.2,0,3.6,1.42,3.6,3.44c0,2-1.54,3.65-3.19,5.57h3.67v1.54h-6.95
					c2.65-3.05,4.39-4.92,4.56-6.75c0.04-0.4,0-0.76-0.12-1.06c-0.24-0.68-0.88-1.06-1.78-1.06c-0.88,0-1.65,0.32-2.11,0.66V276.21z
					"/>
				<path d="M1222.52,284.07c0.5,0.36,1.34,0.65,2.29,0.65c1.22,0,2.14-0.71,2.14-1.9c0-1.17-0.96-1.87-2.24-1.87
					c-1.04,0-1.73,0.27-1.99,0.39l0.23-5.57h5.26v1.54h-3.7l-0.09,2.4c0.17-0.06,0.47-0.14,0.99-0.14c1.91,0,3.38,1.35,3.38,3.42
					c0,2.07-1.57,3.32-3.78,3.32c-1.12,0-1.97-0.3-2.5-0.65V284.07z"/>
			</g>
			<g>
				<path d="M1242.31,276.21c0.52-0.36,1.35-0.63,2.33-0.63c2.2,0,3.6,1.42,3.6,3.44c0,2-1.54,3.65-3.19,5.57h3.67v1.54h-6.95
					c2.65-3.05,4.39-4.92,4.56-6.75c0.04-0.4,0-0.76-0.11-1.06c-0.24-0.68-0.88-1.06-1.78-1.06c-0.88,0-1.65,0.32-2.11,0.66V276.21z
					"/>
				<path d="M1257.77,282.79c0,2.03-1.57,3.52-3.68,3.52c-2.09,0-3.64-1.5-3.64-3.61c0-2.6,2.4-5.64,4.13-6.93h2.3
					c-1.73,1.27-3.03,2.82-3.8,4c0.22-0.17,0.65-0.42,1.27-0.42C1256.37,279.35,1257.77,280.95,1257.77,282.79z M1256.11,282.79
					c0-1.17-0.85-2.04-2.03-2.04c-1.19,0-2.03,0.88-2.03,2.01c0,1.21,0.83,2.07,2.03,2.07
					C1255.26,284.83,1256.11,283.97,1256.11,282.79z"/>
			</g>
			<g>
				<path d="M1271.41,276.21c0.52-0.36,1.35-0.63,2.33-0.63c2.2,0,3.6,1.42,3.6,3.44c0,2-1.54,3.65-3.19,5.57h3.67v1.54h-6.95
					c2.65-3.05,4.39-4.92,4.56-6.75c0.04-0.4,0-0.76-0.12-1.06c-0.24-0.68-0.88-1.06-1.78-1.06c-0.88,0-1.65,0.32-2.11,0.66V276.21z
					"/>
				<path d="M1279.67,286.12l3.84-8.82h-4.49v-1.54h6.92l-4.37,10.36H1279.67z"/>
			</g>
		</g>
		<g>
			<path class="st3" d="M224.6,42.47c2.2-1.55,4.95-2.5,8.09-2.5c6.69,0,11.19,4.55,11.19,11.04c0,7.24-5.89,13.49-13.69,22.18
				h15.44v3.35h-22.78c11.44-12.74,17.14-18.93,17.14-25.48c0-4.5-3-7.54-7.59-7.54c-3.1,0-5.8,1.15-7.79,2.65V42.47z"/>
			<path class="st3" d="M265.82,39.97c8.14,0,13.29,7.99,13.29,18.59c0,10.64-5.15,18.59-13.29,18.59
				c-8.09,0-13.29-7.94-13.29-18.59C252.53,47.96,257.73,39.97,265.82,39.97z M265.82,73.59c5.75,0,9.44-6.15,9.44-15.04
				c0-8.89-3.7-15.04-9.44-15.04s-9.44,6.15-9.44,15.04C256.38,67.45,260.08,73.59,265.82,73.59z"/>
			<path class="st3" d="M285.76,42.47c2.2-1.55,4.95-2.5,8.09-2.5c6.69,0,11.19,4.55,11.19,11.04c0,7.24-5.9,13.49-13.69,22.18
				h15.44v3.35h-22.78c11.44-12.74,17.14-18.93,17.14-25.48c0-4.5-3-7.54-7.59-7.54c-3.1,0-5.8,1.15-7.79,2.65V42.47z"/>
			<path class="st3" d="M313.2,42.47c2.2-1.55,4.95-2.5,8.09-2.5c6.69,0,11.19,4.55,11.19,11.04c0,7.24-5.9,13.49-13.69,22.18h15.44
				v3.35h-22.78c11.44-12.74,17.14-18.93,17.14-25.48c0-4.5-3-7.54-7.59-7.54c-3.1,0-5.8,1.15-7.79,2.65V42.47z"/>
		</g>
		<g>
			<path class="st3" d="M939.22,53.21c2.2-1.55,4.95-2.5,8.09-2.5c6.69,0,11.19,4.55,11.19,11.04c0,7.24-5.9,13.49-13.69,22.18
				h15.44v3.35h-22.78c11.44-12.74,17.14-18.93,17.14-25.48c0-4.5-3-7.54-7.59-7.54c-3.1,0-5.8,1.15-7.79,2.65V53.21z"/>
			<path class="st3" d="M980.44,50.71c8.14,0,13.29,7.99,13.29,18.59c0,10.64-5.15,18.59-13.29,18.59
				c-8.09,0-13.29-7.94-13.29-18.59C967.16,58.7,972.35,50.71,980.44,50.71z M980.44,84.33c5.75,0,9.44-6.15,9.44-15.04
				c0-8.89-3.7-15.04-9.44-15.04S971,60.4,971,69.3C971,78.19,974.7,84.33,980.44,84.33z"/>
			<path class="st3" d="M1000.38,53.21c2.2-1.55,4.95-2.5,8.09-2.5c6.69,0,11.19,4.55,11.19,11.04c0,7.24-5.89,13.49-13.69,22.18
				h15.44v3.35h-22.78c11.44-12.74,17.14-18.93,17.14-25.48c0-4.5-3-7.54-7.59-7.54c-3.1,0-5.8,1.15-7.79,2.65V53.21z"/>
			<path class="st3" d="M1034.76,54.16c-3.05,0-5.99,1.05-7.74,1.95v-3.6c1.8-0.9,4.9-1.8,8.09-1.8c6.75,0,11.09,3.75,11.09,9.44
				c0,4.2-2.95,7.29-6.74,8.54c4.05,1.15,7.34,4.5,7.34,9.39c0,5.7-4.8,9.79-11.69,9.79c-4.35,0-6.84-1-8.74-2.05v-3.6
				c1.85,1,4.35,2.2,8.54,2.2c4.75,0,7.94-2.8,7.94-6.59c0-4.75-3.7-7.49-9.99-7.49h-0.95V67.2h1.4c5.05,0,8.94-2.7,8.94-6.74
				C1042.25,56.51,1039.21,54.16,1034.76,54.16z"/>
		</g>
		<rect x="54.11" y="107.14" class="st4" width="473.69" height="1"/>
		<rect x="629.04" y="107.14" class="st4" width="719.24" height="1"/>
	</g>
</g>
</svg>
