<?xml version="1.0" encoding="utf-8"?>
<!-- Generator: Adobe Illustrator 25.3.0, SVG Export Plug-In . SVG Version: 6.00 Build 0)  -->
<svg version="1.1" id="Layer_1" xmlns="http://www.w3.org/2000/svg" xmlns:xlink="http://www.w3.org/1999/xlink" x="0px" y="0px"
	 viewBox="0 0 155.11 115.97" style="enable-background:new 0 0 155.11 115.97;" xml:space="preserve">
<style type="text/css">
	.st0{fill:#FF972A;}
	.st1{fill:#1A2135;}
	.st2{filter:url(#Adobe_OpacityMaskFilter);}
	.st3{fill:url(#SVGID_2_);}
	.st4{mask:url(#SVGID_1_);fill:#FF972A;}
	.st5{filter:url(#Adobe_OpacityMaskFilter_1_);}
	.st6{fill:url(#SVGID_4_);}
	.st7{mask:url(#SVGID_3_);fill:#FF972A;}
	.st8{filter:url(#Adobe_OpacityMaskFilter_2_);}
	.st9{fill:url(#SVGID_6_);}
	.st10{mask:url(#SVGID_5_);fill:#353536;}
	.st11{filter:url(#Adobe_OpacityMaskFilter_3_);}
	.st12{fill:url(#SVGID_8_);}
	.st13{mask:url(#SVGID_7_);fill:#353536;}
	.st14{filter:url(#Adobe_OpacityMaskFilter_4_);}
	.st15{fill:url(#SVGID_10_);}
	.st16{mask:url(#SVGID_9_);fill:#353536;}
	.st17{filter:url(#Adobe_OpacityMaskFilter_5_);}
	.st18{fill:url(#SVGID_12_);}
	.st19{mask:url(#SVGID_11_);fill:#353536;}
	.st20{filter:url(#Adobe_OpacityMaskFilter_6_);}
	.st21{fill:url(#SVGID_14_);}
	.st22{mask:url(#SVGID_13_);fill:#353536;}
	.st23{filter:url(#Adobe_OpacityMaskFilter_7_);}
	.st24{fill:url(#SVGID_16_);}
	.st25{mask:url(#SVGID_15_);fill:#353536;}
	.st26{filter:url(#Adobe_OpacityMaskFilter_8_);}
	.st27{fill:url(#SVGID_18_);}
	.st28{mask:url(#SVGID_17_);fill:#353536;}
</style>
<g>
	<g>
		<g>
			<path class="st0" d="M41.17,102.46v-0.84c0.45,0.22,1.11,0.45,1.8,0.45c0.8,0,1.4-0.33,1.4-0.92c0-0.6-0.35-0.92-1.42-1.29
				c-1.23-0.43-1.81-0.95-1.81-1.93c0-1.08,0.91-1.72,2.13-1.72c0.64,0,1.24,0.17,1.59,0.33v0.81c-0.36-0.19-0.97-0.37-1.55-0.37
				c-0.79,0-1.34,0.36-1.34,0.92c0,0.52,0.31,0.9,1.4,1.28c1.23,0.45,1.82,0.94,1.82,1.9c0,1.09-0.84,1.74-2.19,1.74
				C42.28,102.83,41.6,102.64,41.17,102.46z"/>
			<path class="st0" d="M52.53,96.21c1.83,0,3.28,1.43,3.28,3.31c0,1.88-1.42,3.31-3.28,3.31c-1.86,0-3.28-1.43-3.28-3.31
				C49.25,97.67,50.67,96.21,52.53,96.21z M52.53,102.04c1.39,0,2.41-1.07,2.41-2.51c0-1.45-1.02-2.52-2.41-2.52
				s-2.42,1.07-2.42,2.52C50.11,100.97,51.14,102.04,52.53,102.04z"/>
			<path class="st0" d="M60.39,102.72v-6.4h0.85V102H64v0.72H60.39z"/>
			<path class="st0" d="M73.19,100.48c0,1.47-0.92,2.35-2.47,2.35c-1.54,0-2.46-0.88-2.46-2.35v-4.16h0.85v4.1
				c0,1.01,0.61,1.62,1.61,1.62c1.01,0,1.62-0.6,1.62-1.62v-4.1h0.85V100.48z"/>
			<path class="st0" d="M80.17,97.04v5.68h-0.85v-5.68h-1.95v-0.72h4.76v0.72H80.17z"/>
			<path class="st0" d="M86.43,102.72v-6.4h0.85v6.4H86.43z"/>
			<path class="st0" d="M95.14,96.21c1.83,0,3.28,1.43,3.28,3.31c0,1.88-1.42,3.31-3.28,3.31c-1.86,0-3.28-1.43-3.28-3.31
				C91.86,97.67,93.28,96.21,95.14,96.21z M95.14,102.04c1.39,0,2.41-1.07,2.41-2.51c0-1.45-1.02-2.52-2.41-2.52
				c-1.39,0-2.42,1.07-2.42,2.52C92.72,100.97,93.75,102.04,95.14,102.04z"/>
			<path class="st0" d="M108.03,102.83l-3.97-4.31l-0.2-0.22v4.43H103v-6.51H103l3.97,4.31l0.2,0.22v-4.43h0.85L108.03,102.83
				L108.03,102.83z"/>
			<path class="st0" d="M112.64,102.46v-0.84c0.45,0.22,1.11,0.45,1.8,0.45c0.8,0,1.4-0.33,1.4-0.92c0-0.6-0.35-0.92-1.42-1.29
				c-1.23-0.43-1.8-0.95-1.8-1.93c0-1.08,0.91-1.72,2.13-1.72c0.64,0,1.24,0.17,1.59,0.33v0.81c-0.36-0.19-0.97-0.37-1.55-0.37
				c-0.79,0-1.34,0.36-1.34,0.92c0,0.52,0.31,0.9,1.4,1.28c1.23,0.45,1.82,0.94,1.82,1.9c0,1.09-0.84,1.74-2.19,1.74
				C113.75,102.83,113.07,102.64,112.64,102.46z"/>
		</g>
	</g>
	<g>
		<path class="st1" d="M7.65,84.95v-1.8c0.61,0.32,1.41,0.58,2.2,0.63c0.28,0.01,0.55,0,0.78-0.05c0.67-0.1,1.06-0.35,1.06-0.78
			c0-0.58-0.52-0.89-1.73-1.33c-1.53-0.56-2.43-1.2-2.43-2.72c0-1.56,1.29-2.55,3.17-2.55c0.88,0,1.74,0.19,2.29,0.44v1.73
			c-0.51-0.3-1.34-0.54-2.14-0.54c-0.9,0-1.48,0.35-1.48,0.91c0,0.51,0.47,0.86,1.67,1.31c1.53,0.6,2.48,1.24,2.48,2.71
			c0,1.58-1.19,2.53-3.26,2.53C9.26,85.45,8.28,85.23,7.65,84.95z"/>
		<path class="st1" d="M24.36,78.09v7.19h-1.87v-7.19h-2.44v-1.57h6.77v1.57H24.36z"/>
		<path class="st1" d="M37.98,76.35c2.64,0,4.58,2.02,4.58,4.55c0,2.55-1.93,4.55-4.58,4.55c-2.65,0-4.59-1.99-4.59-4.55
			C33.4,78.39,35.33,76.35,37.98,76.35z M37.98,83.74c1.58,0,2.7-1.26,2.7-2.83c0-1.56-1.12-2.83-2.7-2.83
			c-1.58,0-2.7,1.28-2.7,2.83C35.28,82.47,36.4,83.74,37.98,83.74z"/>
		<path class="st1" d="M57.2,85.42l-4.8-4.61l-0.57-0.5v4.97h-1.84v-8.89h0.07L54.86,81l0.56,0.5v-4.97h1.85v8.89H57.2z"/>
		<path class="st1" d="M65.23,85.28v-8.76h5.63v1.57h-3.76v1.99h3.19v1.51h-3.19v2.12h3.94v1.57H65.23z"/>
		<path class="st1" d="M79.59,76.53l1.19,2.98c0.29,0.73,0.55,1.42,0.73,1.98c0.13-0.32,0.4-1,0.63-1.53l0.49-1.11l1.01-2.26h0.07
			c0.74,1.67,1.67,3.66,2.12,4.9c0.32-0.78,1.42-3.62,1.93-4.96h2.09l-3.93,8.89h-0.09l-1.71-3.92c-0.16-0.34-0.32-0.7-0.45-1.05
			c-0.13,0.34-0.29,0.7-0.44,1.05l-1.73,3.92h-0.09l-3.92-8.89H79.59z"/>
		<path class="st1" d="M100.89,76.35c2.64,0,4.58,2.02,4.58,4.55c0,2.55-1.93,4.55-4.58,4.55c-2.65,0-4.58-1.99-4.58-4.55
			C96.3,78.39,98.24,76.35,100.89,76.35z M100.89,83.74c1.58,0,2.7-1.26,2.7-2.83c0-1.56-1.12-2.83-2.7-2.83
			c-1.58,0-2.7,1.28-2.7,2.83C98.19,82.47,99.31,83.74,100.89,83.74z"/>
		<path class="st1" d="M115.97,76.53c2.03,0,3.38,1.01,3.38,2.88c0,1.28-0.72,2.12-1.67,2.49l1.84,3.38h-1.98L116,82.22h-1.26v3.06
			h-1.84v-8.76H115.97z M114.73,78.09v2.62h1.34c0.83,0,1.4-0.41,1.4-1.3c0-0.88-0.6-1.31-1.45-1.31H114.73z"/>
		<path class="st1" d="M128.79,80.66l3.41-4.14h2.21l-3.1,3.66l3.15,5.1h-2.09l-2.32-3.89l-1.25,1.42v2.47h-1.87v-8.76h1.87V80.66z"
			/>
		<path class="st1" d="M141.04,84.95v-1.8c0.61,0.32,1.41,0.58,2.2,0.63c0.28,0.01,0.55,0,0.78-0.05c0.67-0.1,1.06-0.35,1.06-0.78
			c0-0.58-0.52-0.89-1.73-1.33c-1.53-0.56-2.43-1.2-2.43-2.72c0-1.56,1.29-2.55,3.18-2.55c0.88,0,1.74,0.19,2.29,0.44v1.73
			c-0.51-0.3-1.34-0.54-2.14-0.54c-0.9,0-1.48,0.35-1.48,0.91c0,0.51,0.47,0.86,1.67,1.31c1.53,0.6,2.48,1.24,2.48,2.71
			c0,1.58-1.19,2.53-3.26,2.53C142.64,85.45,141.67,85.23,141.04,84.95z"/>
	</g>
	<g>
		<defs>
			<filter id="Adobe_OpacityMaskFilter" filterUnits="userSpaceOnUse" x="59.42" y="12.38" width="16.09" height="48.82">
				<feColorMatrix  type="matrix" values="1 0 0 0 0  0 1 0 0 0  0 0 1 0 0  0 0 0 1 0"/>
			</filter>
		</defs>
		<mask maskUnits="userSpaceOnUse" x="59.42" y="12.38" width="16.09" height="48.82" id="SVGID_1_">
			<g class="st2">
				<linearGradient id="SVGID_2_" gradientUnits="userSpaceOnUse" x1="63.224" y1="13.2742" x2="74.8644" y2="78.1279">
					<stop  offset="0" style="stop-color:#000000"/>
					<stop  offset="0.0889" style="stop-color:#070707"/>
					<stop  offset="0.2165" style="stop-color:#1A1A1A"/>
					<stop  offset="0.3674" style="stop-color:#393939"/>
					<stop  offset="0.5363" style="stop-color:#646464"/>
					<stop  offset="0.7202" style="stop-color:#9C9C9C"/>
					<stop  offset="0.9136" style="stop-color:#DFDFDF"/>
					<stop  offset="1" style="stop-color:#FFFFFF"/>
				</linearGradient>
				<rect x="57.76" y="10.18" class="st3" width="19.11" height="51.8"/>
			</g>
		</mask>
		<polygon class="st4" points="75.52,52.62 59.42,61.2 59.42,12.38 75.52,12.38 		"/>
		<defs>
			<filter id="Adobe_OpacityMaskFilter_1_" filterUnits="userSpaceOnUse" x="59.42" y="12.38" width="16.09" height="48.82">
				<feColorMatrix  type="matrix" values="1 0 0 0 0  0 1 0 0 0  0 0 1 0 0  0 0 0 1 0"/>
			</filter>
		</defs>
		<mask maskUnits="userSpaceOnUse" x="59.42" y="12.38" width="16.09" height="48.82" id="SVGID_3_">
			<g class="st5">
				<linearGradient id="SVGID_4_" gradientUnits="userSpaceOnUse" x1="63.224" y1="13.2742" x2="74.8644" y2="78.1279">
					<stop  offset="0" style="stop-color:#000000"/>
					<stop  offset="0.0889" style="stop-color:#070707"/>
					<stop  offset="0.2165" style="stop-color:#1A1A1A"/>
					<stop  offset="0.3674" style="stop-color:#393939"/>
					<stop  offset="0.5363" style="stop-color:#646464"/>
					<stop  offset="0.7202" style="stop-color:#9C9C9C"/>
					<stop  offset="0.9136" style="stop-color:#DFDFDF"/>
					<stop  offset="1" style="stop-color:#FFFFFF"/>
				</linearGradient>
				<rect x="57.76" y="10.18" class="st6" width="19.11" height="51.8"/>
			</g>
		</mask>
		<polygon class="st7" points="75.52,52.62 59.42,61.2 59.42,12.38 75.52,12.38 		"/>
		<defs>
			<filter id="Adobe_OpacityMaskFilter_2_" filterUnits="userSpaceOnUse" x="38.88" y="21.81" width="16.09" height="48.82">
				<feColorMatrix  type="matrix" values="1 0 0 0 0  0 1 0 0 0  0 0 1 0 0  0 0 0 1 0"/>
			</filter>
		</defs>
		<mask maskUnits="userSpaceOnUse" x="38.88" y="21.81" width="16.09" height="48.82" id="SVGID_5_">
			<g class="st8">
				<linearGradient id="SVGID_6_" gradientUnits="userSpaceOnUse" x1="41.7274" y1="25.1988" x2="52.8377" y2="72.5808">
					<stop  offset="0.0582" style="stop-color:#000000"/>
					<stop  offset="0.1383" style="stop-color:#070707"/>
					<stop  offset="0.2546" style="stop-color:#1A1A1A"/>
					<stop  offset="0.393" style="stop-color:#3A3A3A"/>
					<stop  offset="0.5483" style="stop-color:#666666"/>
					<stop  offset="0.7178" style="stop-color:#9F9F9F"/>
					<stop  offset="0.8964" style="stop-color:#E2E2E2"/>
					<stop  offset="0.9661" style="stop-color:#FFFFFF"/>
				</linearGradient>
				<rect x="37.71" y="21.25" class="st9" width="18" height="50.41"/>
			</g>
		</mask>
		<polygon class="st10" points="54.97,62.05 38.88,70.63 38.88,21.81 54.97,21.81 		"/>
		<defs>
			<filter id="Adobe_OpacityMaskFilter_3_" filterUnits="userSpaceOnUse" x="68.37" y="14.53" width="16.09" height="48.82">
				<feColorMatrix  type="matrix" values="1 0 0 0 0  0 1 0 0 0  0 0 1 0 0  0 0 0 1 0"/>
			</filter>
		</defs>
		<mask maskUnits="userSpaceOnUse" x="68.37" y="14.53" width="16.09" height="48.82" id="SVGID_7_">
			<g class="st11">
				<linearGradient id="SVGID_8_" gradientUnits="userSpaceOnUse" x1="80.8435" y1="14.6473" x2="70.7591" y2="63.1485">
					<stop  offset="0" style="stop-color:#000000"/>
					<stop  offset="0.0889" style="stop-color:#070707"/>
					<stop  offset="0.2165" style="stop-color:#1A1A1A"/>
					<stop  offset="0.3674" style="stop-color:#393939"/>
					<stop  offset="0.5363" style="stop-color:#646464"/>
					<stop  offset="0.7202" style="stop-color:#9C9C9C"/>
					<stop  offset="0.9136" style="stop-color:#DFDFDF"/>
					<stop  offset="1" style="stop-color:#FFFFFF"/>
				</linearGradient>
				<rect x="66.83" y="13.37" class="st12" width="18.07" height="50.41"/>
			</g>
		</mask>
		<polygon class="st13" points="84.47,54.76 68.37,63.35 68.37,14.53 84.47,14.53 		"/>
		<defs>
			<filter id="Adobe_OpacityMaskFilter_4_" filterUnits="userSpaceOnUse" x="80.52" y="10.24" width="16.09" height="48.82">
				<feColorMatrix  type="matrix" values="1 0 0 0 0  0 1 0 0 0  0 0 1 0 0  0 0 0 1 0"/>
			</filter>
		</defs>
		<mask maskUnits="userSpaceOnUse" x="80.52" y="10.24" width="16.09" height="48.82" id="SVGID_9_">
			<g class="st14">
				<linearGradient id="SVGID_10_" gradientUnits="userSpaceOnUse" x1="93.1006" y1="10.6909" x2="83.1462" y2="58.5667">
					<stop  offset="0" style="stop-color:#000000"/>
					<stop  offset="0.0889" style="stop-color:#070707"/>
					<stop  offset="0.2165" style="stop-color:#1A1A1A"/>
					<stop  offset="0.3674" style="stop-color:#393939"/>
					<stop  offset="0.5363" style="stop-color:#646464"/>
					<stop  offset="0.7202" style="stop-color:#9C9C9C"/>
					<stop  offset="0.9136" style="stop-color:#DFDFDF"/>
					<stop  offset="1" style="stop-color:#FFFFFF"/>
				</linearGradient>
				<rect x="79.23" y="9.44" class="st15" width="17.92" height="49.74"/>
			</g>
		</mask>
		<polygon class="st16" points="80.52,50.47 96.61,59.06 96.61,10.24 80.52,10.24 		"/>
		<defs>
			<filter id="Adobe_OpacityMaskFilter_5_" filterUnits="userSpaceOnUse" x="111.95" y="28.64" width="9.59" height="43.47">
				<feColorMatrix  type="matrix" values="1 0 0 0 0  0 1 0 0 0  0 0 1 0 0  0 0 0 1 0"/>
			</filter>
		</defs>
		<mask maskUnits="userSpaceOnUse" x="111.95" y="28.64" width="9.59" height="43.47" id="SVGID_11_">
			<g class="st17">
				<linearGradient id="SVGID_12_" gradientUnits="userSpaceOnUse" x1="120.9426" y1="29.6796" x2="112.2931" y2="71.2798">
					<stop  offset="0" style="stop-color:#000000"/>
					<stop  offset="0.0889" style="stop-color:#070707"/>
					<stop  offset="0.2165" style="stop-color:#1A1A1A"/>
					<stop  offset="0.3674" style="stop-color:#393939"/>
					<stop  offset="0.5363" style="stop-color:#646464"/>
					<stop  offset="0.7202" style="stop-color:#9C9C9C"/>
					<stop  offset="0.9136" style="stop-color:#DFDFDF"/>
					<stop  offset="1" style="stop-color:#FFFFFF"/>
				</linearGradient>
				<rect x="111.42" y="28.07" class="st18" width="10.52" height="44.27"/>
			</g>
		</mask>
		<polygon class="st19" points="111.95,67 121.53,72.11 121.53,28.64 111.95,28.64 		"/>
		<defs>
			<filter id="Adobe_OpacityMaskFilter_6_" filterUnits="userSpaceOnUse" x="98.76" y="22.75" width="6.08" height="40.6">
				<feColorMatrix  type="matrix" values="1 0 0 0 0  0 1 0 0 0  0 0 1 0 0  0 0 0 1 0"/>
			</filter>
		</defs>
		<mask maskUnits="userSpaceOnUse" x="98.76" y="22.75" width="6.08" height="40.6" id="SVGID_13_">
			<g class="st20">
				<linearGradient id="SVGID_14_" gradientUnits="userSpaceOnUse" x1="105.7523" y1="23.5342" x2="97.6626" y2="62.4418">
					<stop  offset="0" style="stop-color:#000000"/>
					<stop  offset="0.0889" style="stop-color:#070707"/>
					<stop  offset="0.2165" style="stop-color:#1A1A1A"/>
					<stop  offset="0.3674" style="stop-color:#393939"/>
					<stop  offset="0.5363" style="stop-color:#646464"/>
					<stop  offset="0.7202" style="stop-color:#9C9C9C"/>
					<stop  offset="0.9136" style="stop-color:#DFDFDF"/>
					<stop  offset="1" style="stop-color:#FFFFFF"/>
				</linearGradient>
				<rect x="97.9" y="21.81" class="st21" width="7.72" height="41.85"/>
			</g>
		</mask>
		<polygon class="st22" points="98.76,60.1 104.84,63.35 104.84,22.75 98.76,22.75 		"/>
		<defs>
			<filter id="Adobe_OpacityMaskFilter_7_" filterUnits="userSpaceOnUse" x="102.39" y="28.07" width="6.08" height="40.6">
				<feColorMatrix  type="matrix" values="1 0 0 0 0  0 1 0 0 0  0 0 1 0 0  0 0 0 1 0"/>
			</filter>
		</defs>
		<mask maskUnits="userSpaceOnUse" x="102.39" y="28.07" width="6.08" height="40.6" id="SVGID_15_">
			<g class="st23">
				<linearGradient id="SVGID_16_" gradientUnits="userSpaceOnUse" x1="109.4602" y1="28.9736" x2="101.428" y2="67.6044">
					<stop  offset="0" style="stop-color:#000000"/>
					<stop  offset="0.0889" style="stop-color:#070707"/>
					<stop  offset="0.2165" style="stop-color:#1A1A1A"/>
					<stop  offset="0.3674" style="stop-color:#393939"/>
					<stop  offset="0.5363" style="stop-color:#646464"/>
					<stop  offset="0.7202" style="stop-color:#9C9C9C"/>
					<stop  offset="0.9136" style="stop-color:#DFDFDF"/>
					<stop  offset="1" style="stop-color:#FFFFFF"/>
				</linearGradient>
				<rect x="101.45" y="27.3" class="st24" width="8.09" height="41.46"/>
			</g>
		</mask>
		<polygon class="st25" points="102.39,65.42 108.46,68.66 108.46,28.07 102.39,28.07 		"/>
		<defs>
			<filter id="Adobe_OpacityMaskFilter_8_" filterUnits="userSpaceOnUse" x="50.92" y="26.73" width="6.08" height="40.6">
				<feColorMatrix  type="matrix" values="1 0 0 0 0  0 1 0 0 0  0 0 1 0 0  0 0 0 1 0"/>
			</filter>
		</defs>
		<mask maskUnits="userSpaceOnUse" x="50.92" y="26.73" width="6.08" height="40.6" id="SVGID_17_">
			<g class="st26">
				<linearGradient id="SVGID_18_" gradientUnits="userSpaceOnUse" x1="50.6092" y1="27.8106" x2="59.4321" y2="69.6375">
					<stop  offset="0.1391" style="stop-color:#000000"/>
					<stop  offset="0.2156" style="stop-color:#070707"/>
					<stop  offset="0.3255" style="stop-color:#1A1A1A"/>
					<stop  offset="0.4554" style="stop-color:#393939"/>
					<stop  offset="0.6008" style="stop-color:#646464"/>
					<stop  offset="0.7591" style="stop-color:#9C9C9C"/>
					<stop  offset="0.9256" style="stop-color:#DFDFDF"/>
					<stop  offset="1" style="stop-color:#FFFFFF"/>
				</linearGradient>
				<rect x="48.56" y="17.84" class="st27" width="10.52" height="50.41"/>
			</g>
		</mask>
		<polygon class="st28" points="57,64.09 50.92,67.33 50.92,26.73 57,26.73 		"/>
	</g>
</g>
</svg>
